SplineFontDB: 3.0
FontName: QuranTaha
FullName: QuranTaha
FamilyName: QuranTaha
Weight: Book
Copyright: Copyright (c) 2009  by Crcis Noor Corporation. All rights reserved.
Version: 2.00 July 6, 2015
ItalicAngle: 0
UnderlinePosition: -800
UnderlineWidth: 100
Ascent: 1200
Descent: 300
InvalidEm: 0
sfntRevision: 0x00020000
LayerCount: 2
Layer: 0 1 "Back" 1
Layer: 1 1 "Fore" 0
XUID: [1021 292 -120173745 11626929]
FSType: 2
OS2Version: 3
OS2_WeightWidthSlopeOnly: 0
OS2_UseTypoMetrics: 1
CreationTime: 1272544436
ModificationTime: 1466197996
PfmFamily: 17
TTFWeight: 400
TTFWidth: 5
LineGap: 0
VLineGap: 0
Panose: 2 1 0 0 0 0 0 0 0 0
OS2TypoAscent: 950
OS2TypoAOffset: 0
OS2TypoDescent: -300
OS2TypoDOffset: 0
OS2TypoLinegap: 150
OS2WinAscent: 1650
OS2WinAOffset: 0
OS2WinDescent: 850
OS2WinDOffset: 0
HheadAscent: 1700
HheadAOffset: 0
HheadDescent: -900
HheadDOffset: 0
OS2SubXSize: 1434
OS2SubYSize: 1331
OS2SubXOff: 0
OS2SubYOff: 293
OS2SupXSize: 1434
OS2SupYSize: 1331
OS2SupXOff: 0
OS2SupYOff: 928
OS2StrikeYSize: 102
OS2StrikeYPos: 530
OS2CapHeight: 1421
OS2XHeight: 940
OS2Vendor: 'GLYF'
OS2CodePages: 00000041.00000000
OS2UnicodeRanges: 80002043.80002000.00000008.00000000
Lookup: 3 9 0 "'fina' Terminal Forms in Arabic lookup 0" { "'fina' Terminal Forms in Arabic lookup 0 subtable"  } ['fina' ('arab' <'dflt' > ) ]
Lookup: 4 1 0 "'ccmp' Glyph Composition/Decomposition in Arabic lookup 1" { "'ccmp' Glyph Composition/Decomposition in Arabic lookup 1 subtable"  } ['ccmp' ('arab' <'dflt' > ) ]
Lookup: 6 9 0 "'calt' Contextual Alternates in Arabic lookup 2" { "'calt' Contextual Alternates in Arabic lookup 2 subtable"  } ['calt' ('arab' <'dflt' > ) ]
Lookup: 6 9 0 "'calt' Contextual Alternates in Arabic lookup 3" { "'calt' Contextual Alternates in Arabic lookup 3 subtable"  } ['calt' ('arab' <'dflt' > ) ]
Lookup: 6 1 0 "Contextual Chaining Substitution lookup 4" { "Contextual Chaining Substitution lookup 4 subtable"  } []

StartChar: .notdef
Encoding: 1114112 -1 0
Width: 1024
GlyphClass: 2
Flags: W
LayerCount: 2
Back
Fore
SplineSet
128 0 m 1,0,-1
 128 1450 l 1,1,-1
 896 1450 l 1,2,-1
 896 0 l 1,3,-1
 128 0 l 1,0,-1
256 128 m 1,4,-1
 768 128 l 1,5,-1
 768 1322 l 1,6,-1
 256 1322 l 1,7,-1
 256 128 l 1,4,-1
EndSplineSet
EndChar

StartChar: uni060C
Encoding: 1548 1548 4
Width: 331
GlyphClass: 2
Flags: W
LayerCount: 2
Back
Fore
SplineSet
334 60 m 0,0,1
 334 31 334 31 308 -1 c 0,2,3
 277 -39 277 -39 247 -35 c 0,4,5
 206 -29 206 -29 175 18 c 0,6,7
 147 60 147 60 150 116 c 0,8,9
 154 167 154 167 199 222.5 c 128,-1,10
 244 278 244 278 294 302 c 1,11,12
 314 302 314 302 300 282 c 1,13,14
 264 249 264 249 245 220 c 0,15,16
 231 194 231 194 235 169 c 0,17,18
 237 156 237 156 244 146.5 c 128,-1,19
 251 137 251 137 267 127 c 2,20,-1
 311 97 l 2,21,22
 334 83 334 83 334 60 c 0,0,1
EndSplineSet
EndChar

StartChar: uni061B
Encoding: 1563 1563 5
Width: 334
GlyphClass: 2
Flags: W
LayerCount: 2
Back
Fore
SplineSet
333 43 m 2,0,-1
 262 -27 l 2,1,2
 258 -32 258 -32 253 -32 c 256,3,4
 248 -32 248 -32 240 -26 c 0,5,6
 229 -16 229 -16 210 3 c 0,7,8
 197 16 197 16 170 45 c 0,9,10
 165 49 165 49 170 58 c 2,11,-1
 243 131 l 2,12,13
 250 138 250 138 258 133 c 2,14,-1
 333 59 l 2,15,16
 337 52 337 52 333 43 c 2,0,-1
346 320 m 0,17,18
 346 291 346 291 320 259 c 0,19,20
 289 221 289 221 259 225 c 0,21,22
 218 231 218 231 187 278 c 0,23,24
 159 320 159 320 162 376 c 0,25,26
 166 427 166 427 211 482.5 c 128,-1,27
 256 538 256 538 306 562 c 1,28,29
 326 562 326 562 312 542 c 1,30,31
 276 509 276 509 257 480 c 0,32,33
 243 454 243 454 247 429 c 0,34,35
 249 416 249 416 256 406.5 c 128,-1,36
 263 397 263 397 279 387 c 2,37,-1
 323 357 l 2,38,39
 346 343 346 343 346 320 c 0,17,18
EndSplineSet
EndChar

StartChar: uni061F
Encoding: 1567 1567 6
Width: 555
GlyphClass: 2
Flags: W
LayerCount: 2
Back
Fore
SplineSet
554 886 m 1,0,1
 512 817 512 817 478 763 c 1,2,3
 459 776 459 776 434 791 c 0,4,5
 405 807 405 807 376 810 c 0,6,7
 327 810 327 810 304 787 c 0,8,9
 293 777 293 777 286 759.5 c 128,-1,10
 279 742 279 742 283 724 c 0,11,12
 287 682 287 682 386 579 c 1,13,14
 438 519 438 519 464 473 c 128,-1,15
 490 427 490 427 490 392 c 0,16,17
 490 368 490 368 465.5 325.5 c 128,-1,18
 441 283 441 283 390 216 c 1,19,-1
 318 275 l 1,20,21
 392 370 392 370 392 394 c 0,22,23
 392 434 392 434 282 539 c 0,24,25
 157 658 157 658 157 760 c 0,26,27
 157 850 157 850 216 902 c 0,28,29
 283 960 283 960 368 960 c 0,30,31
 465 960 465 960 554 886 c 1,0,1
488 44 m 2,32,-1
 393 -54 l 2,33,34
 384 -63 384 -63 378 -62 c 0,35,36
 371 -63 371 -63 362 -53 c 2,37,-1
 262 43 l 2,38,39
 257 51 257 51 263 59 c 128,-1,40
 269 67 269 67 365 165 c 0,41,42
 369 169 369 169 374 169 c 0,43,44
 378 170 378 170 384 166 c 2,45,-1
 488 65 l 2,46,47
 493 60 493 60 493 55 c 0,48,49
 494 50 494 50 488 44 c 2,32,-1
EndSplineSet
EndChar

StartChar: uni0621
Encoding: 1569 1569 7
Width: 551
GlyphClass: 2
Flags: W
AnchorPoint: "Cursive-18" 516 0 entry 0
AnchorPoint: "Anchor-2" 220 385 basechar 0
AnchorPoint: "Anchor-1" 360 -45 basechar 0
AnchorPoint: "Anchor-0" 285 450 basechar 0
LayerCount: 2
Back
Fore
SplineSet
513 81 m 0,1,2
 400 57 400 57 322 21 c 0,3,4
 279 2 279 2 215 -34 c 0,5,6
 165 -62 165 -62 156 -62 c 0,7,8
 150 -62 150 -62 150 -52 c 0,9,10
 150 -41 150 -41 154 -27.5 c 128,-1,11
 158 -14 158 -14 166.5 1.5 c 128,-1,12
 175 17 175 17 181 26 c 1,13,14
 159 41 159 41 144 56 c 0,15,16
 128 76 128 76 125 88 c 128,-1,17
 122 100 122 100 123.5 111 c 128,-1,18
 125 122 125 122 125 123 c 0,19,20
 149 235 149 235 260 322 c 0,21,22
 283 340 283 340 303 347 c 128,-1,23
 323 354 323 354 343 354 c 0,24,25
 367 354 367 354 392 332 c 0,26,27
 418 308 418 308 418 292 c 0,28,29
 418 285 418 285 416 282 c 0,30,31
 411 270 411 270 382.5 236.5 c 128,-1,32
 354 203 354 203 352 213 c 0,33,34
 335 239 335 239 315 247.5 c 128,-1,35
 295 256 295 256 276.5 250.5 c 128,-1,36
 258 245 258 245 243.5 229.5 c 128,-1,37
 229 214 229 214 228 195 c 0,38,39
 230 155 230 155 284 142 c 0,40,41
 298 139 298 139 320.5 139 c 128,-1,42
 343 139 343 139 395 149 c 2,43,-1
 509 178 l 2,44,45
 548 189 548 189 553.5 187 c 128,-1,46
 559 185 559 185 555 165 c 128,-1,47
 551 145 551 145 541 114 c 128,-1,0
 531 83 531 83 513 81 c 0,1,2
EndSplineSet
EndChar

StartChar: uni0622
Encoding: 1570 1570 8
Width: 331
GlyphClass: 2
Flags: W
AnchorPoint: "Cursive-30" 260 0 entry 0
AnchorPoint: "Cursive-26" -363 0 exit 0
AnchorPoint: "Cursive-20" -363 0 exit 0
AnchorPoint: "Cursive-18" 260 0 entry 0
AnchorPoint: "Anchor-2" 154 1353 basechar 0
AnchorPoint: "Anchor-1" 240 -45 basechar 0
AnchorPoint: "Anchor-0" 180 1350 basechar 0
LayerCount: 2
Back
Fore
SplineSet
390 1315 m 0,0,1
 390 1305 390 1305 370 1280.5 c 128,-1,2
 350 1256 350 1256 322 1234.5 c 128,-1,3
 294 1213 294 1213 270 1200.5 c 128,-1,4
 246 1188 246 1188 216.5 1181.5 c 128,-1,5
 187 1175 187 1175 149 1190 c 2,6,-1
 105 1208 l 2,7,8
 70 1223 70 1223 57 1228 c 0,9,10
 39 1235 39 1235 3 1206 c 0,11,12
 -12 1193 -12 1193 -24 1184 c 0,13,14
 -28 1181 -28 1181 -34 1177 c 0,15,16
 -38 1177 -38 1177 -37 1181.5 c 128,-1,17
 -36 1186 -36 1186 -19 1214 c 2,18,-1
 4 1246 l 2,19,20
 52 1308 52 1308 81 1301 c 1,21,-1
 91 1297 l 1,22,23
 143 1270 143 1270 176 1260 c 0,24,25
 219 1249 219 1249 260.5 1256.5 c 128,-1,26
 302 1264 302 1264 375 1313 c 0,27,28
 391 1324 391 1324 390 1315 c 0,0,1
279 224 m 2,29,30
 282 136 282 136 255 51 c 0,31,32
 236 -3 236 -3 220 -2 c 0,33,34
 211 -2 211 -2 211 51 c 2,35,-1
 210 119 l 2,36,37
 211 170 211 170 180 406 c 2,38,-1
 105 928 l 2,39,40
 100 976 100 976 132 1037 c 0,41,42
 168 1104 168 1104 180 1099 c 0,43,44
 188 1098 188 1098 198 1010 c 0,45,46
 203 968 203 968 221 798 c 2,47,-1
 275 284 l 1,48,-1
 279 224 l 2,29,30
EndSplineSet
Substitution2: "Single Substitution lookup 42 subtable" uniFE82
Substitution2: "Single Substitution lookup 40 subtable" uniFE82
Ligature2: "'calt' Contextual Alternates in Arabic lookup 11 subtable" uni0627 uni0653
AlternateSubs2: "'fina' Terminal Forms in Arabic lookup 0 subtable" uniFE82
PairPos2: "'kern' Horizontal Kerning in Arabic lookup 13 subtable" uni0686 dx=0 dy=0 dh=0 dv=0 dx=0 dy=220 dh=0 dv=0
PairPos2: "'kern' Horizontal Kerning in Arabic lookup 13 subtable" uni06CC dx=0 dy=0 dh=0 dv=0 dx=0 dy=150 dh=0 dv=0
PairPos2: "'kern' Horizontal Kerning in Arabic lookup 13 subtable" uni064A dx=0 dy=0 dh=0 dv=0 dx=0 dy=150 dh=0 dv=0
PairPos2: "'kern' Horizontal Kerning in Arabic lookup 13 subtable" uni0649 dx=0 dy=0 dh=0 dv=0 dx=0 dy=150 dh=0 dv=0
PairPos2: "'kern' Horizontal Kerning in Arabic lookup 13 subtable" uni0646 dx=0 dy=0 dh=0 dv=0 dx=0 dy=165 dh=0 dv=0
PairPos2: "'kern' Horizontal Kerning in Arabic lookup 13 subtable" uni0645 dx=0 dy=0 dh=0 dv=0 dx=0 dy=165 dh=0 dv=0
PairPos2: "'kern' Horizontal Kerning in Arabic lookup 13 subtable" uni0644 dx=0 dy=0 dh=0 dv=0 dx=0 dy=135 dh=0 dv=0
PairPos2: "'kern' Horizontal Kerning in Arabic lookup 13 subtable" uni0642 dx=0 dy=0 dh=0 dv=0 dx=0 dy=165 dh=0 dv=0
PairPos2: "'kern' Horizontal Kerning in Arabic lookup 13 subtable" uni0639 dx=0 dy=0 dh=0 dv=0 dx=0 dy=200 dh=0 dv=0
PairPos2: "'kern' Horizontal Kerning in Arabic lookup 13 subtable" uni0636 dx=0 dy=0 dh=0 dv=0 dx=0 dy=50 dh=0 dv=0
PairPos2: "'kern' Horizontal Kerning in Arabic lookup 13 subtable" uni0635 dx=0 dy=0 dh=0 dv=0 dx=0 dy=50 dh=0 dv=0
PairPos2: "'kern' Horizontal Kerning in Arabic lookup 13 subtable" uni0634 dx=0 dy=0 dh=0 dv=0 dx=0 dy=100 dh=0 dv=0
PairPos2: "'kern' Horizontal Kerning in Arabic lookup 13 subtable" uni0633 dx=0 dy=0 dh=0 dv=0 dx=0 dy=100 dh=0 dv=0
PairPos2: "'kern' Horizontal Kerning in Arabic lookup 13 subtable" uni062E dx=0 dy=0 dh=0 dv=0 dx=0 dy=220 dh=0 dv=0
PairPos2: "'kern' Horizontal Kerning in Arabic lookup 13 subtable" uni062D dx=0 dy=0 dh=0 dv=0 dx=0 dy=220 dh=0 dv=0
PairPos2: "'kern' Horizontal Kerning in Arabic lookup 13 subtable" uni062C dx=0 dy=0 dh=0 dv=0 dx=0 dy=220 dh=0 dv=0
PairPos2: "'kern' Horizontal Kerning in Arabic lookup 13 subtable" uni0626 dx=0 dy=0 dh=0 dv=0 dx=0 dy=150 dh=0 dv=0
EndChar

StartChar: uni0623
Encoding: 1571 1571 9
Width: 245
GlyphClass: 2
Flags: W
AnchorPoint: "Cursive-30" 227 0 entry 0
AnchorPoint: "Cursive-26" -341 0 exit 0
AnchorPoint: "Cursive-20" -341 0 exit 0
AnchorPoint: "Cursive-18" 227 0 entry 0
AnchorPoint: "Anchor-2" 154 1353 basechar 0
AnchorPoint: "Anchor-1" 195 -90 basechar 0
AnchorPoint: "Anchor-0" 120 1395 basechar 0
LayerCount: 2
Back
Fore
SplineSet
240 1237 m 0,1,2
 186 1221 186 1221 146 1198 c 0,3,4
 124 1186 124 1186 91 1163 c 0,5,6
 66 1146 66 1146 61 1146 c 0,7,8
 58 1145 58 1145 56 1151 c 0,9,10
 55 1157 55 1157 57 1165 c 128,-1,11
 59 1173 59 1173 63 1181 c 128,-1,12
 67 1189 67 1189 70 1194 c 1,13,14
 58 1201 58 1201 49 1208 c 0,15,16
 39 1218 39 1218 37 1224.5 c 128,-1,17
 35 1231 35 1231 36 1243 c 0,18,19
 43 1305 43 1305 99 1357 c 0,20,21
 110 1367 110 1367 120.5 1372 c 128,-1,22
 131 1377 131 1377 142 1378 c 0,23,24
 155 1379 155 1379 169 1368 c 0,25,26
 184 1357 184 1357 185 1348 c 0,27,28
 185 1344 185 1344 184 1342 c 0,29,30
 182 1336 182 1336 168.5 1316.5 c 128,-1,31
 155 1297 155 1297 153 1302 c 0,32,33
 143 1316 143 1316 132 1319.5 c 128,-1,34
 121 1323 121 1323 111 1319 c 128,-1,35
 101 1315 101 1315 94 1306 c 128,-1,36
 87 1297 87 1297 87 1287 c 0,37,38
 90 1266 90 1266 120 1261 c 0,39,40
 128 1260 128 1260 140 1261 c 128,-1,41
 152 1262 152 1262 179 1270 c 2,42,-1
 239 1291 l 2,43,44
 260 1299 260 1299 263 1298 c 128,-1,45
 266 1297 266 1297 261 1268.5 c 128,-1,0
 256 1240 256 1240 240 1237 c 0,1,2
241 224 m 2,46,47
 244 136 244 136 217 51 c 0,48,49
 198 -3 198 -3 182 -2 c 0,50,51
 173 -2 173 -2 173 51 c 2,52,-1
 172 119 l 2,53,54
 173 170 173 170 142 406 c 2,55,-1
 67 928 l 2,56,57
 62 976 62 976 94 1037 c 0,58,59
 130 1104 130 1104 142 1099 c 0,60,61
 150 1098 150 1098 160 1010 c 0,62,63
 165 968 165 968 183 798 c 2,64,-1
 237 284 l 1,65,-1
 241 224 l 2,46,47
EndSplineSet
Substitution2: "Single Substitution lookup 42 subtable" uniFE84
Substitution2: "Single Substitution lookup 40 subtable" uniFE84
Ligature2: "'calt' Contextual Alternates in Arabic lookup 11 subtable" uni0627 uni0654
AlternateSubs2: "'fina' Terminal Forms in Arabic lookup 0 subtable" uniFE84
PairPos2: "'kern' Horizontal Kerning in Arabic lookup 13 subtable" uni0686 dx=0 dy=0 dh=0 dv=0 dx=0 dy=220 dh=0 dv=0
PairPos2: "'kern' Horizontal Kerning in Arabic lookup 13 subtable" uni06CC dx=0 dy=0 dh=0 dv=0 dx=0 dy=150 dh=0 dv=0
PairPos2: "'kern' Horizontal Kerning in Arabic lookup 13 subtable" uni064A dx=0 dy=0 dh=0 dv=0 dx=0 dy=150 dh=0 dv=0
PairPos2: "'kern' Horizontal Kerning in Arabic lookup 13 subtable" uni0649 dx=0 dy=0 dh=0 dv=0 dx=0 dy=150 dh=0 dv=0
PairPos2: "'kern' Horizontal Kerning in Arabic lookup 13 subtable" uni0646 dx=0 dy=0 dh=0 dv=0 dx=0 dy=165 dh=0 dv=0
PairPos2: "'kern' Horizontal Kerning in Arabic lookup 13 subtable" uni0645 dx=0 dy=0 dh=0 dv=0 dx=0 dy=165 dh=0 dv=0
PairPos2: "'kern' Horizontal Kerning in Arabic lookup 13 subtable" uni0644 dx=0 dy=0 dh=0 dv=0 dx=0 dy=135 dh=0 dv=0
PairPos2: "'kern' Horizontal Kerning in Arabic lookup 13 subtable" uni0642 dx=0 dy=0 dh=0 dv=0 dx=0 dy=165 dh=0 dv=0
PairPos2: "'kern' Horizontal Kerning in Arabic lookup 13 subtable" uni0639 dx=0 dy=0 dh=0 dv=0 dx=0 dy=200 dh=0 dv=0
PairPos2: "'kern' Horizontal Kerning in Arabic lookup 13 subtable" uni0636 dx=0 dy=0 dh=0 dv=0 dx=0 dy=50 dh=0 dv=0
PairPos2: "'kern' Horizontal Kerning in Arabic lookup 13 subtable" uni0635 dx=0 dy=0 dh=0 dv=0 dx=0 dy=50 dh=0 dv=0
PairPos2: "'kern' Horizontal Kerning in Arabic lookup 13 subtable" uni0634 dx=0 dy=0 dh=0 dv=0 dx=0 dy=100 dh=0 dv=0
PairPos2: "'kern' Horizontal Kerning in Arabic lookup 13 subtable" uni0633 dx=0 dy=0 dh=0 dv=0 dx=0 dy=100 dh=0 dv=0
PairPos2: "'kern' Horizontal Kerning in Arabic lookup 13 subtable" uni062E dx=0 dy=0 dh=0 dv=0 dx=0 dy=220 dh=0 dv=0
PairPos2: "'kern' Horizontal Kerning in Arabic lookup 13 subtable" uni062D dx=0 dy=0 dh=0 dv=0 dx=0 dy=220 dh=0 dv=0
PairPos2: "'kern' Horizontal Kerning in Arabic lookup 13 subtable" uni062C dx=0 dy=0 dh=0 dv=0 dx=0 dy=220 dh=0 dv=0
PairPos2: "'kern' Horizontal Kerning in Arabic lookup 13 subtable" uni0626 dx=0 dy=0 dh=0 dv=0 dx=0 dy=150 dh=0 dv=0
EndChar

StartChar: uni0624
Encoding: 1572 1572 10
Width: 752
GlyphClass: 2
Flags: W
AnchorPoint: "Cursive-30" 854 0 entry 0
AnchorPoint: "Anchor-29" 231 440 basechar 0
AnchorPoint: "Anchor-28" 528 1078 basechar 0
AnchorPoint: "Cursive-20" 209 0 exit 0
AnchorPoint: "Cursive-18" 209 0 exit 0
AnchorPoint: "Cursive-18" 854 0 entry 0
AnchorPoint: "Anchor-2" 363 902 basechar 0
AnchorPoint: "Anchor-1" 255 -510 basechar 0
AnchorPoint: "Anchor-0" 525 930 basechar 0
LayerCount: 2
Back
Fore
SplineSet
730 104 m 1,0,-1
 733 60 l 2,1,2
 733 10 733 10 717 -42 c 128,-1,3
 701 -94 701 -94 669 -160 c 0,4,5
 653 -193 653 -193 632 -226 c 128,-1,6
 611 -259 611 -259 585 -291 c 0,7,8
 543 -342 543 -342 487 -381 c 1,9,10
 454 -399 454 -399 417 -405 c 128,-1,11
 380 -411 380 -411 322 -411 c 0,12,13
 273 -411 273 -411 225.5 -404 c 128,-1,14
 178 -397 178 -397 127.5 -386.5 c 128,-1,15
 77 -376 77 -376 49 -366.5 c 128,-1,16
 21 -357 21 -357 23 -349 c 0,17,18
 26 -341 26 -341 72 -343 c 128,-1,19
 118 -345 118 -345 163 -345 c 2,20,-1
 226 -342 l 1,21,22
 316 -333 316 -333 383 -298 c 0,23,24
 472 -250 472 -250 532 -178 c 0,25,26
 586 -113 586 -113 637 -26 c 0,27,28
 647 -7 647 -7 654.5 11.5 c 128,-1,29
 662 30 662 30 663 42 c 1,30,31
 661 40 661 40 653 34.5 c 128,-1,32
 645 29 645 29 628 18.5 c 128,-1,33
 611 8 611 8 588 1 c 128,-1,34
 565 -6 565 -6 545 -8 c 0,35,36
 454 -8 454 -8 426 74 c 0,37,38
 418 96 418 96 418 124 c 0,39,40
 416 172 416 172 438 231 c 0,41,42
 459 283 459 283 487 314 c 0,43,44
 530 368 530 368 572 362 c 0,45,46
 628 351 628 351 679 258 c 0,47,48
 716 187 716 187 730 104 c 1,0,-1
612 154 m 1,49,50
 608 165 608 165 589 194 c 0,51,52
 565 225 565 225 548 222 c 0,53,54
 528 217 528 217 518 187 c 128,-1,55
 508 157 508 157 511 144 c 0,56,57
 516 128 516 128 535 123 c 0,58,59
 564 118 564 118 612 154 c 1,49,50
663 650 m 0,61,62
 603 632 603 632 563 609 c 0,63,64
 541 597 541 597 508 574 c 0,65,66
 483 557 483 557 478 557 c 0,67,68
 475 556 475 556 473 562 c 0,69,70
 472 568 472 568 474 576 c 128,-1,71
 476 584 476 584 480 592 c 128,-1,72
 484 600 484 600 487 605 c 1,73,74
 475 612 475 612 466 619 c 0,75,76
 456 629 456 629 454 635.5 c 128,-1,77
 452 642 452 642 453 654 c 0,78,79
 460 716 460 716 516 768 c 0,80,81
 527 778 527 778 537.5 783 c 128,-1,82
 548 788 548 788 559 789 c 0,83,84
 572 790 572 790 586 779 c 0,85,86
 601 768 601 768 602 759 c 0,87,88
 602 755 602 755 601 753 c 0,89,90
 599 747 599 747 585.5 727.5 c 128,-1,91
 572 708 572 708 570 713 c 0,92,93
 560 727 560 727 549 730.5 c 128,-1,94
 538 734 538 734 528 730 c 128,-1,95
 518 726 518 726 511 717 c 128,-1,96
 504 708 504 708 504 698 c 0,97,98
 507 677 507 677 537 672 c 0,99,100
 545 671 545 671 554 672 c 0,101,102
 569 673 569 673 596 681 c 2,103,-1
 656 702 l 2,104,105
 677 710 677 710 680 709 c 128,-1,106
 683 708 683 708 677.5 680 c 128,-1,60
 672 652 672 652 663 650 c 0,61,62
EndSplineSet
Substitution2: "Single Substitution lookup 42 subtable" uniFE86
Substitution2: "Single Substitution lookup 40 subtable" uniFE86
AlternateSubs2: "'fina' Terminal Forms in Arabic lookup 0 subtable" uniFE86
PairPos2: "Pairwise Positioning (kerning) lookup 4 subtable" uni065F dx=0 dy=0 dh=0 dv=0 dx=125 dy=165 dh=0 dv=0
EndChar

StartChar: uni0625
Encoding: 1573 1573 11
Width: 351
GlyphClass: 2
Flags: W
AnchorPoint: "Cursive-30" 667 0 entry 0
AnchorPoint: "Cursive-20" 0 0 exit 0
AnchorPoint: "Cursive-18" 667 0 entry 0
AnchorPoint: "Anchor-2" 165 1166 basechar 0
AnchorPoint: "Anchor-1" 300 -360 basechar 0
AnchorPoint: "Anchor-0" 195 1125 basechar 0
LayerCount: 2
Back
Fore
SplineSet
289 224 m 2,0,1
 292 136 292 136 265 51 c 0,2,3
 246 -3 246 -3 230 -2 c 0,4,5
 221 -2 221 -2 221 51 c 2,6,-1
 220 119 l 2,7,8
 221 170 221 170 190 406 c 2,9,-1
 115 928 l 2,10,11
 110 976 110 976 142 1037 c 0,12,13
 178 1104 178 1104 190 1099 c 0,14,15
 198 1098 198 1098 208 1010 c 0,16,17
 213 968 213 968 231 798 c 2,18,-1
 285 284 l 1,19,-1
 289 224 l 2,0,1
386 -287 m 0,21,22
 331 -304 331 -304 291 -327 c 0,23,24
 269 -339 269 -339 236 -361 c 0,25,26
 211 -379 211 -379 206 -379 c 0,27,28
 202 -379 202 -379 201 -374 c 0,29,30
 200 -368 200 -368 202 -359.5 c 128,-1,31
 204 -351 204 -351 208 -343.5 c 128,-1,32
 212 -336 212 -336 215 -331 c 1,33,34
 202 -324 202 -324 194 -316 c 0,35,36
 184 -306 184 -306 182 -300 c 128,-1,37
 180 -294 180 -294 180 -281 c 0,38,39
 188 -220 188 -220 244 -168 c 0,40,41
 255 -157 255 -157 265 -152 c 128,-1,42
 275 -147 275 -147 287.5 -147 c 128,-1,43
 300 -147 300 -147 314 -156 c 0,44,45
 329 -168 329 -168 330 -177 c 0,46,47
 330 -180 330 -180 329 -182 c 0,48,49
 327 -189 327 -189 313.5 -208 c 128,-1,50
 300 -227 300 -227 298 -222 c 0,51,52
 288 -209 288 -209 276.5 -205.5 c 128,-1,53
 265 -202 265 -202 255.5 -205.5 c 128,-1,54
 246 -209 246 -209 239 -218 c 128,-1,55
 232 -227 232 -227 232 -238 c 0,56,57
 235 -259 235 -259 265 -263 c 0,58,59
 273 -264 273 -264 285 -263 c 128,-1,60
 297 -262 297 -262 324 -254 c 2,61,-1
 384 -233 l 2,62,63
 404 -226 404 -226 407.5 -226.5 c 128,-1,64
 411 -227 411 -227 405.5 -254 c 128,-1,20
 400 -281 400 -281 386 -287 c 0,21,22
EndSplineSet
Substitution2: "Single Substitution lookup 42 subtable" uniFE88
Substitution2: "Single Substitution lookup 40 subtable" uniFE88
Ligature2: "'calt' Contextual Alternates in Arabic lookup 11 subtable" uni0627 uni0655
AlternateSubs2: "'fina' Terminal Forms in Arabic lookup 0 subtable" uniFE88
PairPos2: "'kern' Horizontal Kerning in Arabic lookup 13 subtable" uni0686 dx=0 dy=0 dh=0 dv=0 dx=0 dy=220 dh=0 dv=0
PairPos2: "'kern' Horizontal Kerning in Arabic lookup 13 subtable" uni06CC dx=0 dy=0 dh=0 dv=0 dx=0 dy=150 dh=0 dv=0
PairPos2: "'kern' Horizontal Kerning in Arabic lookup 13 subtable" uni064A dx=0 dy=0 dh=0 dv=0 dx=0 dy=150 dh=0 dv=0
PairPos2: "'kern' Horizontal Kerning in Arabic lookup 13 subtable" uni0649 dx=0 dy=0 dh=0 dv=0 dx=0 dy=150 dh=0 dv=0
PairPos2: "'kern' Horizontal Kerning in Arabic lookup 13 subtable" uni0646 dx=0 dy=0 dh=0 dv=0 dx=0 dy=165 dh=0 dv=0
PairPos2: "'kern' Horizontal Kerning in Arabic lookup 13 subtable" uni0645 dx=0 dy=0 dh=0 dv=0 dx=0 dy=165 dh=0 dv=0
PairPos2: "'kern' Horizontal Kerning in Arabic lookup 13 subtable" uni0644 dx=0 dy=0 dh=0 dv=0 dx=0 dy=135 dh=0 dv=0
PairPos2: "'kern' Horizontal Kerning in Arabic lookup 13 subtable" uni0642 dx=0 dy=0 dh=0 dv=0 dx=0 dy=165 dh=0 dv=0
PairPos2: "'kern' Horizontal Kerning in Arabic lookup 13 subtable" uni0639 dx=0 dy=0 dh=0 dv=0 dx=0 dy=200 dh=0 dv=0
PairPos2: "'kern' Horizontal Kerning in Arabic lookup 13 subtable" uni0636 dx=0 dy=0 dh=0 dv=0 dx=0 dy=50 dh=0 dv=0
PairPos2: "'kern' Horizontal Kerning in Arabic lookup 13 subtable" uni0635 dx=0 dy=0 dh=0 dv=0 dx=0 dy=50 dh=0 dv=0
PairPos2: "'kern' Horizontal Kerning in Arabic lookup 13 subtable" uni0634 dx=0 dy=0 dh=0 dv=0 dx=0 dy=100 dh=0 dv=0
PairPos2: "'kern' Horizontal Kerning in Arabic lookup 13 subtable" uni0633 dx=0 dy=0 dh=0 dv=0 dx=0 dy=100 dh=0 dv=0
PairPos2: "'kern' Horizontal Kerning in Arabic lookup 13 subtable" uni062E dx=0 dy=0 dh=0 dv=0 dx=0 dy=220 dh=0 dv=0
PairPos2: "'kern' Horizontal Kerning in Arabic lookup 13 subtable" uni062D dx=0 dy=0 dh=0 dv=0 dx=0 dy=220 dh=0 dv=0
PairPos2: "'kern' Horizontal Kerning in Arabic lookup 13 subtable" uni062C dx=0 dy=0 dh=0 dv=0 dx=0 dy=220 dh=0 dv=0
PairPos2: "'kern' Horizontal Kerning in Arabic lookup 13 subtable" uni0626 dx=0 dy=0 dh=0 dv=0 dx=0 dy=150 dh=0 dv=0
EndChar

StartChar: uni0626
Encoding: 1574 1574 12
Width: 1012
GlyphClass: 2
Flags: W
AnchorPoint: "Cursive-30" 1118 0 entry 0
AnchorPoint: "Cursive-20" 1118 0 entry 0
AnchorPoint: "Cursive-18" 1118 0 entry 0
AnchorPoint: "Anchor-2" 352 616 basechar 0
AnchorPoint: "Anchor-1" 435 -540 basechar 0
AnchorPoint: "Anchor-0" 285 570 basechar 0
LayerCount: 2
Back
Fore
SplineSet
446 351 m 0,1,2
 401 334 401 334 358 313 c 0,3,4
 336 300 336 300 302 277 c 0,5,6
 276 259 276 259 271 259 c 0,7,8
 268 258 268 258 266 264 c 0,9,10
 265 270 265 270 267 278.5 c 128,-1,11
 269 287 269 287 273 295 c 128,-1,12
 277 303 277 303 280 308 c 1,13,14
 268 316 268 316 258 323 c 0,15,16
 248 333 248 333 246 340 c 128,-1,17
 244 347 244 347 245 359 c 0,18,19
 252 423 252 423 310 476 c 0,20,21
 321 487 321 487 332 492 c 128,-1,22
 343 497 343 497 354 498 c 0,23,24
 368 499 368 499 382 488 c 0,25,26
 397 476 397 476 399 467 c 0,27,28
 399 463 399 463 397 461 c 0,29,30
 395 455 395 455 381.5 435 c 128,-1,31
 368 415 368 415 366 420 c 0,32,33
 355 434 355 434 344 437.5 c 128,-1,34
 333 441 333 441 322.5 437 c 128,-1,35
 312 433 312 433 305 424 c 128,-1,36
 298 415 298 415 298 404 c 0,37,38
 301 383 301 383 332 377 c 0,39,40
 340 376 340 376 349 377 c 0,41,42
 365 379 365 379 392 387 c 2,43,-1
 454 408 l 2,44,45
 474 416 474 416 477 413 c 128,-1,46
 480 410 480 410 471.5 383 c 128,-1,0
 463 356 463 356 446 351 c 0,1,2
1015 353 m 1,47,48
 996 284 996 284 984 255 c 0,49,50
 981 246 981 246 975 246 c 0,51,52
 973 246 973 246 967 250 c 0,53,54
 905 305 905 305 891 296 c 1,55,56
 859 292 859 292 769 219 c 0,57,58
 714 173 714 173 660 110 c 0,59,60
 618 56 618 56 618 32 c 0,61,62
 622 5 622 5 695 -14 c 0,63,64
 754 -28 754 -28 875 -41 c 1,65,66
 921 -41 921 -41 935 -66 c 0,67,68
 938 -74 938 -74 938 -91 c 0,69,70
 938 -107 938 -107 934 -147 c 128,-1,71
 930 -187 930 -187 904 -223 c 0,72,73
 870 -276 870 -276 774 -325 c 128,-1,74
 678 -374 678 -374 616 -391 c 0,75,76
 573 -404 573 -404 533.5 -411 c 128,-1,77
 494 -418 494 -418 456 -418 c 0,78,79
 399 -418 399 -418 368 -415 c 128,-1,80
 337 -412 337 -412 297 -403 c 0,81,82
 200 -378 200 -378 144.5 -323 c 128,-1,83
 89 -268 89 -268 77 -189 c 1,84,-1
 75 -152 l 2,85,86
 75 -127 75 -127 77 -109 c 128,-1,87
 79 -91 79 -91 92.5 -51.5 c 128,-1,88
 106 -12 106 -12 143 40 c 0,89,90
 202 128 202 128 218 121 c 0,91,92
 226 116 226 116 226 107 c 0,93,94
 226 97 226 97 214 79 c 0,95,96
 179 32 179 32 159 -14 c 0,97,98
 144 -48 144 -48 144 -83 c 0,99,100
 144 -100 144 -100 149 -126 c 0,101,102
 165 -185 165 -185 209 -223 c 0,103,104
 257 -267 257 -267 341 -284 c 0,105,106
 403 -296 403 -296 465 -296 c 0,107,108
 498 -296 498 -296 532 -290 c 128,-1,109
 566 -284 566 -284 605.5 -273 c 128,-1,110
 645 -262 645 -262 682 -248.5 c 128,-1,111
 719 -235 719 -235 757.5 -216 c 128,-1,112
 796 -197 796 -197 821 -182 c 128,-1,113
 846 -167 846 -167 858 -154 c 1,114,115
 788 -154 788 -154 733.5 -146.5 c 128,-1,116
 679 -139 679 -139 624.5 -124.5 c 128,-1,117
 570 -110 570 -110 547 -86 c 0,118,119
 530 -69 530 -69 530 -39 c 0,120,121
 530 -26 530 -26 533 -11 c 0,122,123
 546 49 546 49 608 148 c 0,124,125
 654 225 654 225 713 288 c 0,126,127
 833 418 833 418 899 433 c 0,128,129
 915 437 915 437 934.5 434 c 128,-1,130
 954 431 954 431 970.5 421 c 128,-1,131
 987 411 987 411 1000 393 c 0,132,133
 1014 374 1014 374 1015 353 c 1,47,48
EndSplineSet
Substitution2: "Single Substitution lookup 42 subtable" uniFE8A
Substitution2: "Single Substitution lookup 41 subtable" uniFE8B
Substitution2: "Single Substitution lookup 40 subtable" uniFE8A
Substitution2: "Single Substitution lookup 39 subtable" uniFE8B
Substitution2: "Single Substitution lookup 37 subtable" new3
Ligature2: "Ligature Substitution lookup 18 subtable" uni06CC uni0654
Ligature2: "Ligature Substitution lookup 18 subtable" uni06CC uni0655
Ligature2: "Ligature Substitution lookup 18 subtable" uni064A uni0655
Ligature2: "Ligature Substitution lookup 18 subtable" uni064A uni0654
Substitution2: "'medi' Medial Forms in Arabic lookup 7 subtable" uniFE8C
Substitution2: "'init' Initial Forms in Arabic lookup 6 subtable" uniFE8B
AlternateSubs2: "'fina' Terminal Forms in Arabic lookup 0 subtable" uniFE8A
PairPos2: "Pairwise Positioning (kerning) lookup 32 subtable" _.notdef.001 dx=0 dy=0 dh=0 dv=0 dx=0 dy=264 dh=0 dv=0
PairPos2: "Pairwise Positioning (kerning) lookup 32 subtable" _.notdef.002 dx=0 dy=0 dh=0 dv=0 dx=0 dy=264 dh=0 dv=0
PairPos2: "Pairwise Positioning (kerning) lookup 32 subtable" uni036F dx=0 dy=0 dh=0 dv=0 dx=0 dy=264 dh=0 dv=0
PairPos2: "Pairwise Positioning (kerning) lookup 32 subtable" uni036E dx=0 dy=0 dh=0 dv=0 dx=0 dy=264 dh=0 dv=0
PairPos2: "Pairwise Positioning (kerning) lookup 32 subtable" uni036D dx=0 dy=0 dh=0 dv=0 dx=0 dy=264 dh=0 dv=0
PairPos2: "Pairwise Positioning (kerning) lookup 32 subtable" kasratanisolated dx=0 dy=0 dh=0 dv=0 dx=0 dy=264 dh=0 dv=0
PairPos2: "Pairwise Positioning (kerning) lookup 32 subtable" dammatanisolated dx=0 dy=0 dh=0 dv=0 dx=0 dy=264 dh=0 dv=0
PairPos2: "Pairwise Positioning (kerning) lookup 32 subtable" fathatanisolated dx=0 dy=0 dh=0 dv=0 dx=0 dy=264 dh=0 dv=0
PairPos2: "Pairwise Positioning (kerning) lookup 32 subtable" shaddawithkasratanlow.moved.001 dx=0 dy=0 dh=0 dv=0 dx=0 dy=264 dh=0 dv=0
PairPos2: "Pairwise Positioning (kerning) lookup 32 subtable" shaddawithkasratanlow.moved dx=0 dy=0 dh=0 dv=0 dx=0 dy=264 dh=0 dv=0
PairPos2: "Pairwise Positioning (kerning) lookup 32 subtable" shaddalow_dammatanalignedlow_ga dx=0 dy=0 dh=0 dv=0 dx=0 dy=264 dh=0 dv=0
PairPos2: "Pairwise Positioning (kerning) lookup 32 subtable" _.ndefine1 dx=0 dy=0 dh=0 dv=0 dx=0 dy=264 dh=0 dv=0
PairPos2: "Pairwise Positioning (kerning) lookup 32 subtable" _.ndefine2 dx=0 dy=0 dh=0 dv=0 dx=0 dy=264 dh=0 dv=0
PairPos2: "Pairwise Positioning (kerning) lookup 32 subtable" shaddawithdammatanaligned dx=0 dy=0 dh=0 dv=0 dx=0 dy=264 dh=0 dv=0
PairPos2: "Pairwise Positioning (kerning) lookup 32 subtable" shaddawithdammatanisolatedlow dx=0 dy=0 dh=0 dv=0 dx=0 dy=264 dh=0 dv=0
PairPos2: "Pairwise Positioning (kerning) lookup 32 subtable" shaddawithfathaisolatedlow dx=0 dy=0 dh=0 dv=0 dx=0 dy=264 dh=0 dv=0
PairPos2: "Pairwise Positioning (kerning) lookup 32 subtable" shaddawithdammaisolatedlow dx=0 dy=0 dh=0 dv=0 dx=0 dy=264 dh=0 dv=0
PairPos2: "Pairwise Positioning (kerning) lookup 32 subtable" shaddawithfathatanisolated dx=0 dy=0 dh=0 dv=0 dx=0 dy=264 dh=0 dv=0
PairPos2: "Pairwise Positioning (kerning) lookup 32 subtable" shaddawithfathatanaligned dx=0 dy=0 dh=0 dv=0 dx=0 dy=264 dh=0 dv=0
PairPos2: "Pairwise Positioning (kerning) lookup 32 subtable" uni06EB dx=0 dy=0 dh=0 dv=0 dx=0 dy=264 dh=0 dv=0
PairPos2: "Pairwise Positioning (kerning) lookup 32 subtable" uni06E8 dx=0 dy=0 dh=0 dv=0 dx=0 dy=264 dh=0 dv=0
PairPos2: "Pairwise Positioning (kerning) lookup 32 subtable" uni06E2 dx=0 dy=0 dh=0 dv=0 dx=0 dy=264 dh=0 dv=0
PairPos2: "Pairwise Positioning (kerning) lookup 32 subtable" uni06E1 dx=0 dy=0 dh=0 dv=0 dx=0 dy=264 dh=0 dv=0
PairPos2: "Pairwise Positioning (kerning) lookup 32 subtable" uni06E0 dx=0 dy=0 dh=0 dv=0 dx=0 dy=264 dh=0 dv=0
PairPos2: "Pairwise Positioning (kerning) lookup 32 subtable" uni06DF dx=0 dy=0 dh=0 dv=0 dx=0 dy=264 dh=0 dv=0
PairPos2: "Pairwise Positioning (kerning) lookup 32 subtable" uni065B dx=0 dy=0 dh=0 dv=0 dx=0 dy=264 dh=0 dv=0
PairPos2: "Pairwise Positioning (kerning) lookup 32 subtable" uni065A dx=0 dy=0 dh=0 dv=0 dx=0 dy=264 dh=0 dv=0
PairPos2: "Pairwise Positioning (kerning) lookup 32 subtable" uni0659 dx=0 dy=0 dh=0 dv=0 dx=0 dy=264 dh=0 dv=0
PairPos2: "Pairwise Positioning (kerning) lookup 32 subtable" uni0652 dx=0 dy=0 dh=0 dv=0 dx=0 dy=264 dh=0 dv=0
PairPos2: "Pairwise Positioning (kerning) lookup 32 subtable" uni0651 dx=0 dy=0 dh=0 dv=0 dx=0 dy=264 dh=0 dv=0
PairPos2: "Pairwise Positioning (kerning) lookup 32 subtable" uni0650 dx=0 dy=0 dh=0 dv=0 dx=0 dy=264 dh=0 dv=0
PairPos2: "Pairwise Positioning (kerning) lookup 32 subtable" uni064F dx=0 dy=0 dh=0 dv=0 dx=0 dy=264 dh=0 dv=0
PairPos2: "Pairwise Positioning (kerning) lookup 32 subtable" uni064E dx=0 dy=0 dh=0 dv=0 dx=0 dy=264 dh=0 dv=0
PairPos2: "Pairwise Positioning (kerning) lookup 32 subtable" uni064D dx=0 dy=0 dh=0 dv=0 dx=0 dy=264 dh=0 dv=0
PairPos2: "Pairwise Positioning (kerning) lookup 32 subtable" uni064C dx=0 dy=0 dh=0 dv=0 dx=0 dy=264 dh=0 dv=0
PairPos2: "Pairwise Positioning (kerning) lookup 32 subtable" uni064B dx=0 dy=0 dh=0 dv=0 dx=0 dy=264 dh=0 dv=0
PairPos2: "Pairwise Positioning (kerning) lookup 31 subtable" _.notdef.001 dx=0 dy=0 dh=0 dv=0 dx=0 dy=250 dh=0 dv=0
PairPos2: "Pairwise Positioning (kerning) lookup 31 subtable" _.notdef.002 dx=0 dy=0 dh=0 dv=0 dx=0 dy=250 dh=0 dv=0
PairPos2: "Pairwise Positioning (kerning) lookup 31 subtable" uni036F dx=0 dy=0 dh=0 dv=0 dx=0 dy=250 dh=0 dv=0
PairPos2: "Pairwise Positioning (kerning) lookup 31 subtable" uni036E dx=0 dy=0 dh=0 dv=0 dx=0 dy=250 dh=0 dv=0
PairPos2: "Pairwise Positioning (kerning) lookup 31 subtable" uni036D dx=0 dy=0 dh=0 dv=0 dx=0 dy=250 dh=0 dv=0
PairPos2: "Pairwise Positioning (kerning) lookup 31 subtable" kasratanisolated dx=0 dy=0 dh=0 dv=0 dx=0 dy=250 dh=0 dv=0
PairPos2: "Pairwise Positioning (kerning) lookup 31 subtable" dammatanisolated dx=0 dy=0 dh=0 dv=0 dx=0 dy=250 dh=0 dv=0
PairPos2: "Pairwise Positioning (kerning) lookup 31 subtable" fathatanisolated dx=0 dy=0 dh=0 dv=0 dx=0 dy=250 dh=0 dv=0
PairPos2: "Pairwise Positioning (kerning) lookup 31 subtable" shaddawithkasratanlow.moved.001 dx=0 dy=0 dh=0 dv=0 dx=0 dy=250 dh=0 dv=0
PairPos2: "Pairwise Positioning (kerning) lookup 31 subtable" shaddawithkasratanlow.moved dx=0 dy=0 dh=0 dv=0 dx=0 dy=250 dh=0 dv=0
PairPos2: "Pairwise Positioning (kerning) lookup 31 subtable" shaddalow_dammatanalignedlow_ga dx=0 dy=0 dh=0 dv=0 dx=0 dy=250 dh=0 dv=0
PairPos2: "Pairwise Positioning (kerning) lookup 31 subtable" _.ndefine1 dx=0 dy=0 dh=0 dv=0 dx=0 dy=250 dh=0 dv=0
PairPos2: "Pairwise Positioning (kerning) lookup 31 subtable" _.ndefine2 dx=0 dy=0 dh=0 dv=0 dx=0 dy=250 dh=0 dv=0
PairPos2: "Pairwise Positioning (kerning) lookup 31 subtable" shaddawithdammatanaligned dx=0 dy=0 dh=0 dv=0 dx=0 dy=250 dh=0 dv=0
PairPos2: "Pairwise Positioning (kerning) lookup 31 subtable" shaddawithdammatanisolatedlow dx=0 dy=0 dh=0 dv=0 dx=0 dy=250 dh=0 dv=0
PairPos2: "Pairwise Positioning (kerning) lookup 31 subtable" shaddawithfathaisolatedlow dx=0 dy=0 dh=0 dv=0 dx=0 dy=250 dh=0 dv=0
PairPos2: "Pairwise Positioning (kerning) lookup 31 subtable" shaddawithdammaisolatedlow dx=0 dy=0 dh=0 dv=0 dx=0 dy=250 dh=0 dv=0
PairPos2: "Pairwise Positioning (kerning) lookup 31 subtable" shaddawithfathatanisolated dx=0 dy=0 dh=0 dv=0 dx=0 dy=250 dh=0 dv=0
PairPos2: "Pairwise Positioning (kerning) lookup 31 subtable" shaddawithfathatanaligned dx=0 dy=0 dh=0 dv=0 dx=0 dy=250 dh=0 dv=0
PairPos2: "Pairwise Positioning (kerning) lookup 31 subtable" uni06EB dx=0 dy=0 dh=0 dv=0 dx=0 dy=250 dh=0 dv=0
PairPos2: "Pairwise Positioning (kerning) lookup 31 subtable" uni06E8 dx=0 dy=0 dh=0 dv=0 dx=0 dy=250 dh=0 dv=0
PairPos2: "Pairwise Positioning (kerning) lookup 31 subtable" uni06E2 dx=0 dy=0 dh=0 dv=0 dx=0 dy=250 dh=0 dv=0
PairPos2: "Pairwise Positioning (kerning) lookup 31 subtable" uni06E1 dx=0 dy=0 dh=0 dv=0 dx=0 dy=250 dh=0 dv=0
PairPos2: "Pairwise Positioning (kerning) lookup 31 subtable" uni06E0 dx=0 dy=0 dh=0 dv=0 dx=0 dy=250 dh=0 dv=0
PairPos2: "Pairwise Positioning (kerning) lookup 31 subtable" uni06DF dx=0 dy=0 dh=0 dv=0 dx=0 dy=250 dh=0 dv=0
PairPos2: "Pairwise Positioning (kerning) lookup 31 subtable" uni065B dx=0 dy=0 dh=0 dv=0 dx=0 dy=250 dh=0 dv=0
PairPos2: "Pairwise Positioning (kerning) lookup 31 subtable" uni065A dx=0 dy=0 dh=0 dv=0 dx=0 dy=250 dh=0 dv=0
PairPos2: "Pairwise Positioning (kerning) lookup 31 subtable" uni0659 dx=0 dy=0 dh=0 dv=0 dx=0 dy=250 dh=0 dv=0
PairPos2: "Pairwise Positioning (kerning) lookup 31 subtable" uni0652 dx=0 dy=0 dh=0 dv=0 dx=0 dy=250 dh=0 dv=0
PairPos2: "Pairwise Positioning (kerning) lookup 31 subtable" uni0651 dx=0 dy=0 dh=0 dv=0 dx=0 dy=250 dh=0 dv=0
PairPos2: "Pairwise Positioning (kerning) lookup 31 subtable" uni0650 dx=0 dy=0 dh=0 dv=0 dx=0 dy=250 dh=0 dv=0
PairPos2: "Pairwise Positioning (kerning) lookup 31 subtable" uni064F dx=0 dy=0 dh=0 dv=0 dx=0 dy=250 dh=0 dv=0
PairPos2: "Pairwise Positioning (kerning) lookup 31 subtable" uni064E dx=0 dy=0 dh=0 dv=0 dx=0 dy=250 dh=0 dv=0
PairPos2: "Pairwise Positioning (kerning) lookup 31 subtable" uni064D dx=0 dy=0 dh=0 dv=0 dx=0 dy=250 dh=0 dv=0
PairPos2: "Pairwise Positioning (kerning) lookup 31 subtable" uni064C dx=0 dy=0 dh=0 dv=0 dx=0 dy=250 dh=0 dv=0
PairPos2: "Pairwise Positioning (kerning) lookup 31 subtable" uni064B dx=0 dy=0 dh=0 dv=0 dx=0 dy=250 dh=0 dv=0
PairPos2: "Pairwise Positioning (kerning) lookup 29 subtable" _.notdef.001 dx=0 dy=0 dh=0 dv=0 dx=0 dy=150 dh=0 dv=0
PairPos2: "Pairwise Positioning (kerning) lookup 29 subtable" _.notdef.002 dx=0 dy=0 dh=0 dv=0 dx=0 dy=150 dh=0 dv=0
PairPos2: "Pairwise Positioning (kerning) lookup 29 subtable" uni036F dx=0 dy=0 dh=0 dv=0 dx=0 dy=150 dh=0 dv=0
PairPos2: "Pairwise Positioning (kerning) lookup 29 subtable" uni036E dx=0 dy=0 dh=0 dv=0 dx=0 dy=150 dh=0 dv=0
PairPos2: "Pairwise Positioning (kerning) lookup 29 subtable" uni036D dx=0 dy=0 dh=0 dv=0 dx=0 dy=150 dh=0 dv=0
PairPos2: "Pairwise Positioning (kerning) lookup 29 subtable" kasratanisolated dx=0 dy=0 dh=0 dv=0 dx=0 dy=150 dh=0 dv=0
PairPos2: "Pairwise Positioning (kerning) lookup 29 subtable" dammatanisolated dx=0 dy=0 dh=0 dv=0 dx=0 dy=150 dh=0 dv=0
PairPos2: "Pairwise Positioning (kerning) lookup 29 subtable" fathatanisolated dx=0 dy=0 dh=0 dv=0 dx=0 dy=150 dh=0 dv=0
PairPos2: "Pairwise Positioning (kerning) lookup 29 subtable" shaddawithkasratanlow.moved.001 dx=0 dy=0 dh=0 dv=0 dx=0 dy=150 dh=0 dv=0
PairPos2: "Pairwise Positioning (kerning) lookup 29 subtable" shaddawithkasratanlow.moved dx=0 dy=0 dh=0 dv=0 dx=0 dy=150 dh=0 dv=0
PairPos2: "Pairwise Positioning (kerning) lookup 29 subtable" shaddalow_dammatanalignedlow_ga dx=0 dy=0 dh=0 dv=0 dx=0 dy=150 dh=0 dv=0
PairPos2: "Pairwise Positioning (kerning) lookup 29 subtable" _.ndefine1 dx=0 dy=0 dh=0 dv=0 dx=0 dy=150 dh=0 dv=0
PairPos2: "Pairwise Positioning (kerning) lookup 29 subtable" _.ndefine2 dx=0 dy=0 dh=0 dv=0 dx=0 dy=150 dh=0 dv=0
PairPos2: "Pairwise Positioning (kerning) lookup 29 subtable" shaddawithdammatanaligned dx=0 dy=0 dh=0 dv=0 dx=0 dy=150 dh=0 dv=0
PairPos2: "Pairwise Positioning (kerning) lookup 29 subtable" shaddawithdammatanisolatedlow dx=0 dy=0 dh=0 dv=0 dx=0 dy=150 dh=0 dv=0
PairPos2: "Pairwise Positioning (kerning) lookup 29 subtable" shaddawithfathaisolatedlow dx=0 dy=0 dh=0 dv=0 dx=0 dy=150 dh=0 dv=0
PairPos2: "Pairwise Positioning (kerning) lookup 29 subtable" shaddawithdammaisolatedlow dx=0 dy=0 dh=0 dv=0 dx=0 dy=150 dh=0 dv=0
PairPos2: "Pairwise Positioning (kerning) lookup 29 subtable" shaddawithfathatanisolated dx=0 dy=0 dh=0 dv=0 dx=0 dy=150 dh=0 dv=0
PairPos2: "Pairwise Positioning (kerning) lookup 29 subtable" shaddawithfathatanaligned dx=0 dy=0 dh=0 dv=0 dx=0 dy=150 dh=0 dv=0
PairPos2: "Pairwise Positioning (kerning) lookup 29 subtable" uni06EB dx=0 dy=0 dh=0 dv=0 dx=0 dy=150 dh=0 dv=0
PairPos2: "Pairwise Positioning (kerning) lookup 29 subtable" uni06E8 dx=0 dy=0 dh=0 dv=0 dx=0 dy=150 dh=0 dv=0
PairPos2: "Pairwise Positioning (kerning) lookup 29 subtable" uni06E2 dx=0 dy=0 dh=0 dv=0 dx=0 dy=150 dh=0 dv=0
PairPos2: "Pairwise Positioning (kerning) lookup 29 subtable" uni06E1 dx=0 dy=0 dh=0 dv=0 dx=0 dy=150 dh=0 dv=0
PairPos2: "Pairwise Positioning (kerning) lookup 29 subtable" uni06E0 dx=0 dy=0 dh=0 dv=0 dx=0 dy=150 dh=0 dv=0
PairPos2: "Pairwise Positioning (kerning) lookup 29 subtable" uni06DF dx=0 dy=0 dh=0 dv=0 dx=0 dy=150 dh=0 dv=0
PairPos2: "Pairwise Positioning (kerning) lookup 29 subtable" uni065B dx=0 dy=0 dh=0 dv=0 dx=0 dy=150 dh=0 dv=0
PairPos2: "Pairwise Positioning (kerning) lookup 29 subtable" uni065A dx=0 dy=0 dh=0 dv=0 dx=0 dy=150 dh=0 dv=0
PairPos2: "Pairwise Positioning (kerning) lookup 29 subtable" uni0659 dx=0 dy=0 dh=0 dv=0 dx=0 dy=150 dh=0 dv=0
PairPos2: "Pairwise Positioning (kerning) lookup 29 subtable" uni0652 dx=0 dy=0 dh=0 dv=0 dx=0 dy=150 dh=0 dv=0
PairPos2: "Pairwise Positioning (kerning) lookup 29 subtable" uni0651 dx=0 dy=0 dh=0 dv=0 dx=0 dy=150 dh=0 dv=0
PairPos2: "Pairwise Positioning (kerning) lookup 29 subtable" uni0650 dx=0 dy=0 dh=0 dv=0 dx=0 dy=150 dh=0 dv=0
PairPos2: "Pairwise Positioning (kerning) lookup 29 subtable" uni064F dx=0 dy=0 dh=0 dv=0 dx=0 dy=150 dh=0 dv=0
PairPos2: "Pairwise Positioning (kerning) lookup 29 subtable" uni064E dx=0 dy=0 dh=0 dv=0 dx=0 dy=150 dh=0 dv=0
PairPos2: "Pairwise Positioning (kerning) lookup 29 subtable" uni064D dx=0 dy=0 dh=0 dv=0 dx=0 dy=150 dh=0 dv=0
PairPos2: "Pairwise Positioning (kerning) lookup 29 subtable" uni064C dx=0 dy=0 dh=0 dv=0 dx=0 dy=150 dh=0 dv=0
PairPos2: "Pairwise Positioning (kerning) lookup 29 subtable" uni064B dx=0 dy=0 dh=0 dv=0 dx=0 dy=150 dh=0 dv=0
EndChar

StartChar: uni0627
Encoding: 1575 1575 13
Width: 301
GlyphClass: 2
Flags: W
AnchorPoint: "Cursive-30" 282 0 entry 0
AnchorPoint: "Cursive-20" 0 0 exit 0
AnchorPoint: "Cursive-18" 282 0 entry 0
AnchorPoint: "Anchor-2" 176 1188 basechar 0
AnchorPoint: "Anchor-1" 225 -60 basechar 0
AnchorPoint: "Anchor-0" 165 1185 basechar 0
LayerCount: 2
Back
Fore
SplineSet
279 224 m 2,0,1
 282 136 282 136 255 51 c 0,2,3
 236 -3 236 -3 220 -2 c 0,4,5
 211 -2 211 -2 211 51 c 2,6,-1
 210 119 l 2,7,8
 211 170 211 170 180 406 c 2,9,-1
 105 928 l 2,10,11
 100 976 100 976 132 1037 c 0,12,13
 168 1104 168 1104 180 1099 c 0,14,15
 188 1098 188 1098 198 1010 c 0,16,17
 203 968 203 968 221 798 c 2,18,-1
 275 284 l 1,19,-1
 279 224 l 2,0,1
EndSplineSet
Substitution2: "Single Substitution lookup 42 subtable" uniFE8E
Substitution2: "Single Substitution lookup 40 subtable" uniFE8E
AlternateSubs2: "'fina' Terminal Forms in Arabic lookup 0 subtable" uniFE8E
PairPos2: "'kern' Horizontal Kerning in Arabic lookup 13 subtable" uni0686 dx=0 dy=0 dh=0 dv=0 dx=0 dy=220 dh=0 dv=0
PairPos2: "'kern' Horizontal Kerning in Arabic lookup 13 subtable" uni06CC dx=0 dy=0 dh=0 dv=0 dx=0 dy=150 dh=0 dv=0
PairPos2: "'kern' Horizontal Kerning in Arabic lookup 13 subtable" uni064A dx=0 dy=0 dh=0 dv=0 dx=0 dy=150 dh=0 dv=0
PairPos2: "'kern' Horizontal Kerning in Arabic lookup 13 subtable" uni0649 dx=0 dy=0 dh=0 dv=0 dx=0 dy=150 dh=0 dv=0
PairPos2: "'kern' Horizontal Kerning in Arabic lookup 13 subtable" uni0646 dx=0 dy=0 dh=0 dv=0 dx=0 dy=165 dh=0 dv=0
PairPos2: "'kern' Horizontal Kerning in Arabic lookup 13 subtable" uni0645 dx=0 dy=0 dh=0 dv=0 dx=0 dy=165 dh=0 dv=0
PairPos2: "'kern' Horizontal Kerning in Arabic lookup 13 subtable" uni0644 dx=0 dy=0 dh=0 dv=0 dx=0 dy=135 dh=0 dv=0
PairPos2: "'kern' Horizontal Kerning in Arabic lookup 13 subtable" uni0642 dx=0 dy=0 dh=0 dv=0 dx=0 dy=165 dh=0 dv=0
PairPos2: "'kern' Horizontal Kerning in Arabic lookup 13 subtable" uni0639 dx=0 dy=0 dh=0 dv=0 dx=0 dy=200 dh=0 dv=0
PairPos2: "'kern' Horizontal Kerning in Arabic lookup 13 subtable" uni0636 dx=0 dy=0 dh=0 dv=0 dx=0 dy=50 dh=0 dv=0
PairPos2: "'kern' Horizontal Kerning in Arabic lookup 13 subtable" uni0635 dx=0 dy=0 dh=0 dv=0 dx=0 dy=50 dh=0 dv=0
PairPos2: "'kern' Horizontal Kerning in Arabic lookup 13 subtable" uni0634 dx=0 dy=0 dh=0 dv=0 dx=0 dy=100 dh=0 dv=0
PairPos2: "'kern' Horizontal Kerning in Arabic lookup 13 subtable" uni0633 dx=0 dy=0 dh=0 dv=0 dx=0 dy=100 dh=0 dv=0
PairPos2: "'kern' Horizontal Kerning in Arabic lookup 13 subtable" uni062E dx=0 dy=0 dh=0 dv=0 dx=0 dy=220 dh=0 dv=0
PairPos2: "'kern' Horizontal Kerning in Arabic lookup 13 subtable" uni062D dx=0 dy=0 dh=0 dv=0 dx=0 dy=220 dh=0 dv=0
PairPos2: "'kern' Horizontal Kerning in Arabic lookup 13 subtable" uni062C dx=0 dy=0 dh=0 dv=0 dx=0 dy=220 dh=0 dv=0
PairPos2: "'kern' Horizontal Kerning in Arabic lookup 13 subtable" uni0626 dx=0 dy=0 dh=0 dv=0 dx=0 dy=150 dh=0 dv=0
EndChar

StartChar: uni0628
Encoding: 1576 1576 14
Width: 1383
GlyphClass: 2
Flags: W
AnchorPoint: "Cursive-30" 1371 0 entry 0
AnchorPoint: "Cursive-18" 1371 0 entry 0
AnchorPoint: "Anchor-2" 484 704 basechar 0
AnchorPoint: "Anchor-1" 855 -450 basechar 0
AnchorPoint: "Anchor-0" 660 855 basechar 0
LayerCount: 2
Back
Fore
SplineSet
1365 329 m 0,0,1
 1365 278 1365 278 1353 241.5 c 128,-1,2
 1341 205 1341 205 1312 181 c 0,3,4
 1265 143 1265 143 1139 99 c 128,-1,5
 1013 55 1013 55 886 30.5 c 128,-1,6
 759 6 759 6 623 6 c 0,7,8
 509 6 509 6 420.5 18 c 128,-1,9
 332 30 332 30 263 58 c 1,10,11
 149 113 149 113 120 219 c 0,12,13
 114 242 114 242 114 265 c 0,14,15
 114 321 114 321 149 382 c 0,16,17
 190 445 190 445 237 476 c 0,18,19
 259 487 259 487 257 471 c 1,20,21
 237 446 237 446 223.5 426.5 c 128,-1,22
 210 407 210 407 199 381 c 0,23,24
 188 353 188 353 188 329 c 0,25,26
 188 304 188 304 200 278 c 0,27,28
 228 224 228 224 327 190 c 0,29,30
 411 162 411 162 546 150 c 1,31,32
 644 150 644 150 681 151.5 c 128,-1,33
 718 153 718 153 787.5 161 c 128,-1,34
 857 169 857 169 918.5 180.5 c 128,-1,35
 980 192 980 192 1045.5 209 c 128,-1,36
 1111 226 1111 226 1159.5 242 c 128,-1,37
 1208 258 1208 258 1245 275.5 c 128,-1,38
 1282 293 1282 293 1282 314 c 1,39,-1
 1199 429 l 2,40,41
 1187 446 1187 446 1189 456 c 0,42,43
 1194 476 1194 476 1201 500 c 128,-1,44
 1208 524 1208 524 1221 558 c 0,45,46
 1226 574 1226 574 1237 574 c 0,47,48
 1244 574 1244 574 1254 565 c 0,49,50
 1320 499 1320 499 1351 410 c 0,51,52
 1365 364 1365 364 1365 329 c 0,0,1
917 -179 m 0,53,54
 909 -199 909 -199 863 -253 c 0,55,56
 854 -260 854 -260 848 -260 c 0,57,58
 840 -260 840 -260 831 -251 c 0,59,60
 797 -219 797 -219 762 -198 c 0,61,62
 743 -186 743 -186 749 -173 c 0,63,64
 795 -107 795 -107 813 -88 c 0,65,66
 817 -84 817 -84 824 -84 c 0,67,68
 833 -84 833 -84 845 -90 c 0,69,70
 879 -107 879 -107 906 -134 c 0,71,72
 920 -150 920 -150 920 -164 c 0,73,74
 920 -171 920 -171 917 -179 c 0,53,54
EndSplineSet
Substitution2: "Single Substitution lookup 42 subtable" uniFE90
Substitution2: "Single Substitution lookup 41 subtable" uniFE91
Substitution2: "Single Substitution lookup 40 subtable" uniFE90
Substitution2: "Single Substitution lookup 39 subtable" uniFE91
Substitution2: "'medi' Medial Forms in Arabic lookup 7 subtable" uniFE92
Substitution2: "'init' Initial Forms in Arabic lookup 6 subtable" uniFE91
AlternateSubs2: "'fina' Terminal Forms in Arabic lookup 0 subtable" uniFE90
EndChar

StartChar: uni0629
Encoding: 1577 1577 15
Width: 481
GlyphClass: 2
Flags: W
AnchorPoint: "Cursive-30" 480 0 entry 0
AnchorPoint: "Cursive-18" 480 0 entry 0
AnchorPoint: "Anchor-2" 264 814 basechar 0
AnchorPoint: "Anchor-1" 270 -90 basechar 0
AnchorPoint: "Anchor-0" 270 885 basechar 0
LayerCount: 2
Back
Fore
SplineSet
444 654 m 0,0,1
 431 621 431 621 391 582 c 0,2,3
 385 575 385 575 378 575 c 0,4,5
 370 575 370 575 361 584 c 0,6,7
 339 606 339 606 307 629 c 0,8,9
 289 641 289 641 280 641 c 1,10,-1
 223 571 l 2,11,12
 217 565 217 565 209 565 c 256,13,14
 201 565 201 565 192 572 c 0,15,16
 167 600 167 600 125 624 c 0,17,18
 108 634 108 634 112 644 c 0,19,20
 143 694 143 694 175 732 c 0,21,22
 179 735 179 735 187 735 c 0,23,24
 194 735 194 735 206 730 c 0,25,26
 237 715 237 715 265 685 c 2,27,-1
 280 669 l 2,28,29
 285 664 285 664 295 678.5 c 128,-1,30
 305 693 305 693 318 710 c 0,31,32
 335 734 335 734 343 742 c 0,33,34
 347 746 347 746 354 746 c 0,35,36
 362 746 362 746 374 740 c 0,37,38
 406 725 406 725 433 697 c 0,39,40
 447 683 447 683 447 668 c 0,41,42
 447 662 447 662 444 654 c 0,0,1
480 241 m 0,43,44
 480 179 480 179 435 112 c 0,45,46
 418 85 418 85 399.5 66 c 128,-1,47
 381 47 381 47 357 33 c 0,48,49
 313 5 313 5 264 0 c 0,50,51
 255 -1 255 -1 240 -1 c 0,52,53
 168 -1 168 -1 135 49 c 0,54,55
 120 75 120 75 119 105 c 0,56,57
 116 147 116 147 136 196 c 2,58,-1
 183 295 l 1,59,-1
 214 357 l 1,60,61
 203 363 203 363 206 371 c 0,62,63
 226 416 226 416 258 472 c 0,64,65
 265 483 265 483 275 482 c 0,66,67
 283 482 283 482 302 470 c 0,68,69
 354 436 354 436 386 412 c 0,70,71
 420 385 420 385 436 365 c 0,72,73
 480 311 480 311 480 241 c 0,43,44
381 204 m 0,74,75
 386 222 386 222 355 250 c 128,-1,76
 324 278 324 278 260 324 c 1,77,-1
 234 272 l 1,78,79
 210 213 210 213 210 201.5 c 128,-1,80
 210 190 210 190 218 177 c 0,81,82
 233 153 233 153 272 149 c 0,83,84
 290 149 290 149 305 152.5 c 128,-1,85
 320 156 320 156 340 165 c 0,86,87
 370 181 370 181 381 204 c 0,74,75
EndSplineSet
Substitution2: "Single Substitution lookup 42 subtable" uniFE94
Substitution2: "Single Substitution lookup 40 subtable" uniFE94
AlternateSubs2: "'fina' Terminal Forms in Arabic lookup 0 subtable" uniFE94
EndChar

StartChar: uni062A
Encoding: 1578 1578 16
Width: 1334
GlyphClass: 2
Flags: W
AnchorPoint: "Cursive-30" 1316 0 entry 0
AnchorPoint: "Cursive-18" 1316 0 entry 0
AnchorPoint: "Anchor-2" 539 803 basechar 0
AnchorPoint: "Anchor-1" 690 -225 basechar 0
AnchorPoint: "Anchor-0" 675 885 basechar 0
LayerCount: 2
Back
Fore
SplineSet
847 509 m 0,0,1
 833 477 833 477 794 438 c 0,2,3
 787 431 787 431 780 431 c 256,4,5
 773 431 773 431 763.5 440 c 128,-1,6
 754 449 754 449 733.5 466 c 128,-1,7
 713 483 713 483 711 485 c 0,8,9
 691 498 691 498 682 498 c 1,10,-1
 626 427 l 2,11,12
 619 420 619 420 612 420 c 256,13,14
 605 420 605 420 595 430 c 128,-1,15
 585 440 585 440 566 454.5 c 128,-1,16
 547 469 547 469 529 480 c 0,17,18
 510 489 510 489 514 501 c 0,19,20
 522 512 522 512 547 547 c 0,21,22
 566 574 566 574 578 587 c 0,23,24
 585 592 585 592 591 592 c 0,25,26
 598 592 598 592 609 586 c 0,27,28
 643 568 643 568 668 541 c 2,29,-1
 682 525 l 2,30,31
 687 520 687 520 697 531 c 0,32,33
 735 587 735 587 746 598 c 0,34,35
 753 603 753 603 759 603 c 0,36,37
 766 603 766 603 777 597 c 0,38,39
 808 581 808 581 836 552 c 0,40,41
 849 539 849 539 849 523 c 0,42,43
 849 514 849 514 847 509 c 0,0,1
1327 329 m 0,44,45
 1327 278 1327 278 1315 241.5 c 128,-1,46
 1303 205 1303 205 1274 181 c 0,47,48
 1227 143 1227 143 1101 99 c 128,-1,49
 975 55 975 55 848 30.5 c 128,-1,50
 721 6 721 6 585 6 c 0,51,52
 471 6 471 6 382.5 18 c 128,-1,53
 294 30 294 30 225 58 c 0,54,55
 108 112 108 112 82 219 c 0,56,57
 76 242 76 242 76 265 c 0,58,59
 76 321 76 321 111 382 c 0,60,61
 152 445 152 445 199 476 c 0,62,63
 221 487 221 487 219 471 c 1,64,65
 199 446 199 446 185.5 426.5 c 128,-1,66
 172 407 172 407 161 381 c 0,67,68
 150 353 150 353 150 329 c 0,69,70
 150 304 150 304 162 278 c 0,71,72
 190 224 190 224 289 190 c 0,73,74
 373 162 373 162 508 150 c 1,75,76
 606 150 606 150 643 151.5 c 128,-1,77
 680 153 680 153 749.5 161 c 128,-1,78
 819 169 819 169 880.5 180.5 c 128,-1,79
 942 192 942 192 1007.5 209 c 128,-1,80
 1073 226 1073 226 1121.5 242 c 128,-1,81
 1170 258 1170 258 1207 275.5 c 128,-1,82
 1244 293 1244 293 1244 314 c 1,83,-1
 1161 429 l 2,84,85
 1149 446 1149 446 1151 456 c 0,86,87
 1156 476 1156 476 1163 500 c 128,-1,88
 1170 524 1170 524 1183 558 c 0,89,90
 1188 574 1188 574 1199 574 c 0,91,92
 1206 574 1206 574 1216 565 c 0,93,94
 1282 499 1282 499 1313 410 c 0,95,96
 1327 364 1327 364 1327 329 c 0,44,45
EndSplineSet
Substitution2: "Single Substitution lookup 42 subtable" uniFE96
Substitution2: "Single Substitution lookup 41 subtable" uniFE97
Substitution2: "Single Substitution lookup 40 subtable" uniFE96
Substitution2: "Single Substitution lookup 39 subtable" uniFE97
Substitution2: "'medi' Medial Forms in Arabic lookup 7 subtable" uniFE98
Substitution2: "'init' Initial Forms in Arabic lookup 6 subtable" uniFE97
AlternateSubs2: "'fina' Terminal Forms in Arabic lookup 0 subtable" uniFE96
EndChar

StartChar: uni062B
Encoding: 1579 1579 17
Width: 1340
GlyphClass: 2
Flags: W
AnchorPoint: "Cursive-30" 1316 0 entry 0
AnchorPoint: "Cursive-18" 1316 0 entry 0
AnchorPoint: "Anchor-2" 506 957 basechar 0
AnchorPoint: "Anchor-1" 645 -180 basechar 0
AnchorPoint: "Anchor-0" 645 1005 basechar 0
LayerCount: 2
Back
Fore
SplineSet
730 738 m 0,0,1
 716 708 716 708 676 667 c 0,2,3
 669 660 669 660 661 660 c 256,4,5
 653 660 653 660 645 667 c 0,6,7
 632 681 632 681 615.5 693 c 128,-1,8
 599 705 599 705 579.5 717 c 128,-1,9
 560 729 560 729 565 739 c 0,10,11
 582 765 582 765 599 788 c 128,-1,12
 616 811 616 811 629 826 c 0,13,14
 632 830 632 830 640 830 c 256,15,16
 648 830 648 830 660 824 c 0,17,18
 691 807 691 807 719 779 c 0,19,20
 732 766 732 766 732 752 c 0,21,22
 732 743 732 743 730 738 c 0,0,1
829 581 m 0,23,24
 823 565 823 565 809.5 547.5 c 128,-1,25
 796 530 796 530 776 510 c 0,26,27
 770 503 770 503 762 503 c 256,28,29
 754 503 754 503 746 510 c 0,30,31
 726 533 726 533 693 555 c 0,32,33
 675 568 675 568 664 568 c 1,34,-1
 608 499 l 2,35,36
 602 492 602 492 594 492 c 256,37,38
 586 492 586 492 578 499 c 0,39,40
 567 510 567 510 548 524.5 c 128,-1,41
 529 539 529 539 510.5 550.5 c 128,-1,42
 492 562 492 562 496 573 c 0,43,44
 531 623 531 623 560 658 c 0,45,46
 564 662 564 662 572 662 c 0,47,48
 579 662 579 662 593 655 c 128,-1,49
 607 648 607 648 622 637 c 0,50,51
 633 629 633 629 650 613 c 2,52,-1
 664 597 l 2,53,54
 670 593 670 593 679 602 c 0,55,56
 690 618 690 618 710 646 c 0,57,58
 723 665 723 665 729 670 c 128,-1,59
 735 675 735 675 741 675 c 0,60,61
 748 675 748 675 759 669 c 0,62,63
 790 653 790 653 818 624 c 0,64,65
 831 611 831 611 831 595 c 0,66,67
 831 586 831 586 829 581 c 0,23,24
1336 329 m 0,68,69
 1336 278 1336 278 1324 241.5 c 128,-1,70
 1312 205 1312 205 1283 181 c 0,71,72
 1236 143 1236 143 1110 99 c 128,-1,73
 984 55 984 55 857 30.5 c 128,-1,74
 730 6 730 6 594 6 c 0,75,76
 480 6 480 6 391.5 18 c 128,-1,77
 303 30 303 30 234 58 c 0,78,79
 117 112 117 112 91 219 c 0,80,81
 85 242 85 242 85 265 c 0,82,83
 85 321 85 321 120 382 c 0,84,85
 161 445 161 445 208 476 c 0,86,87
 230 487 230 487 228 471 c 1,88,89
 208 446 208 446 194.5 426.5 c 128,-1,90
 181 407 181 407 170 381 c 0,91,92
 159 353 159 353 159 329 c 0,93,94
 159 304 159 304 171 278 c 0,95,96
 199 224 199 224 298 190 c 0,97,98
 382 162 382 162 517 150 c 1,99,100
 615 150 615 150 652 151.5 c 128,-1,101
 689 153 689 153 758.5 161 c 128,-1,102
 828 169 828 169 889.5 180.5 c 128,-1,103
 951 192 951 192 1016.5 209 c 128,-1,104
 1082 226 1082 226 1130.5 242 c 128,-1,105
 1179 258 1179 258 1216 275.5 c 128,-1,106
 1253 293 1253 293 1253 314 c 1,107,-1
 1170 429 l 2,108,109
 1158 446 1158 446 1160 456 c 0,110,111
 1165 476 1165 476 1172 500 c 128,-1,112
 1179 524 1179 524 1192 558 c 0,113,114
 1197 574 1197 574 1208 574 c 0,115,116
 1215 574 1215 574 1225 565 c 0,117,118
 1291 499 1291 499 1322 410 c 0,119,120
 1336 364 1336 364 1336 329 c 0,68,69
EndSplineSet
Substitution2: "Single Substitution lookup 42 subtable" uniFE9A
Substitution2: "Single Substitution lookup 41 subtable" uniFE9B
Substitution2: "Single Substitution lookup 40 subtable" uniFE9A
Substitution2: "Single Substitution lookup 39 subtable" uniFE9B
Substitution2: "'medi' Medial Forms in Arabic lookup 7 subtable" uniFE9C
Substitution2: "'init' Initial Forms in Arabic lookup 6 subtable" uniFE9B
AlternateSubs2: "'fina' Terminal Forms in Arabic lookup 0 subtable" uniFE9A
EndChar

StartChar: uni062C
Encoding: 1580 1580 18
Width: 925
GlyphClass: 2
Flags: W
AnchorPoint: "Cursive-30" 909 0 entry 0
AnchorPoint: "Cursive-20" 909 0 entry 0
AnchorPoint: "Cursive-18" 909 0 entry 0
AnchorPoint: "Anchor-2" 286 682 basechar 0
AnchorPoint: "Anchor-1" 584 -380 basechar 0
AnchorPoint: "Anchor-0" 480 675 basechar 0
LayerCount: 2
Back
Fore
SplineSet
1116 -695 m 0,0,1
 1109 -697 1109 -697 1011 -720 c 0,2,3
 932 -739 932 -739 881 -751 c 0,4,5
 757 -779 757 -779 655 -788 c 1,6,7
 565 -788 565 -788 510.5 -780.5 c 128,-1,8
 456 -773 456 -773 404 -759 c 0,9,10
 303 -731 303 -731 231.5 -673.5 c 128,-1,11
 160 -616 160 -616 119 -514 c 0,12,13
 90 -440 90 -440 86 -359 c 0,14,15
 82 -298 82 -298 84.5 -267.5 c 128,-1,16
 87 -237 87 -237 94 -194 c 0,17,18
 107 -116 107 -116 156 -15 c 0,19,20
 173 19 173 19 195.5 51.5 c 128,-1,21
 218 84 218 84 250 122 c 0,22,23
 306 189 306 189 350 220 c 0,24,25
 355 223 355 223 350 226.5 c 128,-1,26
 345 230 345 230 314 233 c 0,27,28
 272 234 272 234 246 229 c 128,-1,29
 220 224 220 224 199 210 c 0,30,31
 179 201 179 201 127 146 c 0,32,33
 123 142 123 142 120.5 142 c 128,-1,34
 118 142 118 142 116.5 144 c 128,-1,35
 115 146 115 146 116 153 c 0,36,37
 124 191 124 191 159 250 c 128,-1,38
 194 309 194 309 225 330 c 0,39,40
 241 341 241 341 260 347.5 c 128,-1,41
 279 354 279 354 308 358 c 1,42,43
 355 358 355 358 373 357 c 128,-1,44
 391 356 391 356 439 351 c 2,45,-1
 609 343 l 1,46,-1
 678 343 l 1,47,-1
 737 346 l 1,48,-1
 812 353 l 2,49,50
 825 354 825 354 818 340 c 2,51,-1
 764 242 l 2,52,53
 756 227 756 227 742 228 c 0,54,55
 692 228 692 228 653.5 223 c 128,-1,56
 615 218 615 218 572 207 c 0,57,58
 407 172 407 172 295 54 c 0,59,60
 242 -2 242 -2 202 -82 c 0,61,62
 173 -142 173 -142 161 -210 c 0,63,64
 155 -249 155 -249 155 -286 c 0,65,66
 156 -317 156 -317 159 -345 c 0,67,68
 170 -425 170 -425 210 -487 c 0,69,70
 262 -565 262 -565 361 -612 c 0,71,72
 424 -642 424 -642 514 -658 c 128,-1,73
 604 -674 604 -674 722 -674 c 2,74,-1
 1116 -673 l 2,75,76
 1125 -673 1125 -673 1127 -682 c 0,77,78
 1127 -691 1127 -691 1116 -695 c 0,0,1
630 -196 m 0,79,80
 616 -227 616 -227 577 -266 c 0,81,82
 570 -273 570 -273 562 -273 c 256,83,84
 554 -273 554 -273 546 -265 c 0,85,86
 533 -252 533 -252 516.5 -239.5 c 128,-1,87
 500 -227 500 -227 480.5 -215.5 c 128,-1,88
 461 -204 461 -204 465 -193 c 0,89,90
 499 -140 499 -140 529 -106 c 0,91,92
 533 -102 533 -102 540 -102 c 0,93,94
 548 -102 548 -102 559 -108 c 0,95,96
 592 -124 592 -124 618 -153 c 0,97,98
 632 -167 632 -167 632 -183 c 0,99,100
 632 -188 632 -188 630 -196 c 0,79,80
EndSplineSet
Substitution2: "Single Substitution lookup 42 subtable" uniFE9E
Substitution2: "Single Substitution lookup 41 subtable" uniFE9F
Substitution2: "Single Substitution lookup 40 subtable" uniFE9E
Substitution2: "Single Substitution lookup 39 subtable" uniFE9F
Substitution2: "'medi' Medial Forms in Arabic lookup 7 subtable" uniFEA0
Substitution2: "'init' Initial Forms in Arabic lookup 6 subtable" uniFE9F
AlternateSubs2: "'fina' Terminal Forms in Arabic lookup 0 subtable" uniFE9E
PairPos2: "Pairwise Positioning (kerning) lookup 32 subtable" _.notdef.001 dx=0 dy=0 dh=0 dv=0 dx=0 dy=300 dh=0 dv=0
PairPos2: "Pairwise Positioning (kerning) lookup 32 subtable" _.notdef.002 dx=0 dy=0 dh=0 dv=0 dx=0 dy=300 dh=0 dv=0
PairPos2: "Pairwise Positioning (kerning) lookup 32 subtable" uni036F dx=0 dy=0 dh=0 dv=0 dx=0 dy=300 dh=0 dv=0
PairPos2: "Pairwise Positioning (kerning) lookup 32 subtable" uni036E dx=0 dy=0 dh=0 dv=0 dx=0 dy=300 dh=0 dv=0
PairPos2: "Pairwise Positioning (kerning) lookup 32 subtable" uni036D dx=0 dy=0 dh=0 dv=0 dx=0 dy=300 dh=0 dv=0
PairPos2: "Pairwise Positioning (kerning) lookup 32 subtable" kasratanisolated dx=0 dy=0 dh=0 dv=0 dx=0 dy=300 dh=0 dv=0
PairPos2: "Pairwise Positioning (kerning) lookup 32 subtable" dammatanisolated dx=0 dy=0 dh=0 dv=0 dx=0 dy=300 dh=0 dv=0
PairPos2: "Pairwise Positioning (kerning) lookup 32 subtable" fathatanisolated dx=0 dy=0 dh=0 dv=0 dx=0 dy=300 dh=0 dv=0
PairPos2: "Pairwise Positioning (kerning) lookup 32 subtable" shaddawithkasratanlow.moved.001 dx=0 dy=0 dh=0 dv=0 dx=0 dy=300 dh=0 dv=0
PairPos2: "Pairwise Positioning (kerning) lookup 32 subtable" shaddawithkasratanlow.moved dx=0 dy=0 dh=0 dv=0 dx=0 dy=300 dh=0 dv=0
PairPos2: "Pairwise Positioning (kerning) lookup 32 subtable" shaddalow_dammatanalignedlow_ga dx=0 dy=0 dh=0 dv=0 dx=0 dy=300 dh=0 dv=0
PairPos2: "Pairwise Positioning (kerning) lookup 32 subtable" _.ndefine1 dx=0 dy=0 dh=0 dv=0 dx=0 dy=300 dh=0 dv=0
PairPos2: "Pairwise Positioning (kerning) lookup 32 subtable" _.ndefine2 dx=0 dy=0 dh=0 dv=0 dx=0 dy=300 dh=0 dv=0
PairPos2: "Pairwise Positioning (kerning) lookup 32 subtable" shaddawithdammatanaligned dx=0 dy=0 dh=0 dv=0 dx=0 dy=300 dh=0 dv=0
PairPos2: "Pairwise Positioning (kerning) lookup 32 subtable" shaddawithdammatanisolatedlow dx=0 dy=0 dh=0 dv=0 dx=0 dy=300 dh=0 dv=0
PairPos2: "Pairwise Positioning (kerning) lookup 32 subtable" shaddawithfathaisolatedlow dx=0 dy=0 dh=0 dv=0 dx=0 dy=300 dh=0 dv=0
PairPos2: "Pairwise Positioning (kerning) lookup 32 subtable" shaddawithdammaisolatedlow dx=0 dy=0 dh=0 dv=0 dx=0 dy=300 dh=0 dv=0
PairPos2: "Pairwise Positioning (kerning) lookup 32 subtable" shaddawithfathatanisolated dx=0 dy=0 dh=0 dv=0 dx=0 dy=300 dh=0 dv=0
PairPos2: "Pairwise Positioning (kerning) lookup 32 subtable" shaddawithfathatanaligned dx=0 dy=0 dh=0 dv=0 dx=0 dy=300 dh=0 dv=0
PairPos2: "Pairwise Positioning (kerning) lookup 32 subtable" uni06EB dx=0 dy=0 dh=0 dv=0 dx=0 dy=300 dh=0 dv=0
PairPos2: "Pairwise Positioning (kerning) lookup 32 subtable" uni06E8 dx=0 dy=0 dh=0 dv=0 dx=0 dy=300 dh=0 dv=0
PairPos2: "Pairwise Positioning (kerning) lookup 32 subtable" uni06E2 dx=0 dy=0 dh=0 dv=0 dx=0 dy=300 dh=0 dv=0
PairPos2: "Pairwise Positioning (kerning) lookup 32 subtable" uni06E1 dx=0 dy=0 dh=0 dv=0 dx=0 dy=300 dh=0 dv=0
PairPos2: "Pairwise Positioning (kerning) lookup 32 subtable" uni06E0 dx=0 dy=0 dh=0 dv=0 dx=0 dy=300 dh=0 dv=0
PairPos2: "Pairwise Positioning (kerning) lookup 32 subtable" uni06DF dx=0 dy=0 dh=0 dv=0 dx=0 dy=300 dh=0 dv=0
PairPos2: "Pairwise Positioning (kerning) lookup 32 subtable" uni065B dx=0 dy=0 dh=0 dv=0 dx=0 dy=300 dh=0 dv=0
PairPos2: "Pairwise Positioning (kerning) lookup 32 subtable" uni065A dx=0 dy=0 dh=0 dv=0 dx=0 dy=300 dh=0 dv=0
PairPos2: "Pairwise Positioning (kerning) lookup 32 subtable" uni0659 dx=0 dy=0 dh=0 dv=0 dx=0 dy=300 dh=0 dv=0
PairPos2: "Pairwise Positioning (kerning) lookup 32 subtable" uni0652 dx=0 dy=0 dh=0 dv=0 dx=0 dy=300 dh=0 dv=0
PairPos2: "Pairwise Positioning (kerning) lookup 32 subtable" uni0651 dx=0 dy=0 dh=0 dv=0 dx=0 dy=300 dh=0 dv=0
PairPos2: "Pairwise Positioning (kerning) lookup 32 subtable" uni0650 dx=0 dy=0 dh=0 dv=0 dx=0 dy=300 dh=0 dv=0
PairPos2: "Pairwise Positioning (kerning) lookup 32 subtable" uni064F dx=0 dy=0 dh=0 dv=0 dx=0 dy=300 dh=0 dv=0
PairPos2: "Pairwise Positioning (kerning) lookup 32 subtable" uni064E dx=0 dy=0 dh=0 dv=0 dx=0 dy=300 dh=0 dv=0
PairPos2: "Pairwise Positioning (kerning) lookup 32 subtable" uni064D dx=0 dy=0 dh=0 dv=0 dx=0 dy=300 dh=0 dv=0
PairPos2: "Pairwise Positioning (kerning) lookup 32 subtable" uni064C dx=0 dy=0 dh=0 dv=0 dx=0 dy=300 dh=0 dv=0
PairPos2: "Pairwise Positioning (kerning) lookup 32 subtable" uni064B dx=0 dy=0 dh=0 dv=0 dx=0 dy=300 dh=0 dv=0
PairPos2: "Pairwise Positioning (kerning) lookup 31 subtable" _.notdef.001 dx=0 dy=0 dh=0 dv=0 dx=0 dy=220 dh=0 dv=0
PairPos2: "Pairwise Positioning (kerning) lookup 31 subtable" _.notdef.002 dx=0 dy=0 dh=0 dv=0 dx=0 dy=220 dh=0 dv=0
PairPos2: "Pairwise Positioning (kerning) lookup 31 subtable" uni036F dx=0 dy=0 dh=0 dv=0 dx=0 dy=220 dh=0 dv=0
PairPos2: "Pairwise Positioning (kerning) lookup 31 subtable" uni036E dx=0 dy=0 dh=0 dv=0 dx=0 dy=220 dh=0 dv=0
PairPos2: "Pairwise Positioning (kerning) lookup 31 subtable" uni036D dx=0 dy=0 dh=0 dv=0 dx=0 dy=220 dh=0 dv=0
PairPos2: "Pairwise Positioning (kerning) lookup 31 subtable" kasratanisolated dx=0 dy=0 dh=0 dv=0 dx=0 dy=220 dh=0 dv=0
PairPos2: "Pairwise Positioning (kerning) lookup 31 subtable" dammatanisolated dx=0 dy=0 dh=0 dv=0 dx=0 dy=220 dh=0 dv=0
PairPos2: "Pairwise Positioning (kerning) lookup 31 subtable" fathatanisolated dx=0 dy=0 dh=0 dv=0 dx=0 dy=220 dh=0 dv=0
PairPos2: "Pairwise Positioning (kerning) lookup 31 subtable" shaddawithkasratanlow.moved.001 dx=0 dy=0 dh=0 dv=0 dx=0 dy=220 dh=0 dv=0
PairPos2: "Pairwise Positioning (kerning) lookup 31 subtable" shaddawithkasratanlow.moved dx=0 dy=0 dh=0 dv=0 dx=0 dy=220 dh=0 dv=0
PairPos2: "Pairwise Positioning (kerning) lookup 31 subtable" shaddalow_dammatanalignedlow_ga dx=0 dy=0 dh=0 dv=0 dx=0 dy=220 dh=0 dv=0
PairPos2: "Pairwise Positioning (kerning) lookup 31 subtable" _.ndefine1 dx=0 dy=0 dh=0 dv=0 dx=0 dy=220 dh=0 dv=0
PairPos2: "Pairwise Positioning (kerning) lookup 31 subtable" _.ndefine2 dx=0 dy=0 dh=0 dv=0 dx=0 dy=220 dh=0 dv=0
PairPos2: "Pairwise Positioning (kerning) lookup 31 subtable" shaddawithdammatanaligned dx=0 dy=0 dh=0 dv=0 dx=0 dy=220 dh=0 dv=0
PairPos2: "Pairwise Positioning (kerning) lookup 31 subtable" shaddawithdammatanisolatedlow dx=0 dy=0 dh=0 dv=0 dx=0 dy=220 dh=0 dv=0
PairPos2: "Pairwise Positioning (kerning) lookup 31 subtable" shaddawithfathaisolatedlow dx=0 dy=0 dh=0 dv=0 dx=0 dy=220 dh=0 dv=0
PairPos2: "Pairwise Positioning (kerning) lookup 31 subtable" shaddawithdammaisolatedlow dx=0 dy=0 dh=0 dv=0 dx=0 dy=220 dh=0 dv=0
PairPos2: "Pairwise Positioning (kerning) lookup 31 subtable" shaddawithfathatanisolated dx=0 dy=0 dh=0 dv=0 dx=0 dy=220 dh=0 dv=0
PairPos2: "Pairwise Positioning (kerning) lookup 31 subtable" shaddawithfathatanaligned dx=0 dy=0 dh=0 dv=0 dx=0 dy=220 dh=0 dv=0
PairPos2: "Pairwise Positioning (kerning) lookup 31 subtable" uni06EB dx=0 dy=0 dh=0 dv=0 dx=0 dy=220 dh=0 dv=0
PairPos2: "Pairwise Positioning (kerning) lookup 31 subtable" uni06E8 dx=0 dy=0 dh=0 dv=0 dx=0 dy=220 dh=0 dv=0
PairPos2: "Pairwise Positioning (kerning) lookup 31 subtable" uni06E2 dx=0 dy=0 dh=0 dv=0 dx=0 dy=220 dh=0 dv=0
PairPos2: "Pairwise Positioning (kerning) lookup 31 subtable" uni06E1 dx=0 dy=0 dh=0 dv=0 dx=0 dy=220 dh=0 dv=0
PairPos2: "Pairwise Positioning (kerning) lookup 31 subtable" uni06E0 dx=0 dy=0 dh=0 dv=0 dx=0 dy=220 dh=0 dv=0
PairPos2: "Pairwise Positioning (kerning) lookup 31 subtable" uni06DF dx=0 dy=0 dh=0 dv=0 dx=0 dy=220 dh=0 dv=0
PairPos2: "Pairwise Positioning (kerning) lookup 31 subtable" uni065B dx=0 dy=0 dh=0 dv=0 dx=0 dy=220 dh=0 dv=0
PairPos2: "Pairwise Positioning (kerning) lookup 31 subtable" uni065A dx=0 dy=0 dh=0 dv=0 dx=0 dy=220 dh=0 dv=0
PairPos2: "Pairwise Positioning (kerning) lookup 31 subtable" uni0659 dx=0 dy=0 dh=0 dv=0 dx=0 dy=220 dh=0 dv=0
PairPos2: "Pairwise Positioning (kerning) lookup 31 subtable" uni0652 dx=0 dy=0 dh=0 dv=0 dx=0 dy=220 dh=0 dv=0
PairPos2: "Pairwise Positioning (kerning) lookup 31 subtable" uni0651 dx=0 dy=0 dh=0 dv=0 dx=0 dy=220 dh=0 dv=0
PairPos2: "Pairwise Positioning (kerning) lookup 31 subtable" uni0650 dx=0 dy=0 dh=0 dv=0 dx=0 dy=220 dh=0 dv=0
PairPos2: "Pairwise Positioning (kerning) lookup 31 subtable" uni064F dx=0 dy=0 dh=0 dv=0 dx=0 dy=220 dh=0 dv=0
PairPos2: "Pairwise Positioning (kerning) lookup 31 subtable" uni064E dx=0 dy=0 dh=0 dv=0 dx=0 dy=220 dh=0 dv=0
PairPos2: "Pairwise Positioning (kerning) lookup 31 subtable" uni064D dx=0 dy=0 dh=0 dv=0 dx=0 dy=220 dh=0 dv=0
PairPos2: "Pairwise Positioning (kerning) lookup 31 subtable" uni064C dx=0 dy=0 dh=0 dv=0 dx=0 dy=220 dh=0 dv=0
PairPos2: "Pairwise Positioning (kerning) lookup 31 subtable" uni064B dx=0 dy=0 dh=0 dv=0 dx=0 dy=220 dh=0 dv=0
PairPos2: "Pairwise Positioning (kerning) lookup 30 subtable" _.notdef.001 dx=0 dy=0 dh=0 dv=0 dx=0 dy=130 dh=0 dv=0
PairPos2: "Pairwise Positioning (kerning) lookup 30 subtable" _.notdef.002 dx=0 dy=0 dh=0 dv=0 dx=0 dy=130 dh=0 dv=0
PairPos2: "Pairwise Positioning (kerning) lookup 30 subtable" uni036F dx=0 dy=0 dh=0 dv=0 dx=0 dy=130 dh=0 dv=0
PairPos2: "Pairwise Positioning (kerning) lookup 30 subtable" uni036E dx=0 dy=0 dh=0 dv=0 dx=0 dy=130 dh=0 dv=0
PairPos2: "Pairwise Positioning (kerning) lookup 30 subtable" uni036D dx=0 dy=0 dh=0 dv=0 dx=0 dy=130 dh=0 dv=0
PairPos2: "Pairwise Positioning (kerning) lookup 30 subtable" kasratanisolated dx=0 dy=0 dh=0 dv=0 dx=0 dy=130 dh=0 dv=0
PairPos2: "Pairwise Positioning (kerning) lookup 30 subtable" dammatanisolated dx=0 dy=0 dh=0 dv=0 dx=0 dy=130 dh=0 dv=0
PairPos2: "Pairwise Positioning (kerning) lookup 30 subtable" fathatanisolated dx=0 dy=0 dh=0 dv=0 dx=0 dy=130 dh=0 dv=0
PairPos2: "Pairwise Positioning (kerning) lookup 30 subtable" shaddawithkasratanlow.moved.001 dx=0 dy=0 dh=0 dv=0 dx=0 dy=130 dh=0 dv=0
PairPos2: "Pairwise Positioning (kerning) lookup 30 subtable" shaddawithkasratanlow.moved dx=0 dy=0 dh=0 dv=0 dx=0 dy=130 dh=0 dv=0
PairPos2: "Pairwise Positioning (kerning) lookup 30 subtable" shaddalow_dammatanalignedlow_ga dx=0 dy=0 dh=0 dv=0 dx=0 dy=130 dh=0 dv=0
PairPos2: "Pairwise Positioning (kerning) lookup 30 subtable" _.ndefine1 dx=0 dy=0 dh=0 dv=0 dx=0 dy=130 dh=0 dv=0
PairPos2: "Pairwise Positioning (kerning) lookup 30 subtable" _.ndefine2 dx=0 dy=0 dh=0 dv=0 dx=0 dy=130 dh=0 dv=0
PairPos2: "Pairwise Positioning (kerning) lookup 30 subtable" shaddawithdammatanaligned dx=0 dy=0 dh=0 dv=0 dx=0 dy=130 dh=0 dv=0
PairPos2: "Pairwise Positioning (kerning) lookup 30 subtable" shaddawithdammatanisolatedlow dx=0 dy=0 dh=0 dv=0 dx=0 dy=130 dh=0 dv=0
PairPos2: "Pairwise Positioning (kerning) lookup 30 subtable" shaddawithfathaisolatedlow dx=0 dy=0 dh=0 dv=0 dx=0 dy=130 dh=0 dv=0
PairPos2: "Pairwise Positioning (kerning) lookup 30 subtable" shaddawithdammaisolatedlow dx=0 dy=0 dh=0 dv=0 dx=0 dy=130 dh=0 dv=0
PairPos2: "Pairwise Positioning (kerning) lookup 30 subtable" shaddawithfathatanisolated dx=0 dy=0 dh=0 dv=0 dx=0 dy=130 dh=0 dv=0
PairPos2: "Pairwise Positioning (kerning) lookup 30 subtable" shaddawithfathatanaligned dx=0 dy=0 dh=0 dv=0 dx=0 dy=130 dh=0 dv=0
PairPos2: "Pairwise Positioning (kerning) lookup 30 subtable" uni06EB dx=0 dy=0 dh=0 dv=0 dx=0 dy=130 dh=0 dv=0
PairPos2: "Pairwise Positioning (kerning) lookup 30 subtable" uni06E8 dx=0 dy=0 dh=0 dv=0 dx=0 dy=130 dh=0 dv=0
PairPos2: "Pairwise Positioning (kerning) lookup 30 subtable" uni06E2 dx=0 dy=0 dh=0 dv=0 dx=0 dy=130 dh=0 dv=0
PairPos2: "Pairwise Positioning (kerning) lookup 30 subtable" uni06E1 dx=0 dy=0 dh=0 dv=0 dx=0 dy=130 dh=0 dv=0
PairPos2: "Pairwise Positioning (kerning) lookup 30 subtable" uni06E0 dx=0 dy=0 dh=0 dv=0 dx=0 dy=130 dh=0 dv=0
PairPos2: "Pairwise Positioning (kerning) lookup 30 subtable" uni06DF dx=0 dy=0 dh=0 dv=0 dx=0 dy=130 dh=0 dv=0
PairPos2: "Pairwise Positioning (kerning) lookup 30 subtable" uni065B dx=0 dy=0 dh=0 dv=0 dx=0 dy=130 dh=0 dv=0
PairPos2: "Pairwise Positioning (kerning) lookup 30 subtable" uni065A dx=0 dy=0 dh=0 dv=0 dx=0 dy=130 dh=0 dv=0
PairPos2: "Pairwise Positioning (kerning) lookup 30 subtable" uni0659 dx=0 dy=0 dh=0 dv=0 dx=0 dy=130 dh=0 dv=0
PairPos2: "Pairwise Positioning (kerning) lookup 30 subtable" uni0652 dx=0 dy=0 dh=0 dv=0 dx=0 dy=130 dh=0 dv=0
PairPos2: "Pairwise Positioning (kerning) lookup 30 subtable" uni0651 dx=0 dy=0 dh=0 dv=0 dx=0 dy=130 dh=0 dv=0
PairPos2: "Pairwise Positioning (kerning) lookup 30 subtable" uni0650 dx=0 dy=0 dh=0 dv=0 dx=0 dy=130 dh=0 dv=0
PairPos2: "Pairwise Positioning (kerning) lookup 30 subtable" uni064F dx=0 dy=0 dh=0 dv=0 dx=0 dy=130 dh=0 dv=0
PairPos2: "Pairwise Positioning (kerning) lookup 30 subtable" uni064E dx=0 dy=0 dh=0 dv=0 dx=0 dy=130 dh=0 dv=0
PairPos2: "Pairwise Positioning (kerning) lookup 30 subtable" uni064D dx=0 dy=0 dh=0 dv=0 dx=0 dy=130 dh=0 dv=0
PairPos2: "Pairwise Positioning (kerning) lookup 30 subtable" uni064C dx=0 dy=0 dh=0 dv=0 dx=0 dy=130 dh=0 dv=0
PairPos2: "Pairwise Positioning (kerning) lookup 30 subtable" uni064B dx=0 dy=0 dh=0 dv=0 dx=0 dy=130 dh=0 dv=0
PairPos2: "Pairwise Positioning (kerning) lookup 29 subtable" _.notdef.001 dx=0 dy=0 dh=0 dv=0 dx=0 dy=220 dh=0 dv=0
PairPos2: "Pairwise Positioning (kerning) lookup 29 subtable" _.notdef.002 dx=0 dy=0 dh=0 dv=0 dx=0 dy=220 dh=0 dv=0
PairPos2: "Pairwise Positioning (kerning) lookup 29 subtable" uni036F dx=0 dy=0 dh=0 dv=0 dx=0 dy=220 dh=0 dv=0
PairPos2: "Pairwise Positioning (kerning) lookup 29 subtable" uni036E dx=0 dy=0 dh=0 dv=0 dx=0 dy=220 dh=0 dv=0
PairPos2: "Pairwise Positioning (kerning) lookup 29 subtable" uni036D dx=0 dy=0 dh=0 dv=0 dx=0 dy=220 dh=0 dv=0
PairPos2: "Pairwise Positioning (kerning) lookup 29 subtable" kasratanisolated dx=0 dy=0 dh=0 dv=0 dx=0 dy=220 dh=0 dv=0
PairPos2: "Pairwise Positioning (kerning) lookup 29 subtable" dammatanisolated dx=0 dy=0 dh=0 dv=0 dx=0 dy=220 dh=0 dv=0
PairPos2: "Pairwise Positioning (kerning) lookup 29 subtable" fathatanisolated dx=0 dy=0 dh=0 dv=0 dx=0 dy=220 dh=0 dv=0
PairPos2: "Pairwise Positioning (kerning) lookup 29 subtable" shaddawithkasratanlow.moved.001 dx=0 dy=0 dh=0 dv=0 dx=0 dy=220 dh=0 dv=0
PairPos2: "Pairwise Positioning (kerning) lookup 29 subtable" shaddawithkasratanlow.moved dx=0 dy=0 dh=0 dv=0 dx=0 dy=220 dh=0 dv=0
PairPos2: "Pairwise Positioning (kerning) lookup 29 subtable" shaddalow_dammatanalignedlow_ga dx=0 dy=0 dh=0 dv=0 dx=0 dy=220 dh=0 dv=0
PairPos2: "Pairwise Positioning (kerning) lookup 29 subtable" _.ndefine1 dx=0 dy=0 dh=0 dv=0 dx=0 dy=220 dh=0 dv=0
PairPos2: "Pairwise Positioning (kerning) lookup 29 subtable" _.ndefine2 dx=0 dy=0 dh=0 dv=0 dx=0 dy=220 dh=0 dv=0
PairPos2: "Pairwise Positioning (kerning) lookup 29 subtable" shaddawithdammatanaligned dx=0 dy=0 dh=0 dv=0 dx=0 dy=220 dh=0 dv=0
PairPos2: "Pairwise Positioning (kerning) lookup 29 subtable" shaddawithdammatanisolatedlow dx=0 dy=0 dh=0 dv=0 dx=0 dy=220 dh=0 dv=0
PairPos2: "Pairwise Positioning (kerning) lookup 29 subtable" shaddawithfathaisolatedlow dx=0 dy=0 dh=0 dv=0 dx=0 dy=220 dh=0 dv=0
PairPos2: "Pairwise Positioning (kerning) lookup 29 subtable" shaddawithdammaisolatedlow dx=0 dy=0 dh=0 dv=0 dx=0 dy=220 dh=0 dv=0
PairPos2: "Pairwise Positioning (kerning) lookup 29 subtable" shaddawithfathatanisolated dx=0 dy=0 dh=0 dv=0 dx=0 dy=220 dh=0 dv=0
PairPos2: "Pairwise Positioning (kerning) lookup 29 subtable" shaddawithfathatanaligned dx=0 dy=0 dh=0 dv=0 dx=0 dy=220 dh=0 dv=0
PairPos2: "Pairwise Positioning (kerning) lookup 29 subtable" uni06EB dx=0 dy=0 dh=0 dv=0 dx=0 dy=220 dh=0 dv=0
PairPos2: "Pairwise Positioning (kerning) lookup 29 subtable" uni06E8 dx=0 dy=0 dh=0 dv=0 dx=0 dy=220 dh=0 dv=0
PairPos2: "Pairwise Positioning (kerning) lookup 29 subtable" uni06E2 dx=0 dy=0 dh=0 dv=0 dx=0 dy=220 dh=0 dv=0
PairPos2: "Pairwise Positioning (kerning) lookup 29 subtable" uni06E1 dx=0 dy=0 dh=0 dv=0 dx=0 dy=220 dh=0 dv=0
PairPos2: "Pairwise Positioning (kerning) lookup 29 subtable" uni06E0 dx=0 dy=0 dh=0 dv=0 dx=0 dy=220 dh=0 dv=0
PairPos2: "Pairwise Positioning (kerning) lookup 29 subtable" uni06DF dx=0 dy=0 dh=0 dv=0 dx=0 dy=220 dh=0 dv=0
PairPos2: "Pairwise Positioning (kerning) lookup 29 subtable" uni065B dx=0 dy=0 dh=0 dv=0 dx=0 dy=220 dh=0 dv=0
PairPos2: "Pairwise Positioning (kerning) lookup 29 subtable" uni065A dx=0 dy=0 dh=0 dv=0 dx=0 dy=220 dh=0 dv=0
PairPos2: "Pairwise Positioning (kerning) lookup 29 subtable" uni0659 dx=0 dy=0 dh=0 dv=0 dx=0 dy=220 dh=0 dv=0
PairPos2: "Pairwise Positioning (kerning) lookup 29 subtable" uni0652 dx=0 dy=0 dh=0 dv=0 dx=0 dy=220 dh=0 dv=0
PairPos2: "Pairwise Positioning (kerning) lookup 29 subtable" uni0651 dx=0 dy=0 dh=0 dv=0 dx=0 dy=220 dh=0 dv=0
PairPos2: "Pairwise Positioning (kerning) lookup 29 subtable" uni0650 dx=0 dy=0 dh=0 dv=0 dx=0 dy=220 dh=0 dv=0
PairPos2: "Pairwise Positioning (kerning) lookup 29 subtable" uni064F dx=0 dy=0 dh=0 dv=0 dx=0 dy=220 dh=0 dv=0
PairPos2: "Pairwise Positioning (kerning) lookup 29 subtable" uni064E dx=0 dy=0 dh=0 dv=0 dx=0 dy=220 dh=0 dv=0
PairPos2: "Pairwise Positioning (kerning) lookup 29 subtable" uni064D dx=0 dy=0 dh=0 dv=0 dx=0 dy=220 dh=0 dv=0
PairPos2: "Pairwise Positioning (kerning) lookup 29 subtable" uni064C dx=0 dy=0 dh=0 dv=0 dx=0 dy=220 dh=0 dv=0
PairPos2: "Pairwise Positioning (kerning) lookup 29 subtable" uni064B dx=0 dy=0 dh=0 dv=0 dx=0 dy=220 dh=0 dv=0
EndChar

StartChar: uni062D
Encoding: 1581 1581 19
Width: 940
GlyphClass: 2
Flags: W
AnchorPoint: "Cursive-30" 788 0 entry 0
AnchorPoint: "Cursive-20" 788 0 entry 0
AnchorPoint: "Cursive-18" 788 0 entry 0
AnchorPoint: "Anchor-2" 341 880 basechar 0
AnchorPoint: "Anchor-1" 525 -330 basechar 0
AnchorPoint: "Anchor-0" 450 645 basechar 0
LayerCount: 2
Back
Fore
SplineSet
1116 -695 m 0,0,1
 1109 -697 1109 -697 1011 -720 c 0,2,3
 932 -739 932 -739 881 -751 c 0,4,5
 757 -779 757 -779 655 -788 c 1,6,7
 565 -788 565 -788 510.5 -780.5 c 128,-1,8
 456 -773 456 -773 404 -759 c 0,9,10
 303 -731 303 -731 231.5 -673.5 c 128,-1,11
 160 -616 160 -616 119 -514 c 0,12,13
 90 -440 90 -440 86 -359 c 0,14,15
 82 -298 82 -298 84.5 -267.5 c 128,-1,16
 87 -237 87 -237 94 -194 c 0,17,18
 107 -116 107 -116 156 -15 c 0,19,20
 173 19 173 19 195.5 51.5 c 128,-1,21
 218 84 218 84 250 122 c 0,22,23
 306 189 306 189 350 220 c 0,24,25
 355 223 355 223 350 226.5 c 128,-1,26
 345 230 345 230 314 233 c 0,27,28
 272 234 272 234 246 229 c 128,-1,29
 220 224 220 224 199 210 c 0,30,31
 179 201 179 201 127 146 c 0,32,33
 123 142 123 142 120.5 142 c 128,-1,34
 118 142 118 142 116.5 144 c 128,-1,35
 115 146 115 146 116 153 c 0,36,37
 124 191 124 191 159 250 c 128,-1,38
 194 309 194 309 225 330 c 0,39,40
 241 341 241 341 260 347.5 c 128,-1,41
 279 354 279 354 308 358 c 1,42,43
 355 358 355 358 373 357 c 128,-1,44
 391 356 391 356 439 351 c 2,45,-1
 609 343 l 1,46,-1
 678 343 l 1,47,-1
 737 346 l 1,48,-1
 812 353 l 2,49,50
 825 354 825 354 818 340 c 2,51,-1
 764 242 l 2,52,53
 756 227 756 227 742 228 c 0,54,55
 692 228 692 228 653.5 223 c 128,-1,56
 615 218 615 218 572 207 c 0,57,58
 407 172 407 172 295 54 c 0,59,60
 242 -2 242 -2 202 -82 c 0,61,62
 173 -142 173 -142 161 -210 c 0,63,64
 155 -249 155 -249 155 -286 c 0,65,66
 156 -317 156 -317 159 -345 c 0,67,68
 170 -425 170 -425 210 -487 c 0,69,70
 262 -565 262 -565 361 -612 c 0,71,72
 424 -642 424 -642 514 -658 c 128,-1,73
 604 -674 604 -674 722 -674 c 2,74,-1
 1116 -673 l 2,75,76
 1125 -673 1125 -673 1127 -682 c 0,77,78
 1127 -691 1127 -691 1116 -695 c 0,0,1
EndSplineSet
Substitution2: "Single Substitution lookup 42 subtable" uniFEA2
Substitution2: "Single Substitution lookup 41 subtable" uniFEA3
Substitution2: "Single Substitution lookup 40 subtable" uniFEA2
Substitution2: "Single Substitution lookup 39 subtable" uniFEA3
Substitution2: "'medi' Medial Forms in Arabic lookup 7 subtable" uniFEA4
Substitution2: "'init' Initial Forms in Arabic lookup 6 subtable" uniFEA3
AlternateSubs2: "'fina' Terminal Forms in Arabic lookup 0 subtable" uniFEA2
PairPos2: "Pairwise Positioning (kerning) lookup 32 subtable" _.notdef.001 dx=0 dy=0 dh=0 dv=0 dx=0 dy=300 dh=0 dv=0
PairPos2: "Pairwise Positioning (kerning) lookup 32 subtable" _.notdef.002 dx=0 dy=0 dh=0 dv=0 dx=0 dy=300 dh=0 dv=0
PairPos2: "Pairwise Positioning (kerning) lookup 32 subtable" uni036F dx=0 dy=0 dh=0 dv=0 dx=0 dy=300 dh=0 dv=0
PairPos2: "Pairwise Positioning (kerning) lookup 32 subtable" uni036E dx=0 dy=0 dh=0 dv=0 dx=0 dy=300 dh=0 dv=0
PairPos2: "Pairwise Positioning (kerning) lookup 32 subtable" uni036D dx=0 dy=0 dh=0 dv=0 dx=0 dy=300 dh=0 dv=0
PairPos2: "Pairwise Positioning (kerning) lookup 32 subtable" kasratanisolated dx=0 dy=0 dh=0 dv=0 dx=0 dy=300 dh=0 dv=0
PairPos2: "Pairwise Positioning (kerning) lookup 32 subtable" dammatanisolated dx=0 dy=0 dh=0 dv=0 dx=0 dy=300 dh=0 dv=0
PairPos2: "Pairwise Positioning (kerning) lookup 32 subtable" fathatanisolated dx=0 dy=0 dh=0 dv=0 dx=0 dy=300 dh=0 dv=0
PairPos2: "Pairwise Positioning (kerning) lookup 32 subtable" shaddawithkasratanlow.moved.001 dx=0 dy=0 dh=0 dv=0 dx=0 dy=300 dh=0 dv=0
PairPos2: "Pairwise Positioning (kerning) lookup 32 subtable" shaddawithkasratanlow.moved dx=0 dy=0 dh=0 dv=0 dx=0 dy=300 dh=0 dv=0
PairPos2: "Pairwise Positioning (kerning) lookup 32 subtable" shaddalow_dammatanalignedlow_ga dx=0 dy=0 dh=0 dv=0 dx=0 dy=300 dh=0 dv=0
PairPos2: "Pairwise Positioning (kerning) lookup 32 subtable" _.ndefine1 dx=0 dy=0 dh=0 dv=0 dx=0 dy=300 dh=0 dv=0
PairPos2: "Pairwise Positioning (kerning) lookup 32 subtable" _.ndefine2 dx=0 dy=0 dh=0 dv=0 dx=0 dy=300 dh=0 dv=0
PairPos2: "Pairwise Positioning (kerning) lookup 32 subtable" shaddawithdammatanaligned dx=0 dy=0 dh=0 dv=0 dx=0 dy=300 dh=0 dv=0
PairPos2: "Pairwise Positioning (kerning) lookup 32 subtable" shaddawithdammatanisolatedlow dx=0 dy=0 dh=0 dv=0 dx=0 dy=300 dh=0 dv=0
PairPos2: "Pairwise Positioning (kerning) lookup 32 subtable" shaddawithfathaisolatedlow dx=0 dy=0 dh=0 dv=0 dx=0 dy=300 dh=0 dv=0
PairPos2: "Pairwise Positioning (kerning) lookup 32 subtable" shaddawithdammaisolatedlow dx=0 dy=0 dh=0 dv=0 dx=0 dy=300 dh=0 dv=0
PairPos2: "Pairwise Positioning (kerning) lookup 32 subtable" shaddawithfathatanisolated dx=0 dy=0 dh=0 dv=0 dx=0 dy=300 dh=0 dv=0
PairPos2: "Pairwise Positioning (kerning) lookup 32 subtable" shaddawithfathatanaligned dx=0 dy=0 dh=0 dv=0 dx=0 dy=300 dh=0 dv=0
PairPos2: "Pairwise Positioning (kerning) lookup 32 subtable" uni06EB dx=0 dy=0 dh=0 dv=0 dx=0 dy=300 dh=0 dv=0
PairPos2: "Pairwise Positioning (kerning) lookup 32 subtable" uni06E8 dx=0 dy=0 dh=0 dv=0 dx=0 dy=300 dh=0 dv=0
PairPos2: "Pairwise Positioning (kerning) lookup 32 subtable" uni06E2 dx=0 dy=0 dh=0 dv=0 dx=0 dy=300 dh=0 dv=0
PairPos2: "Pairwise Positioning (kerning) lookup 32 subtable" uni06E1 dx=0 dy=0 dh=0 dv=0 dx=0 dy=300 dh=0 dv=0
PairPos2: "Pairwise Positioning (kerning) lookup 32 subtable" uni06E0 dx=0 dy=0 dh=0 dv=0 dx=0 dy=300 dh=0 dv=0
PairPos2: "Pairwise Positioning (kerning) lookup 32 subtable" uni06DF dx=0 dy=0 dh=0 dv=0 dx=0 dy=300 dh=0 dv=0
PairPos2: "Pairwise Positioning (kerning) lookup 32 subtable" uni065B dx=0 dy=0 dh=0 dv=0 dx=0 dy=300 dh=0 dv=0
PairPos2: "Pairwise Positioning (kerning) lookup 32 subtable" uni065A dx=0 dy=0 dh=0 dv=0 dx=0 dy=300 dh=0 dv=0
PairPos2: "Pairwise Positioning (kerning) lookup 32 subtable" uni0659 dx=0 dy=0 dh=0 dv=0 dx=0 dy=300 dh=0 dv=0
PairPos2: "Pairwise Positioning (kerning) lookup 32 subtable" uni0652 dx=0 dy=0 dh=0 dv=0 dx=0 dy=300 dh=0 dv=0
PairPos2: "Pairwise Positioning (kerning) lookup 32 subtable" uni0651 dx=0 dy=0 dh=0 dv=0 dx=0 dy=300 dh=0 dv=0
PairPos2: "Pairwise Positioning (kerning) lookup 32 subtable" uni0650 dx=0 dy=0 dh=0 dv=0 dx=0 dy=300 dh=0 dv=0
PairPos2: "Pairwise Positioning (kerning) lookup 32 subtable" uni064F dx=0 dy=0 dh=0 dv=0 dx=0 dy=300 dh=0 dv=0
PairPos2: "Pairwise Positioning (kerning) lookup 32 subtable" uni064E dx=0 dy=0 dh=0 dv=0 dx=0 dy=300 dh=0 dv=0
PairPos2: "Pairwise Positioning (kerning) lookup 32 subtable" uni064D dx=0 dy=0 dh=0 dv=0 dx=0 dy=300 dh=0 dv=0
PairPos2: "Pairwise Positioning (kerning) lookup 32 subtable" uni064C dx=0 dy=0 dh=0 dv=0 dx=0 dy=300 dh=0 dv=0
PairPos2: "Pairwise Positioning (kerning) lookup 32 subtable" uni064B dx=0 dy=0 dh=0 dv=0 dx=0 dy=300 dh=0 dv=0
PairPos2: "Pairwise Positioning (kerning) lookup 31 subtable" _.notdef.001 dx=0 dy=0 dh=0 dv=0 dx=0 dy=220 dh=0 dv=0
PairPos2: "Pairwise Positioning (kerning) lookup 31 subtable" _.notdef.002 dx=0 dy=0 dh=0 dv=0 dx=0 dy=220 dh=0 dv=0
PairPos2: "Pairwise Positioning (kerning) lookup 31 subtable" uni036F dx=0 dy=0 dh=0 dv=0 dx=0 dy=220 dh=0 dv=0
PairPos2: "Pairwise Positioning (kerning) lookup 31 subtable" uni036E dx=0 dy=0 dh=0 dv=0 dx=0 dy=220 dh=0 dv=0
PairPos2: "Pairwise Positioning (kerning) lookup 31 subtable" uni036D dx=0 dy=0 dh=0 dv=0 dx=0 dy=220 dh=0 dv=0
PairPos2: "Pairwise Positioning (kerning) lookup 31 subtable" kasratanisolated dx=0 dy=0 dh=0 dv=0 dx=0 dy=220 dh=0 dv=0
PairPos2: "Pairwise Positioning (kerning) lookup 31 subtable" dammatanisolated dx=0 dy=0 dh=0 dv=0 dx=0 dy=220 dh=0 dv=0
PairPos2: "Pairwise Positioning (kerning) lookup 31 subtable" fathatanisolated dx=0 dy=0 dh=0 dv=0 dx=0 dy=220 dh=0 dv=0
PairPos2: "Pairwise Positioning (kerning) lookup 31 subtable" shaddawithkasratanlow.moved.001 dx=0 dy=0 dh=0 dv=0 dx=0 dy=220 dh=0 dv=0
PairPos2: "Pairwise Positioning (kerning) lookup 31 subtable" shaddawithkasratanlow.moved dx=0 dy=0 dh=0 dv=0 dx=0 dy=220 dh=0 dv=0
PairPos2: "Pairwise Positioning (kerning) lookup 31 subtable" shaddalow_dammatanalignedlow_ga dx=0 dy=0 dh=0 dv=0 dx=0 dy=220 dh=0 dv=0
PairPos2: "Pairwise Positioning (kerning) lookup 31 subtable" _.ndefine1 dx=0 dy=0 dh=0 dv=0 dx=0 dy=220 dh=0 dv=0
PairPos2: "Pairwise Positioning (kerning) lookup 31 subtable" _.ndefine2 dx=0 dy=0 dh=0 dv=0 dx=0 dy=220 dh=0 dv=0
PairPos2: "Pairwise Positioning (kerning) lookup 31 subtable" shaddawithdammatanaligned dx=0 dy=0 dh=0 dv=0 dx=0 dy=220 dh=0 dv=0
PairPos2: "Pairwise Positioning (kerning) lookup 31 subtable" shaddawithdammatanisolatedlow dx=0 dy=0 dh=0 dv=0 dx=0 dy=220 dh=0 dv=0
PairPos2: "Pairwise Positioning (kerning) lookup 31 subtable" shaddawithfathaisolatedlow dx=0 dy=0 dh=0 dv=0 dx=0 dy=220 dh=0 dv=0
PairPos2: "Pairwise Positioning (kerning) lookup 31 subtable" shaddawithdammaisolatedlow dx=0 dy=0 dh=0 dv=0 dx=0 dy=220 dh=0 dv=0
PairPos2: "Pairwise Positioning (kerning) lookup 31 subtable" shaddawithfathatanisolated dx=0 dy=0 dh=0 dv=0 dx=0 dy=220 dh=0 dv=0
PairPos2: "Pairwise Positioning (kerning) lookup 31 subtable" shaddawithfathatanaligned dx=0 dy=0 dh=0 dv=0 dx=0 dy=220 dh=0 dv=0
PairPos2: "Pairwise Positioning (kerning) lookup 31 subtable" uni06EB dx=0 dy=0 dh=0 dv=0 dx=0 dy=220 dh=0 dv=0
PairPos2: "Pairwise Positioning (kerning) lookup 31 subtable" uni06E8 dx=0 dy=0 dh=0 dv=0 dx=0 dy=220 dh=0 dv=0
PairPos2: "Pairwise Positioning (kerning) lookup 31 subtable" uni06E2 dx=0 dy=0 dh=0 dv=0 dx=0 dy=220 dh=0 dv=0
PairPos2: "Pairwise Positioning (kerning) lookup 31 subtable" uni06E1 dx=0 dy=0 dh=0 dv=0 dx=0 dy=220 dh=0 dv=0
PairPos2: "Pairwise Positioning (kerning) lookup 31 subtable" uni06E0 dx=0 dy=0 dh=0 dv=0 dx=0 dy=220 dh=0 dv=0
PairPos2: "Pairwise Positioning (kerning) lookup 31 subtable" uni06DF dx=0 dy=0 dh=0 dv=0 dx=0 dy=220 dh=0 dv=0
PairPos2: "Pairwise Positioning (kerning) lookup 31 subtable" uni065B dx=0 dy=0 dh=0 dv=0 dx=0 dy=220 dh=0 dv=0
PairPos2: "Pairwise Positioning (kerning) lookup 31 subtable" uni065A dx=0 dy=0 dh=0 dv=0 dx=0 dy=220 dh=0 dv=0
PairPos2: "Pairwise Positioning (kerning) lookup 31 subtable" uni0659 dx=0 dy=0 dh=0 dv=0 dx=0 dy=220 dh=0 dv=0
PairPos2: "Pairwise Positioning (kerning) lookup 31 subtable" uni0652 dx=0 dy=0 dh=0 dv=0 dx=0 dy=220 dh=0 dv=0
PairPos2: "Pairwise Positioning (kerning) lookup 31 subtable" uni0651 dx=0 dy=0 dh=0 dv=0 dx=0 dy=220 dh=0 dv=0
PairPos2: "Pairwise Positioning (kerning) lookup 31 subtable" uni0650 dx=0 dy=0 dh=0 dv=0 dx=0 dy=220 dh=0 dv=0
PairPos2: "Pairwise Positioning (kerning) lookup 31 subtable" uni064F dx=0 dy=0 dh=0 dv=0 dx=0 dy=220 dh=0 dv=0
PairPos2: "Pairwise Positioning (kerning) lookup 31 subtable" uni064E dx=0 dy=0 dh=0 dv=0 dx=0 dy=220 dh=0 dv=0
PairPos2: "Pairwise Positioning (kerning) lookup 31 subtable" uni064D dx=0 dy=0 dh=0 dv=0 dx=0 dy=220 dh=0 dv=0
PairPos2: "Pairwise Positioning (kerning) lookup 31 subtable" uni064C dx=0 dy=0 dh=0 dv=0 dx=0 dy=220 dh=0 dv=0
PairPos2: "Pairwise Positioning (kerning) lookup 31 subtable" uni064B dx=0 dy=0 dh=0 dv=0 dx=0 dy=220 dh=0 dv=0
PairPos2: "Pairwise Positioning (kerning) lookup 30 subtable" _.notdef.001 dx=0 dy=0 dh=0 dv=0 dx=0 dy=130 dh=0 dv=0
PairPos2: "Pairwise Positioning (kerning) lookup 30 subtable" _.notdef.002 dx=0 dy=0 dh=0 dv=0 dx=0 dy=130 dh=0 dv=0
PairPos2: "Pairwise Positioning (kerning) lookup 30 subtable" uni036F dx=0 dy=0 dh=0 dv=0 dx=0 dy=130 dh=0 dv=0
PairPos2: "Pairwise Positioning (kerning) lookup 30 subtable" uni036E dx=0 dy=0 dh=0 dv=0 dx=0 dy=130 dh=0 dv=0
PairPos2: "Pairwise Positioning (kerning) lookup 30 subtable" uni036D dx=0 dy=0 dh=0 dv=0 dx=0 dy=130 dh=0 dv=0
PairPos2: "Pairwise Positioning (kerning) lookup 30 subtable" kasratanisolated dx=0 dy=0 dh=0 dv=0 dx=0 dy=130 dh=0 dv=0
PairPos2: "Pairwise Positioning (kerning) lookup 30 subtable" dammatanisolated dx=0 dy=0 dh=0 dv=0 dx=0 dy=130 dh=0 dv=0
PairPos2: "Pairwise Positioning (kerning) lookup 30 subtable" fathatanisolated dx=0 dy=0 dh=0 dv=0 dx=0 dy=130 dh=0 dv=0
PairPos2: "Pairwise Positioning (kerning) lookup 30 subtable" shaddawithkasratanlow.moved.001 dx=0 dy=0 dh=0 dv=0 dx=0 dy=130 dh=0 dv=0
PairPos2: "Pairwise Positioning (kerning) lookup 30 subtable" shaddawithkasratanlow.moved dx=0 dy=0 dh=0 dv=0 dx=0 dy=130 dh=0 dv=0
PairPos2: "Pairwise Positioning (kerning) lookup 30 subtable" shaddalow_dammatanalignedlow_ga dx=0 dy=0 dh=0 dv=0 dx=0 dy=130 dh=0 dv=0
PairPos2: "Pairwise Positioning (kerning) lookup 30 subtable" _.ndefine1 dx=0 dy=0 dh=0 dv=0 dx=0 dy=130 dh=0 dv=0
PairPos2: "Pairwise Positioning (kerning) lookup 30 subtable" _.ndefine2 dx=0 dy=0 dh=0 dv=0 dx=0 dy=130 dh=0 dv=0
PairPos2: "Pairwise Positioning (kerning) lookup 30 subtable" shaddawithdammatanaligned dx=0 dy=0 dh=0 dv=0 dx=0 dy=130 dh=0 dv=0
PairPos2: "Pairwise Positioning (kerning) lookup 30 subtable" shaddawithdammatanisolatedlow dx=0 dy=0 dh=0 dv=0 dx=0 dy=130 dh=0 dv=0
PairPos2: "Pairwise Positioning (kerning) lookup 30 subtable" shaddawithfathaisolatedlow dx=0 dy=0 dh=0 dv=0 dx=0 dy=130 dh=0 dv=0
PairPos2: "Pairwise Positioning (kerning) lookup 30 subtable" shaddawithdammaisolatedlow dx=0 dy=0 dh=0 dv=0 dx=0 dy=130 dh=0 dv=0
PairPos2: "Pairwise Positioning (kerning) lookup 30 subtable" shaddawithfathatanisolated dx=0 dy=0 dh=0 dv=0 dx=0 dy=130 dh=0 dv=0
PairPos2: "Pairwise Positioning (kerning) lookup 30 subtable" shaddawithfathatanaligned dx=0 dy=0 dh=0 dv=0 dx=0 dy=130 dh=0 dv=0
PairPos2: "Pairwise Positioning (kerning) lookup 30 subtable" uni06EB dx=0 dy=0 dh=0 dv=0 dx=0 dy=130 dh=0 dv=0
PairPos2: "Pairwise Positioning (kerning) lookup 30 subtable" uni06E8 dx=0 dy=0 dh=0 dv=0 dx=0 dy=130 dh=0 dv=0
PairPos2: "Pairwise Positioning (kerning) lookup 30 subtable" uni06E2 dx=0 dy=0 dh=0 dv=0 dx=0 dy=130 dh=0 dv=0
PairPos2: "Pairwise Positioning (kerning) lookup 30 subtable" uni06E1 dx=0 dy=0 dh=0 dv=0 dx=0 dy=130 dh=0 dv=0
PairPos2: "Pairwise Positioning (kerning) lookup 30 subtable" uni06E0 dx=0 dy=0 dh=0 dv=0 dx=0 dy=130 dh=0 dv=0
PairPos2: "Pairwise Positioning (kerning) lookup 30 subtable" uni06DF dx=0 dy=0 dh=0 dv=0 dx=0 dy=130 dh=0 dv=0
PairPos2: "Pairwise Positioning (kerning) lookup 30 subtable" uni065B dx=0 dy=0 dh=0 dv=0 dx=0 dy=130 dh=0 dv=0
PairPos2: "Pairwise Positioning (kerning) lookup 30 subtable" uni065A dx=0 dy=0 dh=0 dv=0 dx=0 dy=130 dh=0 dv=0
PairPos2: "Pairwise Positioning (kerning) lookup 30 subtable" uni0659 dx=0 dy=0 dh=0 dv=0 dx=0 dy=130 dh=0 dv=0
PairPos2: "Pairwise Positioning (kerning) lookup 30 subtable" uni0652 dx=0 dy=0 dh=0 dv=0 dx=0 dy=130 dh=0 dv=0
PairPos2: "Pairwise Positioning (kerning) lookup 30 subtable" uni0651 dx=0 dy=0 dh=0 dv=0 dx=0 dy=130 dh=0 dv=0
PairPos2: "Pairwise Positioning (kerning) lookup 30 subtable" uni0650 dx=0 dy=0 dh=0 dv=0 dx=0 dy=130 dh=0 dv=0
PairPos2: "Pairwise Positioning (kerning) lookup 30 subtable" uni064F dx=0 dy=0 dh=0 dv=0 dx=0 dy=130 dh=0 dv=0
PairPos2: "Pairwise Positioning (kerning) lookup 30 subtable" uni064E dx=0 dy=0 dh=0 dv=0 dx=0 dy=130 dh=0 dv=0
PairPos2: "Pairwise Positioning (kerning) lookup 30 subtable" uni064D dx=0 dy=0 dh=0 dv=0 dx=0 dy=130 dh=0 dv=0
PairPos2: "Pairwise Positioning (kerning) lookup 30 subtable" uni064C dx=0 dy=0 dh=0 dv=0 dx=0 dy=130 dh=0 dv=0
PairPos2: "Pairwise Positioning (kerning) lookup 30 subtable" uni064B dx=0 dy=0 dh=0 dv=0 dx=0 dy=130 dh=0 dv=0
PairPos2: "Pairwise Positioning (kerning) lookup 29 subtable" _.notdef.001 dx=0 dy=0 dh=0 dv=0 dx=0 dy=220 dh=0 dv=0
PairPos2: "Pairwise Positioning (kerning) lookup 29 subtable" _.notdef.002 dx=0 dy=0 dh=0 dv=0 dx=0 dy=220 dh=0 dv=0
PairPos2: "Pairwise Positioning (kerning) lookup 29 subtable" uni036F dx=0 dy=0 dh=0 dv=0 dx=0 dy=220 dh=0 dv=0
PairPos2: "Pairwise Positioning (kerning) lookup 29 subtable" uni036E dx=0 dy=0 dh=0 dv=0 dx=0 dy=220 dh=0 dv=0
PairPos2: "Pairwise Positioning (kerning) lookup 29 subtable" uni036D dx=0 dy=0 dh=0 dv=0 dx=0 dy=220 dh=0 dv=0
PairPos2: "Pairwise Positioning (kerning) lookup 29 subtable" kasratanisolated dx=0 dy=0 dh=0 dv=0 dx=0 dy=220 dh=0 dv=0
PairPos2: "Pairwise Positioning (kerning) lookup 29 subtable" dammatanisolated dx=0 dy=0 dh=0 dv=0 dx=0 dy=220 dh=0 dv=0
PairPos2: "Pairwise Positioning (kerning) lookup 29 subtable" fathatanisolated dx=0 dy=0 dh=0 dv=0 dx=0 dy=220 dh=0 dv=0
PairPos2: "Pairwise Positioning (kerning) lookup 29 subtable" shaddawithkasratanlow.moved.001 dx=0 dy=0 dh=0 dv=0 dx=0 dy=220 dh=0 dv=0
PairPos2: "Pairwise Positioning (kerning) lookup 29 subtable" shaddawithkasratanlow.moved dx=0 dy=0 dh=0 dv=0 dx=0 dy=220 dh=0 dv=0
PairPos2: "Pairwise Positioning (kerning) lookup 29 subtable" shaddalow_dammatanalignedlow_ga dx=0 dy=0 dh=0 dv=0 dx=0 dy=220 dh=0 dv=0
PairPos2: "Pairwise Positioning (kerning) lookup 29 subtable" _.ndefine1 dx=0 dy=0 dh=0 dv=0 dx=0 dy=220 dh=0 dv=0
PairPos2: "Pairwise Positioning (kerning) lookup 29 subtable" _.ndefine2 dx=0 dy=0 dh=0 dv=0 dx=0 dy=220 dh=0 dv=0
PairPos2: "Pairwise Positioning (kerning) lookup 29 subtable" shaddawithdammatanaligned dx=0 dy=0 dh=0 dv=0 dx=0 dy=220 dh=0 dv=0
PairPos2: "Pairwise Positioning (kerning) lookup 29 subtable" shaddawithdammatanisolatedlow dx=0 dy=0 dh=0 dv=0 dx=0 dy=220 dh=0 dv=0
PairPos2: "Pairwise Positioning (kerning) lookup 29 subtable" shaddawithfathaisolatedlow dx=0 dy=0 dh=0 dv=0 dx=0 dy=220 dh=0 dv=0
PairPos2: "Pairwise Positioning (kerning) lookup 29 subtable" shaddawithdammaisolatedlow dx=0 dy=0 dh=0 dv=0 dx=0 dy=220 dh=0 dv=0
PairPos2: "Pairwise Positioning (kerning) lookup 29 subtable" shaddawithfathatanisolated dx=0 dy=0 dh=0 dv=0 dx=0 dy=220 dh=0 dv=0
PairPos2: "Pairwise Positioning (kerning) lookup 29 subtable" shaddawithfathatanaligned dx=0 dy=0 dh=0 dv=0 dx=0 dy=220 dh=0 dv=0
PairPos2: "Pairwise Positioning (kerning) lookup 29 subtable" uni06EB dx=0 dy=0 dh=0 dv=0 dx=0 dy=220 dh=0 dv=0
PairPos2: "Pairwise Positioning (kerning) lookup 29 subtable" uni06E8 dx=0 dy=0 dh=0 dv=0 dx=0 dy=220 dh=0 dv=0
PairPos2: "Pairwise Positioning (kerning) lookup 29 subtable" uni06E2 dx=0 dy=0 dh=0 dv=0 dx=0 dy=220 dh=0 dv=0
PairPos2: "Pairwise Positioning (kerning) lookup 29 subtable" uni06E1 dx=0 dy=0 dh=0 dv=0 dx=0 dy=220 dh=0 dv=0
PairPos2: "Pairwise Positioning (kerning) lookup 29 subtable" uni06E0 dx=0 dy=0 dh=0 dv=0 dx=0 dy=220 dh=0 dv=0
PairPos2: "Pairwise Positioning (kerning) lookup 29 subtable" uni06DF dx=0 dy=0 dh=0 dv=0 dx=0 dy=220 dh=0 dv=0
PairPos2: "Pairwise Positioning (kerning) lookup 29 subtable" uni065B dx=0 dy=0 dh=0 dv=0 dx=0 dy=220 dh=0 dv=0
PairPos2: "Pairwise Positioning (kerning) lookup 29 subtable" uni065A dx=0 dy=0 dh=0 dv=0 dx=0 dy=220 dh=0 dv=0
PairPos2: "Pairwise Positioning (kerning) lookup 29 subtable" uni0659 dx=0 dy=0 dh=0 dv=0 dx=0 dy=220 dh=0 dv=0
PairPos2: "Pairwise Positioning (kerning) lookup 29 subtable" uni0652 dx=0 dy=0 dh=0 dv=0 dx=0 dy=220 dh=0 dv=0
PairPos2: "Pairwise Positioning (kerning) lookup 29 subtable" uni0651 dx=0 dy=0 dh=0 dv=0 dx=0 dy=220 dh=0 dv=0
PairPos2: "Pairwise Positioning (kerning) lookup 29 subtable" uni0650 dx=0 dy=0 dh=0 dv=0 dx=0 dy=220 dh=0 dv=0
PairPos2: "Pairwise Positioning (kerning) lookup 29 subtable" uni064F dx=0 dy=0 dh=0 dv=0 dx=0 dy=220 dh=0 dv=0
PairPos2: "Pairwise Positioning (kerning) lookup 29 subtable" uni064E dx=0 dy=0 dh=0 dv=0 dx=0 dy=220 dh=0 dv=0
PairPos2: "Pairwise Positioning (kerning) lookup 29 subtable" uni064D dx=0 dy=0 dh=0 dv=0 dx=0 dy=220 dh=0 dv=0
PairPos2: "Pairwise Positioning (kerning) lookup 29 subtable" uni064C dx=0 dy=0 dh=0 dv=0 dx=0 dy=220 dh=0 dv=0
PairPos2: "Pairwise Positioning (kerning) lookup 29 subtable" uni064B dx=0 dy=0 dh=0 dv=0 dx=0 dy=220 dh=0 dv=0
EndChar

StartChar: uni062E
Encoding: 1582 1582 20
Width: 945
GlyphClass: 2
Flags: W
AnchorPoint: "Cursive-30" 810 0 entry 0
AnchorPoint: "Cursive-20" 810 0 entry 0
AnchorPoint: "Cursive-18" 810 0 entry 0
AnchorPoint: "Anchor-2" 385 935 basechar 0
AnchorPoint: "Anchor-1" 513 -342 basechar 0
AnchorPoint: "Anchor-0" 375 885 basechar 0
LayerCount: 2
Back
Fore
SplineSet
430 671 m 0,0,1
 417 639 417 639 376 601 c 0,2,3
 368 593 368 593 362 593 c 0,4,5
 355 593 355 593 347 601 c 0,6,7
 334 615 334 615 317.5 627 c 128,-1,8
 301 639 301 639 281 651.5 c 128,-1,9
 261 664 261 664 266 674 c 0,10,11
 283 701 283 701 297.5 720 c 128,-1,12
 312 739 312 739 330 759 c 0,13,14
 335 764 335 764 342 764 c 256,15,16
 349 764 349 764 360 758 c 0,17,18
 379 748 379 748 392 738.5 c 128,-1,19
 405 729 405 729 418.5 714.5 c 128,-1,20
 432 700 432 700 432 684 c 0,21,22
 432 676 432 676 430 671 c 0,0,1
1136 -695 m 0,23,24
 1129 -697 1129 -697 1031 -720 c 0,25,26
 952 -739 952 -739 901 -751 c 0,27,28
 777 -779 777 -779 675 -788 c 1,29,30
 585 -788 585 -788 530.5 -780.5 c 128,-1,31
 476 -773 476 -773 424 -759 c 0,32,33
 323 -731 323 -731 251.5 -673.5 c 128,-1,34
 180 -616 180 -616 139 -514 c 0,35,36
 110 -440 110 -440 106 -359 c 0,37,38
 102 -298 102 -298 104.5 -267.5 c 128,-1,39
 107 -237 107 -237 114 -194 c 0,40,41
 127 -116 127 -116 176 -15 c 0,42,43
 193 19 193 19 215.5 51.5 c 128,-1,44
 238 84 238 84 270 122 c 0,45,46
 326 189 326 189 370 220 c 0,47,48
 375 223 375 223 370 226.5 c 128,-1,49
 365 230 365 230 334 233 c 0,50,51
 292 234 292 234 266 229 c 128,-1,52
 240 224 240 224 219 210 c 0,53,54
 199 201 199 201 147 146 c 0,55,56
 143 142 143 142 140.5 142 c 128,-1,57
 138 142 138 142 136.5 144 c 128,-1,58
 135 146 135 146 136 153 c 0,59,60
 144 191 144 191 179 250 c 128,-1,61
 214 309 214 309 245 330 c 0,62,63
 261 341 261 341 280 347.5 c 128,-1,64
 299 354 299 354 328 358 c 1,65,66
 375 358 375 358 393 357 c 128,-1,67
 411 356 411 356 459 351 c 2,68,-1
 629 343 l 1,69,-1
 698 343 l 1,70,-1
 757 346 l 1,71,-1
 832 353 l 2,72,73
 845 354 845 354 838 340 c 2,74,-1
 784 242 l 2,75,76
 776 227 776 227 762 228 c 0,77,78
 712 228 712 228 673.5 223 c 128,-1,79
 635 218 635 218 592 207 c 0,80,81
 427 172 427 172 315 54 c 0,82,83
 262 -2 262 -2 222 -82 c 0,84,85
 193 -142 193 -142 181 -210 c 0,86,87
 175 -249 175 -249 175 -286 c 0,88,89
 176 -317 176 -317 179 -345 c 0,90,91
 190 -425 190 -425 230 -487 c 0,92,93
 282 -565 282 -565 381 -612 c 0,94,95
 444 -642 444 -642 534 -658 c 128,-1,96
 624 -674 624 -674 742 -674 c 2,97,-1
 1136 -673 l 2,98,99
 1145 -673 1145 -673 1147 -682 c 0,100,101
 1147 -691 1147 -691 1136 -695 c 0,23,24
EndSplineSet
Substitution2: "Single Substitution lookup 42 subtable" uniFEA6
Substitution2: "Single Substitution lookup 41 subtable" uniFEA7
Substitution2: "Single Substitution lookup 40 subtable" uniFEA6
Substitution2: "Single Substitution lookup 39 subtable" uniFEA7
Substitution2: "'medi' Medial Forms in Arabic lookup 7 subtable" uniFEA8
Substitution2: "'init' Initial Forms in Arabic lookup 6 subtable" uniFEA7
AlternateSubs2: "'fina' Terminal Forms in Arabic lookup 0 subtable" uniFEA6
PairPos2: "Pairwise Positioning (kerning) lookup 32 subtable" _.notdef.001 dx=0 dy=0 dh=0 dv=0 dx=0 dy=300 dh=0 dv=0
PairPos2: "Pairwise Positioning (kerning) lookup 32 subtable" _.notdef.002 dx=0 dy=0 dh=0 dv=0 dx=0 dy=300 dh=0 dv=0
PairPos2: "Pairwise Positioning (kerning) lookup 32 subtable" uni036F dx=0 dy=0 dh=0 dv=0 dx=0 dy=300 dh=0 dv=0
PairPos2: "Pairwise Positioning (kerning) lookup 32 subtable" uni036E dx=0 dy=0 dh=0 dv=0 dx=0 dy=300 dh=0 dv=0
PairPos2: "Pairwise Positioning (kerning) lookup 32 subtable" uni036D dx=0 dy=0 dh=0 dv=0 dx=0 dy=300 dh=0 dv=0
PairPos2: "Pairwise Positioning (kerning) lookup 32 subtable" kasratanisolated dx=0 dy=0 dh=0 dv=0 dx=0 dy=300 dh=0 dv=0
PairPos2: "Pairwise Positioning (kerning) lookup 32 subtable" dammatanisolated dx=0 dy=0 dh=0 dv=0 dx=0 dy=300 dh=0 dv=0
PairPos2: "Pairwise Positioning (kerning) lookup 32 subtable" fathatanisolated dx=0 dy=0 dh=0 dv=0 dx=0 dy=300 dh=0 dv=0
PairPos2: "Pairwise Positioning (kerning) lookup 32 subtable" shaddawithkasratanlow.moved.001 dx=0 dy=0 dh=0 dv=0 dx=0 dy=300 dh=0 dv=0
PairPos2: "Pairwise Positioning (kerning) lookup 32 subtable" shaddawithkasratanlow.moved dx=0 dy=0 dh=0 dv=0 dx=0 dy=300 dh=0 dv=0
PairPos2: "Pairwise Positioning (kerning) lookup 32 subtable" shaddalow_dammatanalignedlow_ga dx=0 dy=0 dh=0 dv=0 dx=0 dy=300 dh=0 dv=0
PairPos2: "Pairwise Positioning (kerning) lookup 32 subtable" _.ndefine1 dx=0 dy=0 dh=0 dv=0 dx=0 dy=300 dh=0 dv=0
PairPos2: "Pairwise Positioning (kerning) lookup 32 subtable" _.ndefine2 dx=0 dy=0 dh=0 dv=0 dx=0 dy=300 dh=0 dv=0
PairPos2: "Pairwise Positioning (kerning) lookup 32 subtable" shaddawithdammatanaligned dx=0 dy=0 dh=0 dv=0 dx=0 dy=300 dh=0 dv=0
PairPos2: "Pairwise Positioning (kerning) lookup 32 subtable" shaddawithdammatanisolatedlow dx=0 dy=0 dh=0 dv=0 dx=0 dy=300 dh=0 dv=0
PairPos2: "Pairwise Positioning (kerning) lookup 32 subtable" shaddawithfathaisolatedlow dx=0 dy=0 dh=0 dv=0 dx=0 dy=300 dh=0 dv=0
PairPos2: "Pairwise Positioning (kerning) lookup 32 subtable" shaddawithdammaisolatedlow dx=0 dy=0 dh=0 dv=0 dx=0 dy=300 dh=0 dv=0
PairPos2: "Pairwise Positioning (kerning) lookup 32 subtable" shaddawithfathatanisolated dx=0 dy=0 dh=0 dv=0 dx=0 dy=300 dh=0 dv=0
PairPos2: "Pairwise Positioning (kerning) lookup 32 subtable" shaddawithfathatanaligned dx=0 dy=0 dh=0 dv=0 dx=0 dy=300 dh=0 dv=0
PairPos2: "Pairwise Positioning (kerning) lookup 32 subtable" uni06EB dx=0 dy=0 dh=0 dv=0 dx=0 dy=300 dh=0 dv=0
PairPos2: "Pairwise Positioning (kerning) lookup 32 subtable" uni06E8 dx=0 dy=0 dh=0 dv=0 dx=0 dy=300 dh=0 dv=0
PairPos2: "Pairwise Positioning (kerning) lookup 32 subtable" uni06E2 dx=0 dy=0 dh=0 dv=0 dx=0 dy=300 dh=0 dv=0
PairPos2: "Pairwise Positioning (kerning) lookup 32 subtable" uni06E1 dx=0 dy=0 dh=0 dv=0 dx=0 dy=300 dh=0 dv=0
PairPos2: "Pairwise Positioning (kerning) lookup 32 subtable" uni06E0 dx=0 dy=0 dh=0 dv=0 dx=0 dy=300 dh=0 dv=0
PairPos2: "Pairwise Positioning (kerning) lookup 32 subtable" uni06DF dx=0 dy=0 dh=0 dv=0 dx=0 dy=300 dh=0 dv=0
PairPos2: "Pairwise Positioning (kerning) lookup 32 subtable" uni065B dx=0 dy=0 dh=0 dv=0 dx=0 dy=300 dh=0 dv=0
PairPos2: "Pairwise Positioning (kerning) lookup 32 subtable" uni065A dx=0 dy=0 dh=0 dv=0 dx=0 dy=300 dh=0 dv=0
PairPos2: "Pairwise Positioning (kerning) lookup 32 subtable" uni0659 dx=0 dy=0 dh=0 dv=0 dx=0 dy=300 dh=0 dv=0
PairPos2: "Pairwise Positioning (kerning) lookup 32 subtable" uni0652 dx=0 dy=0 dh=0 dv=0 dx=0 dy=300 dh=0 dv=0
PairPos2: "Pairwise Positioning (kerning) lookup 32 subtable" uni0651 dx=0 dy=0 dh=0 dv=0 dx=0 dy=300 dh=0 dv=0
PairPos2: "Pairwise Positioning (kerning) lookup 32 subtable" uni0650 dx=0 dy=0 dh=0 dv=0 dx=0 dy=300 dh=0 dv=0
PairPos2: "Pairwise Positioning (kerning) lookup 32 subtable" uni064F dx=0 dy=0 dh=0 dv=0 dx=0 dy=300 dh=0 dv=0
PairPos2: "Pairwise Positioning (kerning) lookup 32 subtable" uni064E dx=0 dy=0 dh=0 dv=0 dx=0 dy=300 dh=0 dv=0
PairPos2: "Pairwise Positioning (kerning) lookup 32 subtable" uni064D dx=0 dy=0 dh=0 dv=0 dx=0 dy=300 dh=0 dv=0
PairPos2: "Pairwise Positioning (kerning) lookup 32 subtable" uni064C dx=0 dy=0 dh=0 dv=0 dx=0 dy=300 dh=0 dv=0
PairPos2: "Pairwise Positioning (kerning) lookup 32 subtable" uni064B dx=0 dy=0 dh=0 dv=0 dx=0 dy=300 dh=0 dv=0
PairPos2: "Pairwise Positioning (kerning) lookup 31 subtable" _.notdef.001 dx=0 dy=0 dh=0 dv=0 dx=0 dy=230 dh=0 dv=0
PairPos2: "Pairwise Positioning (kerning) lookup 31 subtable" _.notdef.002 dx=0 dy=0 dh=0 dv=0 dx=0 dy=230 dh=0 dv=0
PairPos2: "Pairwise Positioning (kerning) lookup 31 subtable" uni036F dx=0 dy=0 dh=0 dv=0 dx=0 dy=230 dh=0 dv=0
PairPos2: "Pairwise Positioning (kerning) lookup 31 subtable" uni036E dx=0 dy=0 dh=0 dv=0 dx=0 dy=230 dh=0 dv=0
PairPos2: "Pairwise Positioning (kerning) lookup 31 subtable" uni036D dx=0 dy=0 dh=0 dv=0 dx=0 dy=230 dh=0 dv=0
PairPos2: "Pairwise Positioning (kerning) lookup 31 subtable" kasratanisolated dx=0 dy=0 dh=0 dv=0 dx=0 dy=230 dh=0 dv=0
PairPos2: "Pairwise Positioning (kerning) lookup 31 subtable" dammatanisolated dx=0 dy=0 dh=0 dv=0 dx=0 dy=230 dh=0 dv=0
PairPos2: "Pairwise Positioning (kerning) lookup 31 subtable" fathatanisolated dx=0 dy=0 dh=0 dv=0 dx=0 dy=230 dh=0 dv=0
PairPos2: "Pairwise Positioning (kerning) lookup 31 subtable" shaddawithkasratanlow.moved.001 dx=0 dy=0 dh=0 dv=0 dx=0 dy=230 dh=0 dv=0
PairPos2: "Pairwise Positioning (kerning) lookup 31 subtable" shaddawithkasratanlow.moved dx=0 dy=0 dh=0 dv=0 dx=0 dy=230 dh=0 dv=0
PairPos2: "Pairwise Positioning (kerning) lookup 31 subtable" shaddalow_dammatanalignedlow_ga dx=0 dy=0 dh=0 dv=0 dx=0 dy=230 dh=0 dv=0
PairPos2: "Pairwise Positioning (kerning) lookup 31 subtable" _.ndefine1 dx=0 dy=0 dh=0 dv=0 dx=0 dy=230 dh=0 dv=0
PairPos2: "Pairwise Positioning (kerning) lookup 31 subtable" _.ndefine2 dx=0 dy=0 dh=0 dv=0 dx=0 dy=230 dh=0 dv=0
PairPos2: "Pairwise Positioning (kerning) lookup 31 subtable" shaddawithdammatanaligned dx=0 dy=0 dh=0 dv=0 dx=0 dy=230 dh=0 dv=0
PairPos2: "Pairwise Positioning (kerning) lookup 31 subtable" shaddawithdammatanisolatedlow dx=0 dy=0 dh=0 dv=0 dx=0 dy=230 dh=0 dv=0
PairPos2: "Pairwise Positioning (kerning) lookup 31 subtable" shaddawithfathaisolatedlow dx=0 dy=0 dh=0 dv=0 dx=0 dy=230 dh=0 dv=0
PairPos2: "Pairwise Positioning (kerning) lookup 31 subtable" shaddawithdammaisolatedlow dx=0 dy=0 dh=0 dv=0 dx=0 dy=230 dh=0 dv=0
PairPos2: "Pairwise Positioning (kerning) lookup 31 subtable" shaddawithfathatanisolated dx=0 dy=0 dh=0 dv=0 dx=0 dy=230 dh=0 dv=0
PairPos2: "Pairwise Positioning (kerning) lookup 31 subtable" shaddawithfathatanaligned dx=0 dy=0 dh=0 dv=0 dx=0 dy=230 dh=0 dv=0
PairPos2: "Pairwise Positioning (kerning) lookup 31 subtable" uni06EB dx=0 dy=0 dh=0 dv=0 dx=0 dy=230 dh=0 dv=0
PairPos2: "Pairwise Positioning (kerning) lookup 31 subtable" uni06E8 dx=0 dy=0 dh=0 dv=0 dx=0 dy=230 dh=0 dv=0
PairPos2: "Pairwise Positioning (kerning) lookup 31 subtable" uni06E2 dx=0 dy=0 dh=0 dv=0 dx=0 dy=230 dh=0 dv=0
PairPos2: "Pairwise Positioning (kerning) lookup 31 subtable" uni06E1 dx=0 dy=0 dh=0 dv=0 dx=0 dy=230 dh=0 dv=0
PairPos2: "Pairwise Positioning (kerning) lookup 31 subtable" uni06E0 dx=0 dy=0 dh=0 dv=0 dx=0 dy=230 dh=0 dv=0
PairPos2: "Pairwise Positioning (kerning) lookup 31 subtable" uni06DF dx=0 dy=0 dh=0 dv=0 dx=0 dy=230 dh=0 dv=0
PairPos2: "Pairwise Positioning (kerning) lookup 31 subtable" uni065B dx=0 dy=0 dh=0 dv=0 dx=0 dy=230 dh=0 dv=0
PairPos2: "Pairwise Positioning (kerning) lookup 31 subtable" uni065A dx=0 dy=0 dh=0 dv=0 dx=0 dy=230 dh=0 dv=0
PairPos2: "Pairwise Positioning (kerning) lookup 31 subtable" uni0659 dx=0 dy=0 dh=0 dv=0 dx=0 dy=230 dh=0 dv=0
PairPos2: "Pairwise Positioning (kerning) lookup 31 subtable" uni0652 dx=0 dy=0 dh=0 dv=0 dx=0 dy=230 dh=0 dv=0
PairPos2: "Pairwise Positioning (kerning) lookup 31 subtable" uni0651 dx=0 dy=0 dh=0 dv=0 dx=0 dy=230 dh=0 dv=0
PairPos2: "Pairwise Positioning (kerning) lookup 31 subtable" uni0650 dx=0 dy=0 dh=0 dv=0 dx=0 dy=230 dh=0 dv=0
PairPos2: "Pairwise Positioning (kerning) lookup 31 subtable" uni064F dx=0 dy=0 dh=0 dv=0 dx=0 dy=230 dh=0 dv=0
PairPos2: "Pairwise Positioning (kerning) lookup 31 subtable" uni064E dx=0 dy=0 dh=0 dv=0 dx=0 dy=230 dh=0 dv=0
PairPos2: "Pairwise Positioning (kerning) lookup 31 subtable" uni064D dx=0 dy=0 dh=0 dv=0 dx=0 dy=230 dh=0 dv=0
PairPos2: "Pairwise Positioning (kerning) lookup 31 subtable" uni064C dx=0 dy=0 dh=0 dv=0 dx=0 dy=230 dh=0 dv=0
PairPos2: "Pairwise Positioning (kerning) lookup 31 subtable" uni064B dx=0 dy=0 dh=0 dv=0 dx=0 dy=230 dh=0 dv=0
PairPos2: "Pairwise Positioning (kerning) lookup 30 subtable" _.notdef.001 dx=0 dy=0 dh=0 dv=0 dx=0 dy=130 dh=0 dv=0
PairPos2: "Pairwise Positioning (kerning) lookup 30 subtable" _.notdef.002 dx=0 dy=0 dh=0 dv=0 dx=0 dy=130 dh=0 dv=0
PairPos2: "Pairwise Positioning (kerning) lookup 30 subtable" uni036F dx=0 dy=0 dh=0 dv=0 dx=0 dy=130 dh=0 dv=0
PairPos2: "Pairwise Positioning (kerning) lookup 30 subtable" uni036E dx=0 dy=0 dh=0 dv=0 dx=0 dy=130 dh=0 dv=0
PairPos2: "Pairwise Positioning (kerning) lookup 30 subtable" uni036D dx=0 dy=0 dh=0 dv=0 dx=0 dy=130 dh=0 dv=0
PairPos2: "Pairwise Positioning (kerning) lookup 30 subtable" kasratanisolated dx=0 dy=0 dh=0 dv=0 dx=0 dy=130 dh=0 dv=0
PairPos2: "Pairwise Positioning (kerning) lookup 30 subtable" dammatanisolated dx=0 dy=0 dh=0 dv=0 dx=0 dy=130 dh=0 dv=0
PairPos2: "Pairwise Positioning (kerning) lookup 30 subtable" fathatanisolated dx=0 dy=0 dh=0 dv=0 dx=0 dy=130 dh=0 dv=0
PairPos2: "Pairwise Positioning (kerning) lookup 30 subtable" shaddawithkasratanlow.moved.001 dx=0 dy=0 dh=0 dv=0 dx=0 dy=130 dh=0 dv=0
PairPos2: "Pairwise Positioning (kerning) lookup 30 subtable" shaddawithkasratanlow.moved dx=0 dy=0 dh=0 dv=0 dx=0 dy=130 dh=0 dv=0
PairPos2: "Pairwise Positioning (kerning) lookup 30 subtable" shaddalow_dammatanalignedlow_ga dx=0 dy=0 dh=0 dv=0 dx=0 dy=130 dh=0 dv=0
PairPos2: "Pairwise Positioning (kerning) lookup 30 subtable" _.ndefine1 dx=0 dy=0 dh=0 dv=0 dx=0 dy=130 dh=0 dv=0
PairPos2: "Pairwise Positioning (kerning) lookup 30 subtable" _.ndefine2 dx=0 dy=0 dh=0 dv=0 dx=0 dy=130 dh=0 dv=0
PairPos2: "Pairwise Positioning (kerning) lookup 30 subtable" shaddawithdammatanaligned dx=0 dy=0 dh=0 dv=0 dx=0 dy=130 dh=0 dv=0
PairPos2: "Pairwise Positioning (kerning) lookup 30 subtable" shaddawithdammatanisolatedlow dx=0 dy=0 dh=0 dv=0 dx=0 dy=130 dh=0 dv=0
PairPos2: "Pairwise Positioning (kerning) lookup 30 subtable" shaddawithfathaisolatedlow dx=0 dy=0 dh=0 dv=0 dx=0 dy=130 dh=0 dv=0
PairPos2: "Pairwise Positioning (kerning) lookup 30 subtable" shaddawithdammaisolatedlow dx=0 dy=0 dh=0 dv=0 dx=0 dy=130 dh=0 dv=0
PairPos2: "Pairwise Positioning (kerning) lookup 30 subtable" shaddawithfathatanisolated dx=0 dy=0 dh=0 dv=0 dx=0 dy=130 dh=0 dv=0
PairPos2: "Pairwise Positioning (kerning) lookup 30 subtable" shaddawithfathatanaligned dx=0 dy=0 dh=0 dv=0 dx=0 dy=130 dh=0 dv=0
PairPos2: "Pairwise Positioning (kerning) lookup 30 subtable" uni06EB dx=0 dy=0 dh=0 dv=0 dx=0 dy=130 dh=0 dv=0
PairPos2: "Pairwise Positioning (kerning) lookup 30 subtable" uni06E8 dx=0 dy=0 dh=0 dv=0 dx=0 dy=130 dh=0 dv=0
PairPos2: "Pairwise Positioning (kerning) lookup 30 subtable" uni06E2 dx=0 dy=0 dh=0 dv=0 dx=0 dy=130 dh=0 dv=0
PairPos2: "Pairwise Positioning (kerning) lookup 30 subtable" uni06E1 dx=0 dy=0 dh=0 dv=0 dx=0 dy=130 dh=0 dv=0
PairPos2: "Pairwise Positioning (kerning) lookup 30 subtable" uni06E0 dx=0 dy=0 dh=0 dv=0 dx=0 dy=130 dh=0 dv=0
PairPos2: "Pairwise Positioning (kerning) lookup 30 subtable" uni06DF dx=0 dy=0 dh=0 dv=0 dx=0 dy=130 dh=0 dv=0
PairPos2: "Pairwise Positioning (kerning) lookup 30 subtable" uni065B dx=0 dy=0 dh=0 dv=0 dx=0 dy=130 dh=0 dv=0
PairPos2: "Pairwise Positioning (kerning) lookup 30 subtable" uni065A dx=0 dy=0 dh=0 dv=0 dx=0 dy=130 dh=0 dv=0
PairPos2: "Pairwise Positioning (kerning) lookup 30 subtable" uni0659 dx=0 dy=0 dh=0 dv=0 dx=0 dy=130 dh=0 dv=0
PairPos2: "Pairwise Positioning (kerning) lookup 30 subtable" uni0652 dx=0 dy=0 dh=0 dv=0 dx=0 dy=130 dh=0 dv=0
PairPos2: "Pairwise Positioning (kerning) lookup 30 subtable" uni0651 dx=0 dy=0 dh=0 dv=0 dx=0 dy=130 dh=0 dv=0
PairPos2: "Pairwise Positioning (kerning) lookup 30 subtable" uni0650 dx=0 dy=0 dh=0 dv=0 dx=0 dy=130 dh=0 dv=0
PairPos2: "Pairwise Positioning (kerning) lookup 30 subtable" uni064F dx=0 dy=0 dh=0 dv=0 dx=0 dy=130 dh=0 dv=0
PairPos2: "Pairwise Positioning (kerning) lookup 30 subtable" uni064E dx=0 dy=0 dh=0 dv=0 dx=0 dy=130 dh=0 dv=0
PairPos2: "Pairwise Positioning (kerning) lookup 30 subtable" uni064D dx=0 dy=0 dh=0 dv=0 dx=0 dy=130 dh=0 dv=0
PairPos2: "Pairwise Positioning (kerning) lookup 30 subtable" uni064C dx=0 dy=0 dh=0 dv=0 dx=0 dy=130 dh=0 dv=0
PairPos2: "Pairwise Positioning (kerning) lookup 30 subtable" uni064B dx=0 dy=0 dh=0 dv=0 dx=0 dy=130 dh=0 dv=0
PairPos2: "Pairwise Positioning (kerning) lookup 29 subtable" _.notdef.001 dx=0 dy=0 dh=0 dv=0 dx=0 dy=220 dh=0 dv=0
PairPos2: "Pairwise Positioning (kerning) lookup 29 subtable" _.notdef.002 dx=0 dy=0 dh=0 dv=0 dx=0 dy=220 dh=0 dv=0
PairPos2: "Pairwise Positioning (kerning) lookup 29 subtable" uni036F dx=0 dy=0 dh=0 dv=0 dx=0 dy=220 dh=0 dv=0
PairPos2: "Pairwise Positioning (kerning) lookup 29 subtable" uni036E dx=0 dy=0 dh=0 dv=0 dx=0 dy=220 dh=0 dv=0
PairPos2: "Pairwise Positioning (kerning) lookup 29 subtable" uni036D dx=0 dy=0 dh=0 dv=0 dx=0 dy=220 dh=0 dv=0
PairPos2: "Pairwise Positioning (kerning) lookup 29 subtable" kasratanisolated dx=0 dy=0 dh=0 dv=0 dx=0 dy=220 dh=0 dv=0
PairPos2: "Pairwise Positioning (kerning) lookup 29 subtable" dammatanisolated dx=0 dy=0 dh=0 dv=0 dx=0 dy=220 dh=0 dv=0
PairPos2: "Pairwise Positioning (kerning) lookup 29 subtable" fathatanisolated dx=0 dy=0 dh=0 dv=0 dx=0 dy=220 dh=0 dv=0
PairPos2: "Pairwise Positioning (kerning) lookup 29 subtable" shaddawithkasratanlow.moved.001 dx=0 dy=0 dh=0 dv=0 dx=0 dy=220 dh=0 dv=0
PairPos2: "Pairwise Positioning (kerning) lookup 29 subtable" shaddawithkasratanlow.moved dx=0 dy=0 dh=0 dv=0 dx=0 dy=220 dh=0 dv=0
PairPos2: "Pairwise Positioning (kerning) lookup 29 subtable" shaddalow_dammatanalignedlow_ga dx=0 dy=0 dh=0 dv=0 dx=0 dy=220 dh=0 dv=0
PairPos2: "Pairwise Positioning (kerning) lookup 29 subtable" _.ndefine1 dx=0 dy=0 dh=0 dv=0 dx=0 dy=220 dh=0 dv=0
PairPos2: "Pairwise Positioning (kerning) lookup 29 subtable" _.ndefine2 dx=0 dy=0 dh=0 dv=0 dx=0 dy=220 dh=0 dv=0
PairPos2: "Pairwise Positioning (kerning) lookup 29 subtable" shaddawithdammatanaligned dx=0 dy=0 dh=0 dv=0 dx=0 dy=220 dh=0 dv=0
PairPos2: "Pairwise Positioning (kerning) lookup 29 subtable" shaddawithdammatanisolatedlow dx=0 dy=0 dh=0 dv=0 dx=0 dy=220 dh=0 dv=0
PairPos2: "Pairwise Positioning (kerning) lookup 29 subtable" shaddawithfathaisolatedlow dx=0 dy=0 dh=0 dv=0 dx=0 dy=220 dh=0 dv=0
PairPos2: "Pairwise Positioning (kerning) lookup 29 subtable" shaddawithdammaisolatedlow dx=0 dy=0 dh=0 dv=0 dx=0 dy=220 dh=0 dv=0
PairPos2: "Pairwise Positioning (kerning) lookup 29 subtable" shaddawithfathatanisolated dx=0 dy=0 dh=0 dv=0 dx=0 dy=220 dh=0 dv=0
PairPos2: "Pairwise Positioning (kerning) lookup 29 subtable" shaddawithfathatanaligned dx=0 dy=0 dh=0 dv=0 dx=0 dy=220 dh=0 dv=0
PairPos2: "Pairwise Positioning (kerning) lookup 29 subtable" uni06EB dx=0 dy=0 dh=0 dv=0 dx=0 dy=220 dh=0 dv=0
PairPos2: "Pairwise Positioning (kerning) lookup 29 subtable" uni06E8 dx=0 dy=0 dh=0 dv=0 dx=0 dy=220 dh=0 dv=0
PairPos2: "Pairwise Positioning (kerning) lookup 29 subtable" uni06E2 dx=0 dy=0 dh=0 dv=0 dx=0 dy=220 dh=0 dv=0
PairPos2: "Pairwise Positioning (kerning) lookup 29 subtable" uni06E1 dx=0 dy=0 dh=0 dv=0 dx=0 dy=220 dh=0 dv=0
PairPos2: "Pairwise Positioning (kerning) lookup 29 subtable" uni06E0 dx=0 dy=0 dh=0 dv=0 dx=0 dy=220 dh=0 dv=0
PairPos2: "Pairwise Positioning (kerning) lookup 29 subtable" uni06DF dx=0 dy=0 dh=0 dv=0 dx=0 dy=220 dh=0 dv=0
PairPos2: "Pairwise Positioning (kerning) lookup 29 subtable" uni065B dx=0 dy=0 dh=0 dv=0 dx=0 dy=220 dh=0 dv=0
PairPos2: "Pairwise Positioning (kerning) lookup 29 subtable" uni065A dx=0 dy=0 dh=0 dv=0 dx=0 dy=220 dh=0 dv=0
PairPos2: "Pairwise Positioning (kerning) lookup 29 subtable" uni0659 dx=0 dy=0 dh=0 dv=0 dx=0 dy=220 dh=0 dv=0
PairPos2: "Pairwise Positioning (kerning) lookup 29 subtable" uni0652 dx=0 dy=0 dh=0 dv=0 dx=0 dy=220 dh=0 dv=0
PairPos2: "Pairwise Positioning (kerning) lookup 29 subtable" uni0651 dx=0 dy=0 dh=0 dv=0 dx=0 dy=220 dh=0 dv=0
PairPos2: "Pairwise Positioning (kerning) lookup 29 subtable" uni0650 dx=0 dy=0 dh=0 dv=0 dx=0 dy=220 dh=0 dv=0
PairPos2: "Pairwise Positioning (kerning) lookup 29 subtable" uni064F dx=0 dy=0 dh=0 dv=0 dx=0 dy=220 dh=0 dv=0
PairPos2: "Pairwise Positioning (kerning) lookup 29 subtable" uni064E dx=0 dy=0 dh=0 dv=0 dx=0 dy=220 dh=0 dv=0
PairPos2: "Pairwise Positioning (kerning) lookup 29 subtable" uni064D dx=0 dy=0 dh=0 dv=0 dx=0 dy=220 dh=0 dv=0
PairPos2: "Pairwise Positioning (kerning) lookup 29 subtable" uni064C dx=0 dy=0 dh=0 dv=0 dx=0 dy=220 dh=0 dv=0
PairPos2: "Pairwise Positioning (kerning) lookup 29 subtable" uni064B dx=0 dy=0 dh=0 dv=0 dx=0 dy=220 dh=0 dv=0
EndChar

StartChar: uni062F
Encoding: 1583 1583 21
Width: 601
GlyphClass: 2
Flags: W
AnchorPoint: "Cursive-30" 579 0 entry 0
AnchorPoint: "Cursive-20" -11 0 exit 0
AnchorPoint: "Cursive-19" -11 0 exit 0
AnchorPoint: "Cursive-18" 579 0 entry 0
AnchorPoint: "Anchor-2" 286 1034 basechar 0
AnchorPoint: "Anchor-1" 270 -15 basechar 0
AnchorPoint: "Anchor-0" 285 765 basechar 0
LayerCount: 2
Back
Fore
SplineSet
592 227 m 2,0,1
 589 197 589 197 585.5 176.5 c 128,-1,2
 582 156 582 156 576 133 c 0,3,4
 562 92 562 92 528 68.5 c 128,-1,5
 494 45 494 45 413 22 c 0,6,7
 362 8 362 8 302 2 c 0,8,9
 276 -1 276 -1 251 -1 c 256,10,11
 226 -1 226 -1 197 0.5 c 128,-1,12
 168 2 168 2 146 8.5 c 128,-1,13
 124 15 124 15 111 26 c 128,-1,14
 98 37 98 37 98 60 c 0,15,16
 98 71 98 71 101 86 c 0,17,18
 115 145 115 145 128 173 c 0,19,20
 132 180 132 180 141.5 174 c 128,-1,21
 151 168 151 168 174 162 c 0,22,23
 217 154 217 154 266 154 c 0,24,25
 293 154 293 154 327.5 157.5 c 128,-1,26
 362 161 362 161 391.5 168.5 c 128,-1,27
 421 176 421 176 444 187 c 0,28,29
 489 208 489 208 493 238 c 0,30,31
 493 250 493 250 482.5 269 c 128,-1,32
 472 288 472 288 446.5 317 c 128,-1,33
 421 346 421 346 370 389 c 2,34,-1
 286 454 l 2,35,36
 271 468 271 468 271 488 c 0,37,38
 271 506 271 506 282.5 530 c 128,-1,39
 294 554 294 554 306.5 575 c 128,-1,40
 319 596 319 596 325 597 c 0,41,42
 339 602 339 602 424 528 c 0,43,44
 471 485 471 485 515 427 c 0,45,46
 548 384 548 384 573 331 c 0,47,48
 593 283 593 283 593 243 c 2,49,-1
 592 227 l 2,0,1
EndSplineSet
Substitution2: "Single Substitution lookup 42 subtable" uniFEAA
Substitution2: "Single Substitution lookup 40 subtable" uniFEAA
AlternateSubs2: "'fina' Terminal Forms in Arabic lookup 0 subtable" uniFEAA
PairPos2: "'kern' Horizontal Kerning in Arabic lookup 13 subtable" uni062C dx=0 dy=0 dh=0 dv=0 dx=0 dy=230 dh=0 dv=0
EndChar

StartChar: uni0630
Encoding: 1584 1584 22
Width: 601
GlyphClass: 2
Flags: W
AnchorPoint: "Cursive-30" 601 0 entry 0
AnchorPoint: "Anchor-29" 330 979 basechar 0
AnchorPoint: "Anchor-28" 341 1210 basechar 0
AnchorPoint: "Cursive-20" 0 0 exit 0
AnchorPoint: "Cursive-19" 0 0 exit 0
AnchorPoint: "Cursive-18" 601 0 entry 0
AnchorPoint: "Anchor-2" 231 1155 basechar 0
AnchorPoint: "Anchor-1" 255 -30 basechar 0
AnchorPoint: "Anchor-0" 270 1035 basechar 0
LayerCount: 2
Back
Fore
SplineSet
356 779 m 0,0,1
 341 745 341 745 301 707 c 0,2,3
 295 701 295 701 287 701 c 0,4,5
 281 701 281 701 271 709 c 0,6,7
 244 736 244 736 205 760 c 0,8,9
 186 769 186 769 191 781 c 0,10,11
 209 808 209 808 224 828.5 c 128,-1,12
 239 849 239 849 255 867 c 0,13,14
 260 872 260 872 266 872 c 0,15,16
 273 872 273 872 285 866 c 0,17,18
 318 847 318 847 344 821 c 0,19,20
 358 807 358 807 358 791 c 0,21,22
 358 787 358 787 356 779 c 0,0,1
592 227 m 2,23,24
 589 197 589 197 585.5 176.5 c 128,-1,25
 582 156 582 156 576 133 c 0,26,27
 562 92 562 92 528 68.5 c 128,-1,28
 494 45 494 45 413 22 c 0,29,30
 362 8 362 8 302 2 c 0,31,32
 276 -1 276 -1 251 -1 c 256,33,34
 226 -1 226 -1 197 0.5 c 128,-1,35
 168 2 168 2 146 8.5 c 128,-1,36
 124 15 124 15 111 26 c 128,-1,37
 98 37 98 37 98 60 c 0,38,39
 98 71 98 71 101 86 c 0,40,41
 115 145 115 145 128 173 c 0,42,43
 132 180 132 180 141.5 174 c 128,-1,44
 151 168 151 168 174 162 c 0,45,46
 217 154 217 154 266 154 c 0,47,48
 293 154 293 154 327.5 157.5 c 128,-1,49
 362 161 362 161 391.5 168.5 c 128,-1,50
 421 176 421 176 444 187 c 0,51,52
 489 208 489 208 493 238 c 0,53,54
 493 250 493 250 482.5 269 c 128,-1,55
 472 288 472 288 446.5 317 c 128,-1,56
 421 346 421 346 370 389 c 2,57,-1
 286 454 l 2,58,59
 271 468 271 468 271 488 c 0,60,61
 271 506 271 506 282.5 530 c 128,-1,62
 294 554 294 554 306.5 575 c 128,-1,63
 319 596 319 596 325 597 c 0,64,65
 339 602 339 602 424 528 c 0,66,67
 471 485 471 485 515 427 c 0,68,69
 548 384 548 384 573 331 c 0,70,71
 593 283 593 283 593 243 c 2,72,-1
 592 227 l 2,23,24
EndSplineSet
Substitution2: "Single Substitution lookup 42 subtable" uniFEAC
Substitution2: "Single Substitution lookup 40 subtable" uniFEAC
AlternateSubs2: "'fina' Terminal Forms in Arabic lookup 0 subtable" uniFEAC
PairPos2: "'kern' Horizontal Kerning in Arabic lookup 13 subtable" uni062C dx=0 dy=0 dh=0 dv=0 dx=0 dy=230 dh=0 dv=0
EndChar

StartChar: uni0631
Encoding: 1585 1585 23
Width: 683
GlyphClass: 2
Flags: W
AnchorPoint: "Cursive-30" 744 0 entry 0
AnchorPoint: "Anchor-29" 440 484 basechar 0
AnchorPoint: "Anchor-28" 440 484 basechar 0
AnchorPoint: "Cursive-20" 209 0 exit 0
AnchorPoint: "Cursive-18" 209 0 exit 0
AnchorPoint: "Cursive-18" 744 0 entry 0
AnchorPoint: "Anchor-2" 374 726 basechar 0
AnchorPoint: "Anchor-1" 225 -347 basechar 0
AnchorPoint: "Anchor-0" 480 705 basechar 0
LayerCount: 2
Back
Fore
SplineSet
657 7.5 m 128,-1,1
 641 -47 641 -47 620 -92 c 0,2,3
 592 -157 592 -157 548 -217 c 0,4,5
 526 -248 526 -248 503.5 -269.5 c 128,-1,6
 481 -291 481 -291 450.5 -309.5 c 128,-1,7
 420 -328 420 -328 379.5 -335 c 128,-1,8
 339 -342 339 -342 287 -342 c 0,9,10
 239 -342 239 -342 201.5 -336.5 c 128,-1,11
 164 -331 164 -331 101.5 -317.5 c 128,-1,12
 39 -304 39 -304 12.5 -295 c 128,-1,13
 -14 -286 -14 -286 -12 -279 c 0,14,15
 -13 -269 -13 -269 44 -276 c 1,16,-1
 105 -278 l 1,17,-1
 179 -276 l 1,18,19
 282 -266 282 -266 348 -228 c 0,20,21
 386 -208 386 -208 418.5 -181 c 128,-1,22
 451 -154 451 -154 484 -114 c 0,23,24
 609 31 609 31 609 105 c 0,25,26
 609 133 609 133 567 172 c 2,27,-1
 500 231 l 2,28,29
 487 242 487 242 487 259 c 0,30,31
 487 263 487 263 490 277 c 128,-1,32
 493 291 493 291 498 311.5 c 128,-1,33
 503 332 503 332 511 359 c 0,34,35
 516 373 516 373 526 373 c 256,36,37
 536 373 536 373 553 358 c 0,38,39
 576 335 576 335 592.5 314.5 c 128,-1,40
 609 294 609 294 626 268 c 0,41,42
 653 224 653 224 666 174 c 0,43,44
 671 157 671 157 672 109.5 c 128,-1,0
 673 62 673 62 657 7.5 c 128,-1,1
EndSplineSet
Substitution2: "Single Substitution lookup 42 subtable" uniFEAE
Substitution2: "Single Substitution lookup 40 subtable" uniFEAE
AlternateSubs2: "'fina' Terminal Forms in Arabic lookup 0 subtable" uniFEAE
PairPos2: "Pairwise Positioning (kerning) lookup 4 subtable" uni065F dx=0 dy=0 dh=0 dv=0 dx=320 dy=0 dh=0 dv=0
EndChar

StartChar: uni0632
Encoding: 1586 1586 24
Width: 677
GlyphClass: 2
Flags: W
AnchorPoint: "Cursive-30" 755 0 entry 0
AnchorPoint: "Anchor-29" 77 506 basechar 0
AnchorPoint: "Anchor-28" 418 1200 basechar 0
AnchorPoint: "Cursive-20" 121 0 exit 0
AnchorPoint: "Cursive-18" 121 0 exit 0
AnchorPoint: "Cursive-18" 755 0 entry 0
AnchorPoint: "Anchor-2" 319 957 basechar 0
AnchorPoint: "Anchor-1" 225 -385 basechar 0
AnchorPoint: "Anchor-0" 435 900 basechar 0
LayerCount: 2
Back
Fore
SplineSet
515 592 m 0,0,1
 500 560 500 560 461 522 c 0,2,3
 454 515 454 515 447 515 c 256,4,5
 440 515 440 515 430.5 525 c 128,-1,6
 421 535 421 535 402 549.5 c 128,-1,7
 383 564 383 564 365 575 c 0,8,9
 346 584 346 584 350 596 c 0,10,11
 358 607 358 607 383 642 c 0,12,13
 402 669 402 669 414 682 c 0,14,15
 417 686 417 686 425 686 c 256,16,17
 433 686 433 686 446.5 679 c 128,-1,18
 460 672 460 672 474.5 661.5 c 128,-1,19
 489 651 489 651 503 637 c 128,-1,20
 517 623 517 623 517 606 c 0,21,22
 517 597 517 597 515 592 c 0,0,1
658 6.5 m 128,-1,24
 642 -48 642 -48 621 -93 c 0,25,26
 593 -158 593 -158 549 -218 c 0,27,28
 527 -249 527 -249 504.5 -270.5 c 128,-1,29
 482 -292 482 -292 451.5 -310.5 c 128,-1,30
 421 -329 421 -329 380.5 -336 c 128,-1,31
 340 -343 340 -343 288 -343 c 0,32,33
 240 -343 240 -343 202.5 -337.5 c 128,-1,34
 165 -332 165 -332 102.5 -318.5 c 128,-1,35
 40 -305 40 -305 13.5 -296 c 128,-1,36
 -13 -287 -13 -287 -11 -280 c 0,37,38
 -12 -270 -12 -270 45 -277 c 1,39,-1
 106 -279 l 1,40,-1
 180 -277 l 1,41,42
 283 -267 283 -267 349 -229 c 0,43,44
 387 -209 387 -209 419.5 -182 c 128,-1,45
 452 -155 452 -155 485 -115 c 0,46,47
 610 30 610 30 610 104 c 0,48,49
 610 132 610 132 568 171 c 2,50,-1
 501 230 l 2,51,52
 488 241 488 241 488 258 c 0,53,54
 488 262 488 262 491 276 c 128,-1,55
 494 290 494 290 499 310.5 c 128,-1,56
 504 331 504 331 512 358 c 0,57,58
 517 372 517 372 527 372 c 256,59,60
 537 372 537 372 554 357 c 0,61,62
 577 334 577 334 593.5 313.5 c 128,-1,63
 610 293 610 293 627 267 c 0,64,65
 654 223 654 223 667 173 c 0,66,67
 672 156 672 156 673 108.5 c 128,-1,23
 674 61 674 61 658 6.5 c 128,-1,24
EndSplineSet
Substitution2: "Single Substitution lookup 42 subtable" uniFEB0
Substitution2: "Single Substitution lookup 40 subtable" uniFEB0
AlternateSubs2: "'fina' Terminal Forms in Arabic lookup 0 subtable" uniFEB0
PairPos2: "Pairwise Positioning (kerning) lookup 4 subtable" uni065F dx=0 dy=0 dh=0 dv=0 dx=140 dy=135 dh=0 dv=0
EndChar

StartChar: uni0633
Encoding: 1587 1587 25
Width: 1394
GlyphClass: 2
Flags: W
AnchorPoint: "Cursive-30" 1393 0 entry 0
AnchorPoint: "Cursive-20" 1393 0 entry 0
AnchorPoint: "Cursive-18" 1393 0 entry 0
AnchorPoint: "Anchor-2" 583 880 basechar 0
AnchorPoint: "Anchor-1" 1095 -120 basechar 0
AnchorPoint: "Anchor-0" 990 615 basechar 0
LayerCount: 2
Back
Fore
SplineSet
1390 181 m 128,-1,1
 1385 144 1385 144 1379 122 c 128,-1,2
 1373 100 1373 100 1363 77 c 0,3,4
 1345 38 1345 38 1313 19 c 0,5,6
 1287 5 1287 5 1241 1 c 0,7,8
 1217 1 1217 1 1195.5 3 c 128,-1,9
 1174 5 1174 5 1146 13 c 0,10,11
 1135 15 1135 15 1122.5 20.5 c 128,-1,12
 1110 26 1110 26 1097 34 c 1,13,14
 1068 11 1068 11 1050.5 0 c 128,-1,15
 1033 -11 1033 -11 1016.5 -19.5 c 128,-1,16
 1000 -28 1000 -28 978 -36 c 128,-1,17
 956 -44 956 -44 933 -47.5 c 128,-1,18
 910 -51 910 -51 850 -52 c 1,19,-1
 850 -111 l 1,20,-1
 848 -156 l 1,21,22
 836 -283 836 -283 751 -353 c 0,23,24
 722 -376 722 -376 683 -395 c 128,-1,25
 644 -414 644 -414 595 -430 c 0,26,27
 550 -443 550 -443 507.5 -449.5 c 128,-1,28
 465 -456 465 -456 408 -456 c 0,29,30
 346 -456 346 -456 289.5 -439.5 c 128,-1,31
 233 -423 233 -423 196 -396 c 0,32,33
 93 -320 93 -320 93 -181 c 0,34,35
 96 -113 96 -113 111 -70.5 c 128,-1,36
 126 -28 126 -28 143 4 c 0,37,38
 190 91 190 91 205 106 c 0,39,40
 217 113 217 113 217 98 c 1,41,-1
 207 75 l 2,42,43
 182 24 182 24 162 -49 c 0,44,45
 155 -79 155 -79 155 -108 c 2,46,-1
 156 -131 l 2,47,48
 160 -159 160 -159 167.5 -177 c 128,-1,49
 175 -195 175 -195 189 -213 c 0,50,51
 224 -257 224 -257 273 -279 c 0,52,53
 307 -295 307 -295 349 -301.5 c 128,-1,54
 391 -308 391 -308 446 -308 c 0,55,56
 515 -308 515 -308 571 -295.5 c 128,-1,57
 627 -283 627 -283 674 -261 c 128,-1,58
 721 -239 721 -239 755 -215 c 0,59,60
 780 -196 780 -196 780 -152 c 0,61,62
 780 -96 780 -96 753 -37 c 0,63,64
 726 25 726 25 676 92 c 0,65,66
 663 109 663 109 654.5 124.5 c 128,-1,67
 646 140 646 140 650 167 c 0,68,69
 654 190 654 190 662.5 211 c 128,-1,70
 671 232 671 232 687 257 c 0,71,72
 700 278 700 278 708 273 c 0,73,74
 718 263 718 263 740 233 c 128,-1,75
 762 203 762 203 813 121 c 0,76,77
 823 103 823 103 837 101 c 0,78,79
 862 95 862 95 925 109 c 0,80,81
 998 128 998 128 1041 164 c 0,82,83
 1089 204 1089 204 1118 249 c 0,84,85
 1150 301 1150 301 1160 301 c 0,86,87
 1175 301 1175 301 1175 267 c 0,88,89
 1169 200 1169 200 1155 164 c 1,90,91
 1171 159 1171 159 1220 148 c 0,92,93
 1245 142 1245 142 1279 137 c 1,94,95
 1322 141 1322 141 1318 180 c 0,96,97
 1315 198 1315 198 1292 243 c 0,98,99
 1273 280 1273 280 1273 291 c 0,100,101
 1273 310 1273 310 1297.5 357 c 128,-1,102
 1322 404 1322 404 1334 410 c 256,103,104
 1346 416 1346 416 1358 391.5 c 128,-1,105
 1370 367 1370 367 1379 333.5 c 128,-1,106
 1388 300 1388 300 1391.5 259 c 128,-1,0
 1395 218 1395 218 1390 181 c 128,-1,1
EndSplineSet
Substitution2: "Single Substitution lookup 42 subtable" uniFEB2
Substitution2: "Single Substitution lookup 41 subtable" uniFEB3
Substitution2: "Single Substitution lookup 40 subtable" uniFEB2
Substitution2: "Single Substitution lookup 39 subtable" uniFEB3
Substitution2: "'medi' Medial Forms in Arabic lookup 7 subtable" uniFEB4
Substitution2: "'init' Initial Forms in Arabic lookup 6 subtable" uniFEB3
AlternateSubs2: "'fina' Terminal Forms in Arabic lookup 0 subtable" uniFEB2
PairPos2: "Pairwise Positioning (kerning) lookup 32 subtable" _.notdef.001 dx=0 dy=0 dh=0 dv=0 dx=0 dy=200 dh=0 dv=0
PairPos2: "Pairwise Positioning (kerning) lookup 32 subtable" _.notdef.002 dx=0 dy=0 dh=0 dv=0 dx=0 dy=200 dh=0 dv=0
PairPos2: "Pairwise Positioning (kerning) lookup 32 subtable" uni036F dx=0 dy=0 dh=0 dv=0 dx=0 dy=200 dh=0 dv=0
PairPos2: "Pairwise Positioning (kerning) lookup 32 subtable" uni036E dx=0 dy=0 dh=0 dv=0 dx=0 dy=200 dh=0 dv=0
PairPos2: "Pairwise Positioning (kerning) lookup 32 subtable" uni036D dx=0 dy=0 dh=0 dv=0 dx=0 dy=200 dh=0 dv=0
PairPos2: "Pairwise Positioning (kerning) lookup 32 subtable" kasratanisolated dx=0 dy=0 dh=0 dv=0 dx=0 dy=200 dh=0 dv=0
PairPos2: "Pairwise Positioning (kerning) lookup 32 subtable" dammatanisolated dx=0 dy=0 dh=0 dv=0 dx=0 dy=200 dh=0 dv=0
PairPos2: "Pairwise Positioning (kerning) lookup 32 subtable" fathatanisolated dx=0 dy=0 dh=0 dv=0 dx=0 dy=200 dh=0 dv=0
PairPos2: "Pairwise Positioning (kerning) lookup 32 subtable" shaddawithkasratanlow.moved.001 dx=0 dy=0 dh=0 dv=0 dx=0 dy=200 dh=0 dv=0
PairPos2: "Pairwise Positioning (kerning) lookup 32 subtable" shaddawithkasratanlow.moved dx=0 dy=0 dh=0 dv=0 dx=0 dy=200 dh=0 dv=0
PairPos2: "Pairwise Positioning (kerning) lookup 32 subtable" shaddalow_dammatanalignedlow_ga dx=0 dy=0 dh=0 dv=0 dx=0 dy=200 dh=0 dv=0
PairPos2: "Pairwise Positioning (kerning) lookup 32 subtable" _.ndefine1 dx=0 dy=0 dh=0 dv=0 dx=0 dy=200 dh=0 dv=0
PairPos2: "Pairwise Positioning (kerning) lookup 32 subtable" _.ndefine2 dx=0 dy=0 dh=0 dv=0 dx=0 dy=200 dh=0 dv=0
PairPos2: "Pairwise Positioning (kerning) lookup 32 subtable" shaddawithdammatanaligned dx=0 dy=0 dh=0 dv=0 dx=0 dy=200 dh=0 dv=0
PairPos2: "Pairwise Positioning (kerning) lookup 32 subtable" shaddawithdammatanisolatedlow dx=0 dy=0 dh=0 dv=0 dx=0 dy=200 dh=0 dv=0
PairPos2: "Pairwise Positioning (kerning) lookup 32 subtable" shaddawithfathaisolatedlow dx=0 dy=0 dh=0 dv=0 dx=0 dy=200 dh=0 dv=0
PairPos2: "Pairwise Positioning (kerning) lookup 32 subtable" shaddawithdammaisolatedlow dx=0 dy=0 dh=0 dv=0 dx=0 dy=200 dh=0 dv=0
PairPos2: "Pairwise Positioning (kerning) lookup 32 subtable" shaddawithfathatanisolated dx=0 dy=0 dh=0 dv=0 dx=0 dy=200 dh=0 dv=0
PairPos2: "Pairwise Positioning (kerning) lookup 32 subtable" shaddawithfathatanaligned dx=0 dy=0 dh=0 dv=0 dx=0 dy=200 dh=0 dv=0
PairPos2: "Pairwise Positioning (kerning) lookup 32 subtable" uni06EB dx=0 dy=0 dh=0 dv=0 dx=0 dy=200 dh=0 dv=0
PairPos2: "Pairwise Positioning (kerning) lookup 32 subtable" uni06E8 dx=0 dy=0 dh=0 dv=0 dx=0 dy=200 dh=0 dv=0
PairPos2: "Pairwise Positioning (kerning) lookup 32 subtable" uni06E2 dx=0 dy=0 dh=0 dv=0 dx=0 dy=200 dh=0 dv=0
PairPos2: "Pairwise Positioning (kerning) lookup 32 subtable" uni06E1 dx=0 dy=0 dh=0 dv=0 dx=0 dy=200 dh=0 dv=0
PairPos2: "Pairwise Positioning (kerning) lookup 32 subtable" uni06E0 dx=0 dy=0 dh=0 dv=0 dx=0 dy=200 dh=0 dv=0
PairPos2: "Pairwise Positioning (kerning) lookup 32 subtable" uni06DF dx=0 dy=0 dh=0 dv=0 dx=0 dy=200 dh=0 dv=0
PairPos2: "Pairwise Positioning (kerning) lookup 32 subtable" uni065B dx=0 dy=0 dh=0 dv=0 dx=0 dy=200 dh=0 dv=0
PairPos2: "Pairwise Positioning (kerning) lookup 32 subtable" uni065A dx=0 dy=0 dh=0 dv=0 dx=0 dy=200 dh=0 dv=0
PairPos2: "Pairwise Positioning (kerning) lookup 32 subtable" uni0659 dx=0 dy=0 dh=0 dv=0 dx=0 dy=200 dh=0 dv=0
PairPos2: "Pairwise Positioning (kerning) lookup 32 subtable" uni0652 dx=0 dy=0 dh=0 dv=0 dx=0 dy=200 dh=0 dv=0
PairPos2: "Pairwise Positioning (kerning) lookup 32 subtable" uni0651 dx=0 dy=0 dh=0 dv=0 dx=0 dy=200 dh=0 dv=0
PairPos2: "Pairwise Positioning (kerning) lookup 32 subtable" uni0650 dx=0 dy=0 dh=0 dv=0 dx=0 dy=200 dh=0 dv=0
PairPos2: "Pairwise Positioning (kerning) lookup 32 subtable" uni064F dx=0 dy=0 dh=0 dv=0 dx=0 dy=200 dh=0 dv=0
PairPos2: "Pairwise Positioning (kerning) lookup 32 subtable" uni064E dx=0 dy=0 dh=0 dv=0 dx=0 dy=200 dh=0 dv=0
PairPos2: "Pairwise Positioning (kerning) lookup 32 subtable" uni064D dx=0 dy=0 dh=0 dv=0 dx=0 dy=200 dh=0 dv=0
PairPos2: "Pairwise Positioning (kerning) lookup 32 subtable" uni064C dx=0 dy=0 dh=0 dv=0 dx=0 dy=200 dh=0 dv=0
PairPos2: "Pairwise Positioning (kerning) lookup 32 subtable" uni064B dx=0 dy=0 dh=0 dv=0 dx=0 dy=200 dh=0 dv=0
PairPos2: "Pairwise Positioning (kerning) lookup 31 subtable" _.notdef.001 dx=0 dy=0 dh=0 dv=0 dx=0 dy=150 dh=0 dv=0
PairPos2: "Pairwise Positioning (kerning) lookup 31 subtable" _.notdef.002 dx=0 dy=0 dh=0 dv=0 dx=0 dy=150 dh=0 dv=0
PairPos2: "Pairwise Positioning (kerning) lookup 31 subtable" uni036F dx=0 dy=0 dh=0 dv=0 dx=0 dy=150 dh=0 dv=0
PairPos2: "Pairwise Positioning (kerning) lookup 31 subtable" uni036E dx=0 dy=0 dh=0 dv=0 dx=0 dy=150 dh=0 dv=0
PairPos2: "Pairwise Positioning (kerning) lookup 31 subtable" uni036D dx=0 dy=0 dh=0 dv=0 dx=0 dy=150 dh=0 dv=0
PairPos2: "Pairwise Positioning (kerning) lookup 31 subtable" kasratanisolated dx=0 dy=0 dh=0 dv=0 dx=0 dy=150 dh=0 dv=0
PairPos2: "Pairwise Positioning (kerning) lookup 31 subtable" dammatanisolated dx=0 dy=0 dh=0 dv=0 dx=0 dy=150 dh=0 dv=0
PairPos2: "Pairwise Positioning (kerning) lookup 31 subtable" fathatanisolated dx=0 dy=0 dh=0 dv=0 dx=0 dy=150 dh=0 dv=0
PairPos2: "Pairwise Positioning (kerning) lookup 31 subtable" shaddawithkasratanlow.moved.001 dx=0 dy=0 dh=0 dv=0 dx=0 dy=150 dh=0 dv=0
PairPos2: "Pairwise Positioning (kerning) lookup 31 subtable" shaddawithkasratanlow.moved dx=0 dy=0 dh=0 dv=0 dx=0 dy=150 dh=0 dv=0
PairPos2: "Pairwise Positioning (kerning) lookup 31 subtable" shaddalow_dammatanalignedlow_ga dx=0 dy=0 dh=0 dv=0 dx=0 dy=150 dh=0 dv=0
PairPos2: "Pairwise Positioning (kerning) lookup 31 subtable" _.ndefine1 dx=0 dy=0 dh=0 dv=0 dx=0 dy=150 dh=0 dv=0
PairPos2: "Pairwise Positioning (kerning) lookup 31 subtable" _.ndefine2 dx=0 dy=0 dh=0 dv=0 dx=0 dy=150 dh=0 dv=0
PairPos2: "Pairwise Positioning (kerning) lookup 31 subtable" shaddawithdammatanaligned dx=0 dy=0 dh=0 dv=0 dx=0 dy=150 dh=0 dv=0
PairPos2: "Pairwise Positioning (kerning) lookup 31 subtable" shaddawithdammatanisolatedlow dx=0 dy=0 dh=0 dv=0 dx=0 dy=150 dh=0 dv=0
PairPos2: "Pairwise Positioning (kerning) lookup 31 subtable" shaddawithfathaisolatedlow dx=0 dy=0 dh=0 dv=0 dx=0 dy=150 dh=0 dv=0
PairPos2: "Pairwise Positioning (kerning) lookup 31 subtable" shaddawithdammaisolatedlow dx=0 dy=0 dh=0 dv=0 dx=0 dy=150 dh=0 dv=0
PairPos2: "Pairwise Positioning (kerning) lookup 31 subtable" shaddawithfathatanisolated dx=0 dy=0 dh=0 dv=0 dx=0 dy=150 dh=0 dv=0
PairPos2: "Pairwise Positioning (kerning) lookup 31 subtable" shaddawithfathatanaligned dx=0 dy=0 dh=0 dv=0 dx=0 dy=150 dh=0 dv=0
PairPos2: "Pairwise Positioning (kerning) lookup 31 subtable" uni06EB dx=0 dy=0 dh=0 dv=0 dx=0 dy=150 dh=0 dv=0
PairPos2: "Pairwise Positioning (kerning) lookup 31 subtable" uni06E8 dx=0 dy=0 dh=0 dv=0 dx=0 dy=150 dh=0 dv=0
PairPos2: "Pairwise Positioning (kerning) lookup 31 subtable" uni06E2 dx=0 dy=0 dh=0 dv=0 dx=0 dy=150 dh=0 dv=0
PairPos2: "Pairwise Positioning (kerning) lookup 31 subtable" uni06E1 dx=0 dy=0 dh=0 dv=0 dx=0 dy=150 dh=0 dv=0
PairPos2: "Pairwise Positioning (kerning) lookup 31 subtable" uni06E0 dx=0 dy=0 dh=0 dv=0 dx=0 dy=150 dh=0 dv=0
PairPos2: "Pairwise Positioning (kerning) lookup 31 subtable" uni06DF dx=0 dy=0 dh=0 dv=0 dx=0 dy=150 dh=0 dv=0
PairPos2: "Pairwise Positioning (kerning) lookup 31 subtable" uni065B dx=0 dy=0 dh=0 dv=0 dx=0 dy=150 dh=0 dv=0
PairPos2: "Pairwise Positioning (kerning) lookup 31 subtable" uni065A dx=0 dy=0 dh=0 dv=0 dx=0 dy=150 dh=0 dv=0
PairPos2: "Pairwise Positioning (kerning) lookup 31 subtable" uni0659 dx=0 dy=0 dh=0 dv=0 dx=0 dy=150 dh=0 dv=0
PairPos2: "Pairwise Positioning (kerning) lookup 31 subtable" uni0652 dx=0 dy=0 dh=0 dv=0 dx=0 dy=150 dh=0 dv=0
PairPos2: "Pairwise Positioning (kerning) lookup 31 subtable" uni0651 dx=0 dy=0 dh=0 dv=0 dx=0 dy=150 dh=0 dv=0
PairPos2: "Pairwise Positioning (kerning) lookup 31 subtable" uni0650 dx=0 dy=0 dh=0 dv=0 dx=0 dy=150 dh=0 dv=0
PairPos2: "Pairwise Positioning (kerning) lookup 31 subtable" uni064F dx=0 dy=0 dh=0 dv=0 dx=0 dy=150 dh=0 dv=0
PairPos2: "Pairwise Positioning (kerning) lookup 31 subtable" uni064E dx=0 dy=0 dh=0 dv=0 dx=0 dy=150 dh=0 dv=0
PairPos2: "Pairwise Positioning (kerning) lookup 31 subtable" uni064D dx=0 dy=0 dh=0 dv=0 dx=0 dy=150 dh=0 dv=0
PairPos2: "Pairwise Positioning (kerning) lookup 31 subtable" uni064C dx=0 dy=0 dh=0 dv=0 dx=0 dy=150 dh=0 dv=0
PairPos2: "Pairwise Positioning (kerning) lookup 31 subtable" uni064B dx=0 dy=0 dh=0 dv=0 dx=0 dy=150 dh=0 dv=0
PairPos2: "Pairwise Positioning (kerning) lookup 29 subtable" _.notdef.001 dx=0 dy=0 dh=0 dv=0 dx=0 dy=100 dh=0 dv=0
PairPos2: "Pairwise Positioning (kerning) lookup 29 subtable" _.notdef.002 dx=0 dy=0 dh=0 dv=0 dx=0 dy=100 dh=0 dv=0
PairPos2: "Pairwise Positioning (kerning) lookup 29 subtable" uni036F dx=0 dy=0 dh=0 dv=0 dx=0 dy=100 dh=0 dv=0
PairPos2: "Pairwise Positioning (kerning) lookup 29 subtable" uni036E dx=0 dy=0 dh=0 dv=0 dx=0 dy=100 dh=0 dv=0
PairPos2: "Pairwise Positioning (kerning) lookup 29 subtable" uni036D dx=0 dy=0 dh=0 dv=0 dx=0 dy=100 dh=0 dv=0
PairPos2: "Pairwise Positioning (kerning) lookup 29 subtable" kasratanisolated dx=0 dy=0 dh=0 dv=0 dx=0 dy=100 dh=0 dv=0
PairPos2: "Pairwise Positioning (kerning) lookup 29 subtable" dammatanisolated dx=0 dy=0 dh=0 dv=0 dx=0 dy=100 dh=0 dv=0
PairPos2: "Pairwise Positioning (kerning) lookup 29 subtable" fathatanisolated dx=0 dy=0 dh=0 dv=0 dx=0 dy=100 dh=0 dv=0
PairPos2: "Pairwise Positioning (kerning) lookup 29 subtable" shaddawithkasratanlow.moved.001 dx=0 dy=0 dh=0 dv=0 dx=0 dy=100 dh=0 dv=0
PairPos2: "Pairwise Positioning (kerning) lookup 29 subtable" shaddawithkasratanlow.moved dx=0 dy=0 dh=0 dv=0 dx=0 dy=100 dh=0 dv=0
PairPos2: "Pairwise Positioning (kerning) lookup 29 subtable" shaddalow_dammatanalignedlow_ga dx=0 dy=0 dh=0 dv=0 dx=0 dy=100 dh=0 dv=0
PairPos2: "Pairwise Positioning (kerning) lookup 29 subtable" _.ndefine1 dx=0 dy=0 dh=0 dv=0 dx=0 dy=100 dh=0 dv=0
PairPos2: "Pairwise Positioning (kerning) lookup 29 subtable" _.ndefine2 dx=0 dy=0 dh=0 dv=0 dx=0 dy=100 dh=0 dv=0
PairPos2: "Pairwise Positioning (kerning) lookup 29 subtable" shaddawithdammatanaligned dx=0 dy=0 dh=0 dv=0 dx=0 dy=100 dh=0 dv=0
PairPos2: "Pairwise Positioning (kerning) lookup 29 subtable" shaddawithdammatanisolatedlow dx=0 dy=0 dh=0 dv=0 dx=0 dy=100 dh=0 dv=0
PairPos2: "Pairwise Positioning (kerning) lookup 29 subtable" shaddawithfathaisolatedlow dx=0 dy=0 dh=0 dv=0 dx=0 dy=100 dh=0 dv=0
PairPos2: "Pairwise Positioning (kerning) lookup 29 subtable" shaddawithdammaisolatedlow dx=0 dy=0 dh=0 dv=0 dx=0 dy=100 dh=0 dv=0
PairPos2: "Pairwise Positioning (kerning) lookup 29 subtable" shaddawithfathatanisolated dx=0 dy=0 dh=0 dv=0 dx=0 dy=100 dh=0 dv=0
PairPos2: "Pairwise Positioning (kerning) lookup 29 subtable" shaddawithfathatanaligned dx=0 dy=0 dh=0 dv=0 dx=0 dy=100 dh=0 dv=0
PairPos2: "Pairwise Positioning (kerning) lookup 29 subtable" uni06EB dx=0 dy=0 dh=0 dv=0 dx=0 dy=100 dh=0 dv=0
PairPos2: "Pairwise Positioning (kerning) lookup 29 subtable" uni06E8 dx=0 dy=0 dh=0 dv=0 dx=0 dy=100 dh=0 dv=0
PairPos2: "Pairwise Positioning (kerning) lookup 29 subtable" uni06E2 dx=0 dy=0 dh=0 dv=0 dx=0 dy=100 dh=0 dv=0
PairPos2: "Pairwise Positioning (kerning) lookup 29 subtable" uni06E1 dx=0 dy=0 dh=0 dv=0 dx=0 dy=100 dh=0 dv=0
PairPos2: "Pairwise Positioning (kerning) lookup 29 subtable" uni06E0 dx=0 dy=0 dh=0 dv=0 dx=0 dy=100 dh=0 dv=0
PairPos2: "Pairwise Positioning (kerning) lookup 29 subtable" uni06DF dx=0 dy=0 dh=0 dv=0 dx=0 dy=100 dh=0 dv=0
PairPos2: "Pairwise Positioning (kerning) lookup 29 subtable" uni065B dx=0 dy=0 dh=0 dv=0 dx=0 dy=100 dh=0 dv=0
PairPos2: "Pairwise Positioning (kerning) lookup 29 subtable" uni065A dx=0 dy=0 dh=0 dv=0 dx=0 dy=100 dh=0 dv=0
PairPos2: "Pairwise Positioning (kerning) lookup 29 subtable" uni0659 dx=0 dy=0 dh=0 dv=0 dx=0 dy=100 dh=0 dv=0
PairPos2: "Pairwise Positioning (kerning) lookup 29 subtable" uni0652 dx=0 dy=0 dh=0 dv=0 dx=0 dy=100 dh=0 dv=0
PairPos2: "Pairwise Positioning (kerning) lookup 29 subtable" uni0651 dx=0 dy=0 dh=0 dv=0 dx=0 dy=100 dh=0 dv=0
PairPos2: "Pairwise Positioning (kerning) lookup 29 subtable" uni0650 dx=0 dy=0 dh=0 dv=0 dx=0 dy=100 dh=0 dv=0
PairPos2: "Pairwise Positioning (kerning) lookup 29 subtable" uni064F dx=0 dy=0 dh=0 dv=0 dx=0 dy=100 dh=0 dv=0
PairPos2: "Pairwise Positioning (kerning) lookup 29 subtable" uni064E dx=0 dy=0 dh=0 dv=0 dx=0 dy=100 dh=0 dv=0
PairPos2: "Pairwise Positioning (kerning) lookup 29 subtable" uni064D dx=0 dy=0 dh=0 dv=0 dx=0 dy=100 dh=0 dv=0
PairPos2: "Pairwise Positioning (kerning) lookup 29 subtable" uni064C dx=0 dy=0 dh=0 dv=0 dx=0 dy=100 dh=0 dv=0
PairPos2: "Pairwise Positioning (kerning) lookup 29 subtable" uni064B dx=0 dy=0 dh=0 dv=0 dx=0 dy=100 dh=0 dv=0
EndChar

StartChar: uni0634
Encoding: 1588 1588 26
Width: 1424
GlyphClass: 2
Flags: W
AnchorPoint: "Cursive-30" 1426 0 entry 0
AnchorPoint: "Cursive-20" 1426 0 entry 0
AnchorPoint: "Cursive-18" 1426 0 entry 0
AnchorPoint: "Anchor-2" 429 1111 basechar 0
AnchorPoint: "Anchor-1" 1155 -135 basechar 0
AnchorPoint: "Anchor-0" 1065 975 basechar 0
LayerCount: 2
Back
Fore
SplineSet
1148 726 m 0,0,1
 1140 709 1140 709 1127.5 691.5 c 128,-1,2
 1115 674 1115 674 1095 654 c 0,3,4
 1089 648 1089 648 1081 648 c 0,5,6
 1075 648 1075 648 1065 656 c 0,7,8
 1054 667 1054 667 1035 681.5 c 128,-1,9
 1016 696 1016 696 998 707 c 0,10,11
 980 715 980 715 985 728 c 0,12,13
 1003 755 1003 755 1018 775.5 c 128,-1,14
 1033 796 1033 796 1049 814 c 0,15,16
 1052 818 1052 818 1059 818 c 0,17,18
 1067 818 1067 818 1079 812 c 0,19,20
 1111 796 1111 796 1138 768 c 0,21,22
 1151 755 1151 755 1151 741 c 0,23,24
 1151 734 1151 734 1148 726 c 0,0,1
1249 569 m 0,25,26
 1234 535 1234 535 1196 499 c 0,27,28
 1188 491 1188 491 1181 491 c 0,29,30
 1176 491 1176 491 1166 499 c 0,31,32
 1155 510 1155 510 1149 515 c 128,-1,33
 1143 520 1143 520 1113 544 c 0,34,35
 1093 556 1093 556 1084 556 c 1,36,-1
 1026 488 l 2,37,38
 1020 480 1020 480 1012 480 c 0,39,40
 1006 480 1006 480 998 488 c 0,41,42
 971 514 971 514 930 539 c 0,43,44
 912 551 912 551 916 560 c 0,45,46
 951 615 951 615 980 646 c 0,47,48
 984 650 984 650 991 650 c 0,49,50
 999 650 999 650 1010 644 c 0,51,52
 1043 628 1043 628 1070 601 c 2,53,-1
 1084 585 l 2,54,55
 1089 581 1089 581 1098 590 c 0,56,57
 1138 647 1138 647 1148 657 c 0,58,59
 1153 662 1153 662 1160 662 c 256,60,61
 1167 662 1167 662 1178 656 c 0,62,63
 1211 639 1211 639 1238 612 c 0,64,65
 1251 598 1251 598 1251 581 c 0,66,67
 1251 577 1251 577 1249 569 c 0,25,26
1420 181 m 128,-1,69
 1415 144 1415 144 1409 122 c 128,-1,70
 1403 100 1403 100 1393 77 c 0,71,72
 1375 38 1375 38 1343 19 c 0,73,74
 1317 5 1317 5 1271 1 c 0,75,76
 1247 1 1247 1 1225.5 3 c 128,-1,77
 1204 5 1204 5 1176 13 c 0,78,79
 1165 15 1165 15 1152.5 20.5 c 128,-1,80
 1140 26 1140 26 1127 34 c 1,81,82
 1098 11 1098 11 1080.5 0 c 128,-1,83
 1063 -11 1063 -11 1046.5 -19.5 c 128,-1,84
 1030 -28 1030 -28 1008 -36 c 128,-1,85
 986 -44 986 -44 963 -47.5 c 128,-1,86
 940 -51 940 -51 880 -52 c 1,87,-1
 880 -111 l 1,88,-1
 878 -156 l 1,89,90
 866 -283 866 -283 781 -353 c 0,91,92
 752 -376 752 -376 713 -395 c 128,-1,93
 674 -414 674 -414 625 -430 c 0,94,95
 580 -443 580 -443 537.5 -449.5 c 128,-1,96
 495 -456 495 -456 438 -456 c 0,97,98
 376 -456 376 -456 319.5 -439.5 c 128,-1,99
 263 -423 263 -423 226 -396 c 0,100,101
 123 -320 123 -320 123 -181 c 0,102,103
 126 -113 126 -113 141 -70.5 c 128,-1,104
 156 -28 156 -28 173 4 c 0,105,106
 220 91 220 91 235 106 c 0,107,108
 247 113 247 113 247 98 c 1,109,-1
 237 75 l 2,110,111
 212 24 212 24 192 -49 c 0,112,113
 185 -79 185 -79 185 -108 c 2,114,-1
 186 -131 l 2,115,116
 190 -159 190 -159 197.5 -177 c 128,-1,117
 205 -195 205 -195 219 -213 c 0,118,119
 254 -257 254 -257 303 -279 c 0,120,121
 337 -295 337 -295 379 -301.5 c 128,-1,122
 421 -308 421 -308 476 -308 c 0,123,124
 545 -308 545 -308 601 -295.5 c 128,-1,125
 657 -283 657 -283 704 -261 c 128,-1,126
 751 -239 751 -239 785 -215 c 0,127,128
 810 -196 810 -196 810 -152 c 0,129,130
 810 -96 810 -96 783 -37 c 0,131,132
 756 25 756 25 706 92 c 0,133,134
 693 109 693 109 684.5 124.5 c 128,-1,135
 676 140 676 140 680 167 c 0,136,137
 684 190 684 190 692.5 211 c 128,-1,138
 701 232 701 232 717 257 c 0,139,140
 730 278 730 278 738 273 c 0,141,142
 748 263 748 263 770 233 c 128,-1,143
 792 203 792 203 843 121 c 0,144,145
 853 103 853 103 867 101 c 0,146,147
 892 95 892 95 955 109 c 0,148,149
 1028 128 1028 128 1071 164 c 0,150,151
 1119 204 1119 204 1148 249 c 0,152,153
 1180 301 1180 301 1190 301 c 0,154,155
 1205 301 1205 301 1205 267 c 0,156,157
 1199 200 1199 200 1185 164 c 1,158,159
 1201 159 1201 159 1250 148 c 0,160,161
 1275 142 1275 142 1309 137 c 1,162,163
 1352 141 1352 141 1348 180 c 0,164,165
 1345 198 1345 198 1322 243 c 0,166,167
 1303 280 1303 280 1303 291 c 0,168,169
 1303 310 1303 310 1327.5 357 c 128,-1,170
 1352 404 1352 404 1364 410 c 256,171,172
 1376 416 1376 416 1388 391.5 c 128,-1,173
 1400 367 1400 367 1409 333.5 c 128,-1,174
 1418 300 1418 300 1421.5 259 c 128,-1,68
 1425 218 1425 218 1420 181 c 128,-1,69
EndSplineSet
Substitution2: "Single Substitution lookup 42 subtable" uniFEB6
Substitution2: "Single Substitution lookup 41 subtable" uniFEB7
Substitution2: "Single Substitution lookup 40 subtable" uniFEB6
Substitution2: "Single Substitution lookup 39 subtable" uniFEB7
Substitution2: "'medi' Medial Forms in Arabic lookup 7 subtable" uniFEB8
Substitution2: "'init' Initial Forms in Arabic lookup 6 subtable" uniFEB7
AlternateSubs2: "'fina' Terminal Forms in Arabic lookup 0 subtable" uniFEB6
PairPos2: "Pairwise Positioning (kerning) lookup 32 subtable" _.notdef.001 dx=0 dy=0 dh=0 dv=0 dx=0 dy=140 dh=0 dv=0
PairPos2: "Pairwise Positioning (kerning) lookup 32 subtable" _.notdef.002 dx=0 dy=0 dh=0 dv=0 dx=0 dy=140 dh=0 dv=0
PairPos2: "Pairwise Positioning (kerning) lookup 32 subtable" uni036F dx=0 dy=0 dh=0 dv=0 dx=0 dy=140 dh=0 dv=0
PairPos2: "Pairwise Positioning (kerning) lookup 32 subtable" uni036E dx=0 dy=0 dh=0 dv=0 dx=0 dy=140 dh=0 dv=0
PairPos2: "Pairwise Positioning (kerning) lookup 32 subtable" uni036D dx=0 dy=0 dh=0 dv=0 dx=0 dy=140 dh=0 dv=0
PairPos2: "Pairwise Positioning (kerning) lookup 32 subtable" kasratanisolated dx=0 dy=0 dh=0 dv=0 dx=0 dy=140 dh=0 dv=0
PairPos2: "Pairwise Positioning (kerning) lookup 32 subtable" dammatanisolated dx=0 dy=0 dh=0 dv=0 dx=0 dy=140 dh=0 dv=0
PairPos2: "Pairwise Positioning (kerning) lookup 32 subtable" fathatanisolated dx=0 dy=0 dh=0 dv=0 dx=0 dy=140 dh=0 dv=0
PairPos2: "Pairwise Positioning (kerning) lookup 32 subtable" shaddawithkasratanlow.moved.001 dx=0 dy=0 dh=0 dv=0 dx=0 dy=140 dh=0 dv=0
PairPos2: "Pairwise Positioning (kerning) lookup 32 subtable" shaddawithkasratanlow.moved dx=0 dy=0 dh=0 dv=0 dx=0 dy=140 dh=0 dv=0
PairPos2: "Pairwise Positioning (kerning) lookup 32 subtable" shaddalow_dammatanalignedlow_ga dx=0 dy=0 dh=0 dv=0 dx=0 dy=140 dh=0 dv=0
PairPos2: "Pairwise Positioning (kerning) lookup 32 subtable" _.ndefine1 dx=0 dy=0 dh=0 dv=0 dx=0 dy=140 dh=0 dv=0
PairPos2: "Pairwise Positioning (kerning) lookup 32 subtable" _.ndefine2 dx=0 dy=0 dh=0 dv=0 dx=0 dy=140 dh=0 dv=0
PairPos2: "Pairwise Positioning (kerning) lookup 32 subtable" shaddawithdammatanaligned dx=0 dy=0 dh=0 dv=0 dx=0 dy=140 dh=0 dv=0
PairPos2: "Pairwise Positioning (kerning) lookup 32 subtable" shaddawithdammatanisolatedlow dx=0 dy=0 dh=0 dv=0 dx=0 dy=140 dh=0 dv=0
PairPos2: "Pairwise Positioning (kerning) lookup 32 subtable" shaddawithfathaisolatedlow dx=0 dy=0 dh=0 dv=0 dx=0 dy=140 dh=0 dv=0
PairPos2: "Pairwise Positioning (kerning) lookup 32 subtable" shaddawithdammaisolatedlow dx=0 dy=0 dh=0 dv=0 dx=0 dy=140 dh=0 dv=0
PairPos2: "Pairwise Positioning (kerning) lookup 32 subtable" shaddawithfathatanisolated dx=0 dy=0 dh=0 dv=0 dx=0 dy=140 dh=0 dv=0
PairPos2: "Pairwise Positioning (kerning) lookup 32 subtable" shaddawithfathatanaligned dx=0 dy=0 dh=0 dv=0 dx=0 dy=140 dh=0 dv=0
PairPos2: "Pairwise Positioning (kerning) lookup 32 subtable" uni06EB dx=0 dy=0 dh=0 dv=0 dx=0 dy=140 dh=0 dv=0
PairPos2: "Pairwise Positioning (kerning) lookup 32 subtable" uni06E8 dx=0 dy=0 dh=0 dv=0 dx=0 dy=140 dh=0 dv=0
PairPos2: "Pairwise Positioning (kerning) lookup 32 subtable" uni06E2 dx=0 dy=0 dh=0 dv=0 dx=0 dy=140 dh=0 dv=0
PairPos2: "Pairwise Positioning (kerning) lookup 32 subtable" uni06E1 dx=0 dy=0 dh=0 dv=0 dx=0 dy=140 dh=0 dv=0
PairPos2: "Pairwise Positioning (kerning) lookup 32 subtable" uni06E0 dx=0 dy=0 dh=0 dv=0 dx=0 dy=140 dh=0 dv=0
PairPos2: "Pairwise Positioning (kerning) lookup 32 subtable" uni06DF dx=0 dy=0 dh=0 dv=0 dx=0 dy=140 dh=0 dv=0
PairPos2: "Pairwise Positioning (kerning) lookup 32 subtable" uni065B dx=0 dy=0 dh=0 dv=0 dx=0 dy=140 dh=0 dv=0
PairPos2: "Pairwise Positioning (kerning) lookup 32 subtable" uni065A dx=0 dy=0 dh=0 dv=0 dx=0 dy=140 dh=0 dv=0
PairPos2: "Pairwise Positioning (kerning) lookup 32 subtable" uni0659 dx=0 dy=0 dh=0 dv=0 dx=0 dy=140 dh=0 dv=0
PairPos2: "Pairwise Positioning (kerning) lookup 32 subtable" uni0652 dx=0 dy=0 dh=0 dv=0 dx=0 dy=140 dh=0 dv=0
PairPos2: "Pairwise Positioning (kerning) lookup 32 subtable" uni0651 dx=0 dy=0 dh=0 dv=0 dx=0 dy=140 dh=0 dv=0
PairPos2: "Pairwise Positioning (kerning) lookup 32 subtable" uni0650 dx=0 dy=0 dh=0 dv=0 dx=0 dy=140 dh=0 dv=0
PairPos2: "Pairwise Positioning (kerning) lookup 32 subtable" uni064F dx=0 dy=0 dh=0 dv=0 dx=0 dy=140 dh=0 dv=0
PairPos2: "Pairwise Positioning (kerning) lookup 32 subtable" uni064E dx=0 dy=0 dh=0 dv=0 dx=0 dy=140 dh=0 dv=0
PairPos2: "Pairwise Positioning (kerning) lookup 32 subtable" uni064D dx=0 dy=0 dh=0 dv=0 dx=0 dy=140 dh=0 dv=0
PairPos2: "Pairwise Positioning (kerning) lookup 32 subtable" uni064C dx=0 dy=0 dh=0 dv=0 dx=0 dy=140 dh=0 dv=0
PairPos2: "Pairwise Positioning (kerning) lookup 32 subtable" uni064B dx=0 dy=0 dh=0 dv=0 dx=0 dy=140 dh=0 dv=0
PairPos2: "Pairwise Positioning (kerning) lookup 31 subtable" _.notdef.001 dx=0 dy=0 dh=0 dv=0 dx=0 dy=150 dh=0 dv=0
PairPos2: "Pairwise Positioning (kerning) lookup 31 subtable" _.notdef.002 dx=0 dy=0 dh=0 dv=0 dx=0 dy=150 dh=0 dv=0
PairPos2: "Pairwise Positioning (kerning) lookup 31 subtable" uni036F dx=0 dy=0 dh=0 dv=0 dx=0 dy=150 dh=0 dv=0
PairPos2: "Pairwise Positioning (kerning) lookup 31 subtable" uni036E dx=0 dy=0 dh=0 dv=0 dx=0 dy=150 dh=0 dv=0
PairPos2: "Pairwise Positioning (kerning) lookup 31 subtable" uni036D dx=0 dy=0 dh=0 dv=0 dx=0 dy=150 dh=0 dv=0
PairPos2: "Pairwise Positioning (kerning) lookup 31 subtable" kasratanisolated dx=0 dy=0 dh=0 dv=0 dx=0 dy=150 dh=0 dv=0
PairPos2: "Pairwise Positioning (kerning) lookup 31 subtable" dammatanisolated dx=0 dy=0 dh=0 dv=0 dx=0 dy=150 dh=0 dv=0
PairPos2: "Pairwise Positioning (kerning) lookup 31 subtable" fathatanisolated dx=0 dy=0 dh=0 dv=0 dx=0 dy=150 dh=0 dv=0
PairPos2: "Pairwise Positioning (kerning) lookup 31 subtable" shaddawithkasratanlow.moved.001 dx=0 dy=0 dh=0 dv=0 dx=0 dy=150 dh=0 dv=0
PairPos2: "Pairwise Positioning (kerning) lookup 31 subtable" shaddawithkasratanlow.moved dx=0 dy=0 dh=0 dv=0 dx=0 dy=150 dh=0 dv=0
PairPos2: "Pairwise Positioning (kerning) lookup 31 subtable" shaddalow_dammatanalignedlow_ga dx=0 dy=0 dh=0 dv=0 dx=0 dy=150 dh=0 dv=0
PairPos2: "Pairwise Positioning (kerning) lookup 31 subtable" _.ndefine1 dx=0 dy=0 dh=0 dv=0 dx=0 dy=150 dh=0 dv=0
PairPos2: "Pairwise Positioning (kerning) lookup 31 subtable" _.ndefine2 dx=0 dy=0 dh=0 dv=0 dx=0 dy=150 dh=0 dv=0
PairPos2: "Pairwise Positioning (kerning) lookup 31 subtable" shaddawithdammatanaligned dx=0 dy=0 dh=0 dv=0 dx=0 dy=150 dh=0 dv=0
PairPos2: "Pairwise Positioning (kerning) lookup 31 subtable" shaddawithdammatanisolatedlow dx=0 dy=0 dh=0 dv=0 dx=0 dy=150 dh=0 dv=0
PairPos2: "Pairwise Positioning (kerning) lookup 31 subtable" shaddawithfathaisolatedlow dx=0 dy=0 dh=0 dv=0 dx=0 dy=150 dh=0 dv=0
PairPos2: "Pairwise Positioning (kerning) lookup 31 subtable" shaddawithdammaisolatedlow dx=0 dy=0 dh=0 dv=0 dx=0 dy=150 dh=0 dv=0
PairPos2: "Pairwise Positioning (kerning) lookup 31 subtable" shaddawithfathatanisolated dx=0 dy=0 dh=0 dv=0 dx=0 dy=150 dh=0 dv=0
PairPos2: "Pairwise Positioning (kerning) lookup 31 subtable" shaddawithfathatanaligned dx=0 dy=0 dh=0 dv=0 dx=0 dy=150 dh=0 dv=0
PairPos2: "Pairwise Positioning (kerning) lookup 31 subtable" uni06EB dx=0 dy=0 dh=0 dv=0 dx=0 dy=150 dh=0 dv=0
PairPos2: "Pairwise Positioning (kerning) lookup 31 subtable" uni06E8 dx=0 dy=0 dh=0 dv=0 dx=0 dy=150 dh=0 dv=0
PairPos2: "Pairwise Positioning (kerning) lookup 31 subtable" uni06E2 dx=0 dy=0 dh=0 dv=0 dx=0 dy=150 dh=0 dv=0
PairPos2: "Pairwise Positioning (kerning) lookup 31 subtable" uni06E1 dx=0 dy=0 dh=0 dv=0 dx=0 dy=150 dh=0 dv=0
PairPos2: "Pairwise Positioning (kerning) lookup 31 subtable" uni06E0 dx=0 dy=0 dh=0 dv=0 dx=0 dy=150 dh=0 dv=0
PairPos2: "Pairwise Positioning (kerning) lookup 31 subtable" uni06DF dx=0 dy=0 dh=0 dv=0 dx=0 dy=150 dh=0 dv=0
PairPos2: "Pairwise Positioning (kerning) lookup 31 subtable" uni065B dx=0 dy=0 dh=0 dv=0 dx=0 dy=150 dh=0 dv=0
PairPos2: "Pairwise Positioning (kerning) lookup 31 subtable" uni065A dx=0 dy=0 dh=0 dv=0 dx=0 dy=150 dh=0 dv=0
PairPos2: "Pairwise Positioning (kerning) lookup 31 subtable" uni0659 dx=0 dy=0 dh=0 dv=0 dx=0 dy=150 dh=0 dv=0
PairPos2: "Pairwise Positioning (kerning) lookup 31 subtable" uni0652 dx=0 dy=0 dh=0 dv=0 dx=0 dy=150 dh=0 dv=0
PairPos2: "Pairwise Positioning (kerning) lookup 31 subtable" uni0651 dx=0 dy=0 dh=0 dv=0 dx=0 dy=150 dh=0 dv=0
PairPos2: "Pairwise Positioning (kerning) lookup 31 subtable" uni0650 dx=0 dy=0 dh=0 dv=0 dx=0 dy=150 dh=0 dv=0
PairPos2: "Pairwise Positioning (kerning) lookup 31 subtable" uni064F dx=0 dy=0 dh=0 dv=0 dx=0 dy=150 dh=0 dv=0
PairPos2: "Pairwise Positioning (kerning) lookup 31 subtable" uni064E dx=0 dy=0 dh=0 dv=0 dx=0 dy=150 dh=0 dv=0
PairPos2: "Pairwise Positioning (kerning) lookup 31 subtable" uni064D dx=0 dy=0 dh=0 dv=0 dx=0 dy=150 dh=0 dv=0
PairPos2: "Pairwise Positioning (kerning) lookup 31 subtable" uni064C dx=0 dy=0 dh=0 dv=0 dx=0 dy=150 dh=0 dv=0
PairPos2: "Pairwise Positioning (kerning) lookup 31 subtable" uni064B dx=0 dy=0 dh=0 dv=0 dx=0 dy=150 dh=0 dv=0
PairPos2: "Pairwise Positioning (kerning) lookup 29 subtable" _.notdef.001 dx=0 dy=0 dh=0 dv=0 dx=0 dy=100 dh=0 dv=0
PairPos2: "Pairwise Positioning (kerning) lookup 29 subtable" _.notdef.002 dx=0 dy=0 dh=0 dv=0 dx=0 dy=100 dh=0 dv=0
PairPos2: "Pairwise Positioning (kerning) lookup 29 subtable" uni036F dx=0 dy=0 dh=0 dv=0 dx=0 dy=100 dh=0 dv=0
PairPos2: "Pairwise Positioning (kerning) lookup 29 subtable" uni036E dx=0 dy=0 dh=0 dv=0 dx=0 dy=100 dh=0 dv=0
PairPos2: "Pairwise Positioning (kerning) lookup 29 subtable" uni036D dx=0 dy=0 dh=0 dv=0 dx=0 dy=100 dh=0 dv=0
PairPos2: "Pairwise Positioning (kerning) lookup 29 subtable" kasratanisolated dx=0 dy=0 dh=0 dv=0 dx=0 dy=100 dh=0 dv=0
PairPos2: "Pairwise Positioning (kerning) lookup 29 subtable" dammatanisolated dx=0 dy=0 dh=0 dv=0 dx=0 dy=100 dh=0 dv=0
PairPos2: "Pairwise Positioning (kerning) lookup 29 subtable" fathatanisolated dx=0 dy=0 dh=0 dv=0 dx=0 dy=100 dh=0 dv=0
PairPos2: "Pairwise Positioning (kerning) lookup 29 subtable" shaddawithkasratanlow.moved.001 dx=0 dy=0 dh=0 dv=0 dx=0 dy=100 dh=0 dv=0
PairPos2: "Pairwise Positioning (kerning) lookup 29 subtable" shaddawithkasratanlow.moved dx=0 dy=0 dh=0 dv=0 dx=0 dy=100 dh=0 dv=0
PairPos2: "Pairwise Positioning (kerning) lookup 29 subtable" shaddalow_dammatanalignedlow_ga dx=0 dy=0 dh=0 dv=0 dx=0 dy=100 dh=0 dv=0
PairPos2: "Pairwise Positioning (kerning) lookup 29 subtable" _.ndefine1 dx=0 dy=0 dh=0 dv=0 dx=0 dy=100 dh=0 dv=0
PairPos2: "Pairwise Positioning (kerning) lookup 29 subtable" _.ndefine2 dx=0 dy=0 dh=0 dv=0 dx=0 dy=100 dh=0 dv=0
PairPos2: "Pairwise Positioning (kerning) lookup 29 subtable" shaddawithdammatanaligned dx=0 dy=0 dh=0 dv=0 dx=0 dy=100 dh=0 dv=0
PairPos2: "Pairwise Positioning (kerning) lookup 29 subtable" shaddawithdammatanisolatedlow dx=0 dy=0 dh=0 dv=0 dx=0 dy=100 dh=0 dv=0
PairPos2: "Pairwise Positioning (kerning) lookup 29 subtable" shaddawithfathaisolatedlow dx=0 dy=0 dh=0 dv=0 dx=0 dy=100 dh=0 dv=0
PairPos2: "Pairwise Positioning (kerning) lookup 29 subtable" shaddawithdammaisolatedlow dx=0 dy=0 dh=0 dv=0 dx=0 dy=100 dh=0 dv=0
PairPos2: "Pairwise Positioning (kerning) lookup 29 subtable" shaddawithfathatanisolated dx=0 dy=0 dh=0 dv=0 dx=0 dy=100 dh=0 dv=0
PairPos2: "Pairwise Positioning (kerning) lookup 29 subtable" shaddawithfathatanaligned dx=0 dy=0 dh=0 dv=0 dx=0 dy=100 dh=0 dv=0
PairPos2: "Pairwise Positioning (kerning) lookup 29 subtable" uni06EB dx=0 dy=0 dh=0 dv=0 dx=0 dy=100 dh=0 dv=0
PairPos2: "Pairwise Positioning (kerning) lookup 29 subtable" uni06E8 dx=0 dy=0 dh=0 dv=0 dx=0 dy=100 dh=0 dv=0
PairPos2: "Pairwise Positioning (kerning) lookup 29 subtable" uni06E2 dx=0 dy=0 dh=0 dv=0 dx=0 dy=100 dh=0 dv=0
PairPos2: "Pairwise Positioning (kerning) lookup 29 subtable" uni06E1 dx=0 dy=0 dh=0 dv=0 dx=0 dy=100 dh=0 dv=0
PairPos2: "Pairwise Positioning (kerning) lookup 29 subtable" uni06E0 dx=0 dy=0 dh=0 dv=0 dx=0 dy=100 dh=0 dv=0
PairPos2: "Pairwise Positioning (kerning) lookup 29 subtable" uni06DF dx=0 dy=0 dh=0 dv=0 dx=0 dy=100 dh=0 dv=0
PairPos2: "Pairwise Positioning (kerning) lookup 29 subtable" uni065B dx=0 dy=0 dh=0 dv=0 dx=0 dy=100 dh=0 dv=0
PairPos2: "Pairwise Positioning (kerning) lookup 29 subtable" uni065A dx=0 dy=0 dh=0 dv=0 dx=0 dy=100 dh=0 dv=0
PairPos2: "Pairwise Positioning (kerning) lookup 29 subtable" uni0659 dx=0 dy=0 dh=0 dv=0 dx=0 dy=100 dh=0 dv=0
PairPos2: "Pairwise Positioning (kerning) lookup 29 subtable" uni0652 dx=0 dy=0 dh=0 dv=0 dx=0 dy=100 dh=0 dv=0
PairPos2: "Pairwise Positioning (kerning) lookup 29 subtable" uni0651 dx=0 dy=0 dh=0 dv=0 dx=0 dy=100 dh=0 dv=0
PairPos2: "Pairwise Positioning (kerning) lookup 29 subtable" uni0650 dx=0 dy=0 dh=0 dv=0 dx=0 dy=100 dh=0 dv=0
PairPos2: "Pairwise Positioning (kerning) lookup 29 subtable" uni064F dx=0 dy=0 dh=0 dv=0 dx=0 dy=100 dh=0 dv=0
PairPos2: "Pairwise Positioning (kerning) lookup 29 subtable" uni064E dx=0 dy=0 dh=0 dv=0 dx=0 dy=100 dh=0 dv=0
PairPos2: "Pairwise Positioning (kerning) lookup 29 subtable" uni064D dx=0 dy=0 dh=0 dv=0 dx=0 dy=100 dh=0 dv=0
PairPos2: "Pairwise Positioning (kerning) lookup 29 subtable" uni064C dx=0 dy=0 dh=0 dv=0 dx=0 dy=100 dh=0 dv=0
PairPos2: "Pairwise Positioning (kerning) lookup 29 subtable" uni064B dx=0 dy=0 dh=0 dv=0 dx=0 dy=100 dh=0 dv=0
EndChar

StartChar: uni0635
Encoding: 1589 1589 27
Width: 1541
GlyphClass: 2
Flags: W
AnchorPoint: "Cursive-30" 1525 0 entry 0
AnchorPoint: "Cursive-20" 1525 0 entry 0
AnchorPoint: "Cursive-18" 1525 0 entry 0
AnchorPoint: "Anchor-12" 1065 -105 basechar 0
AnchorPoint: "Anchor-11" 990 615 basechar 0
AnchorPoint: "Anchor-2" 572 737 basechar 0
AnchorPoint: "Anchor-1" 1065 -105 basechar 0
AnchorPoint: "Anchor-0" 990 615 basechar 0
LayerCount: 2
Back
Fore
SplineSet
1546 366 m 0,0,1
 1546 342 1546 342 1502 267 c 0,2,3
 1485 240 1485 240 1472 222 c 128,-1,4
 1459 204 1459 204 1442 184 c 0,5,6
 1389 122 1389 122 1314 86 c 0,7,8
 1275 69 1275 69 1233.5 56 c 128,-1,9
 1192 43 1192 43 1130 29 c 0,10,11
 1092 20 1092 20 1046.5 13.5 c 128,-1,12
 1001 7 1001 7 952 3 c 128,-1,13
 903 -1 903 -1 876.5 -1.5 c 128,-1,14
 850 -2 850 -2 834 -1 c 1,15,16
 840 -58 840 -58 835 -109 c 0,17,18
 828 -235 828 -235 738 -306 c 0,19,20
 678 -355 678 -355 582 -386 c 0,21,22
 539 -399 539 -399 492 -404.5 c 128,-1,23
 445 -410 445 -410 394 -410 c 0,24,25
 329 -408 329 -408 276.5 -392.5 c 128,-1,26
 224 -377 224 -377 180 -345 c 0,27,28
 74 -269 74 -269 77 -142 c 0,29,30
 79 -98 79 -98 88 -63.5 c 128,-1,31
 97 -29 97 -29 108 2 c 128,-1,32
 119 33 119 33 144 80 c 0,33,34
 182 149 182 149 192 147 c 0,35,36
 203 144 203 144 196 125 c 2,37,-1
 178 78 l 1,38,-1
 162 34 l 2,39,40
 145 -19 145 -19 143.5 -39 c 128,-1,41
 142 -59 142 -59 142 -70 c 0,42,43
 142 -86 142 -86 143 -93 c 0,44,45
 151 -144 151 -144 178 -176 c 0,46,47
 210 -216 210 -216 251.5 -232.5 c 128,-1,48
 293 -249 293 -249 336 -255.5 c 128,-1,49
 379 -262 379 -262 433 -262 c 0,50,51
 500 -262 500 -262 556.5 -249.5 c 128,-1,52
 613 -237 613 -237 658.5 -216.5 c 128,-1,53
 704 -196 704 -196 735 -172.5 c 128,-1,54
 766 -149 766 -149 766 -106 c 0,55,56
 766 -53 766 -53 739 12.5 c 128,-1,57
 712 78 712 78 662 139 c 0,58,59
 634 170 634 170 637 200 c 0,60,61
 644 253 644 253 674 302 c 0,62,63
 686 324 686 324 694 318 c 0,64,65
 702 313 702 313 745 253 c 0,66,67
 805 163 805 163 812 148 c 0,68,69
 816 140 816 140 833 139.5 c 128,-1,70
 850 139 850 139 880 140 c 128,-1,71
 910 141 910 141 916 147 c 0,72,73
 956 192 956 192 1021 258 c 0,74,75
 1102 341 1102 341 1185 417 c 0,76,77
 1224 453 1224 453 1263 474 c 0,78,79
 1311 498 1311 498 1366 490 c 0,80,81
 1430 482 1430 482 1500 434 c 0,82,83
 1546 402 1546 402 1546 366 c 0,0,1
1415 301 m 0,84,85
 1415 313 1415 313 1388 331 c 0,86,87
 1346 355 1346 355 1319 355 c 2,88,-1
 1306 356 l 2,89,90
 1287 356 1287 356 1261.5 346.5 c 128,-1,91
 1236 337 1236 337 1199 312 c 0,92,93
 1131 263 1131 263 1022 165 c 0,94,95
 1013 158 1013 158 1002 147 c 1,96,97
 1022 150 1022 150 1038 153 c 0,98,99
 1075 160 1075 160 1146 177.5 c 128,-1,100
 1217 195 1217 195 1290 222 c 0,101,102
 1345 242 1345 242 1377.5 263 c 128,-1,103
 1410 284 1410 284 1415 301 c 0,84,85
EndSplineSet
Substitution2: "Single Substitution lookup 42 subtable" uniFEBA
Substitution2: "Single Substitution lookup 41 subtable" uniFEBB
Substitution2: "Single Substitution lookup 40 subtable" uniFEBA
Substitution2: "Single Substitution lookup 39 subtable" uniFEBB
Substitution2: "'medi' Medial Forms in Arabic lookup 7 subtable" uniFEBC
Substitution2: "'init' Initial Forms in Arabic lookup 6 subtable" uniFEBB
AlternateSubs2: "'fina' Terminal Forms in Arabic lookup 0 subtable" uniFEBA
PairPos2: "Pairwise Positioning (kerning) lookup 32 subtable" _.notdef.001 dx=0 dy=0 dh=0 dv=0 dx=0 dy=100 dh=0 dv=0
PairPos2: "Pairwise Positioning (kerning) lookup 32 subtable" _.notdef.002 dx=0 dy=0 dh=0 dv=0 dx=0 dy=100 dh=0 dv=0
PairPos2: "Pairwise Positioning (kerning) lookup 32 subtable" uni036F dx=0 dy=0 dh=0 dv=0 dx=0 dy=100 dh=0 dv=0
PairPos2: "Pairwise Positioning (kerning) lookup 32 subtable" uni036E dx=0 dy=0 dh=0 dv=0 dx=0 dy=100 dh=0 dv=0
PairPos2: "Pairwise Positioning (kerning) lookup 32 subtable" uni036D dx=0 dy=0 dh=0 dv=0 dx=0 dy=100 dh=0 dv=0
PairPos2: "Pairwise Positioning (kerning) lookup 32 subtable" kasratanisolated dx=0 dy=0 dh=0 dv=0 dx=0 dy=100 dh=0 dv=0
PairPos2: "Pairwise Positioning (kerning) lookup 32 subtable" dammatanisolated dx=0 dy=0 dh=0 dv=0 dx=0 dy=100 dh=0 dv=0
PairPos2: "Pairwise Positioning (kerning) lookup 32 subtable" fathatanisolated dx=0 dy=0 dh=0 dv=0 dx=0 dy=100 dh=0 dv=0
PairPos2: "Pairwise Positioning (kerning) lookup 32 subtable" shaddawithkasratanlow.moved.001 dx=0 dy=0 dh=0 dv=0 dx=0 dy=100 dh=0 dv=0
PairPos2: "Pairwise Positioning (kerning) lookup 32 subtable" shaddawithkasratanlow.moved dx=0 dy=0 dh=0 dv=0 dx=0 dy=100 dh=0 dv=0
PairPos2: "Pairwise Positioning (kerning) lookup 32 subtable" shaddalow_dammatanalignedlow_ga dx=0 dy=0 dh=0 dv=0 dx=0 dy=100 dh=0 dv=0
PairPos2: "Pairwise Positioning (kerning) lookup 32 subtable" _.ndefine1 dx=0 dy=0 dh=0 dv=0 dx=0 dy=100 dh=0 dv=0
PairPos2: "Pairwise Positioning (kerning) lookup 32 subtable" _.ndefine2 dx=0 dy=0 dh=0 dv=0 dx=0 dy=100 dh=0 dv=0
PairPos2: "Pairwise Positioning (kerning) lookup 32 subtable" shaddawithdammatanaligned dx=0 dy=0 dh=0 dv=0 dx=0 dy=100 dh=0 dv=0
PairPos2: "Pairwise Positioning (kerning) lookup 32 subtable" shaddawithdammatanisolatedlow dx=0 dy=0 dh=0 dv=0 dx=0 dy=100 dh=0 dv=0
PairPos2: "Pairwise Positioning (kerning) lookup 32 subtable" shaddawithfathaisolatedlow dx=0 dy=0 dh=0 dv=0 dx=0 dy=100 dh=0 dv=0
PairPos2: "Pairwise Positioning (kerning) lookup 32 subtable" shaddawithdammaisolatedlow dx=0 dy=0 dh=0 dv=0 dx=0 dy=100 dh=0 dv=0
PairPos2: "Pairwise Positioning (kerning) lookup 32 subtable" shaddawithfathatanisolated dx=0 dy=0 dh=0 dv=0 dx=0 dy=100 dh=0 dv=0
PairPos2: "Pairwise Positioning (kerning) lookup 32 subtable" shaddawithfathatanaligned dx=0 dy=0 dh=0 dv=0 dx=0 dy=100 dh=0 dv=0
PairPos2: "Pairwise Positioning (kerning) lookup 32 subtable" uni06EB dx=0 dy=0 dh=0 dv=0 dx=0 dy=100 dh=0 dv=0
PairPos2: "Pairwise Positioning (kerning) lookup 32 subtable" uni06E8 dx=0 dy=0 dh=0 dv=0 dx=0 dy=100 dh=0 dv=0
PairPos2: "Pairwise Positioning (kerning) lookup 32 subtable" uni06E2 dx=0 dy=0 dh=0 dv=0 dx=0 dy=100 dh=0 dv=0
PairPos2: "Pairwise Positioning (kerning) lookup 32 subtable" uni06E1 dx=0 dy=0 dh=0 dv=0 dx=0 dy=100 dh=0 dv=0
PairPos2: "Pairwise Positioning (kerning) lookup 32 subtable" uni06E0 dx=0 dy=0 dh=0 dv=0 dx=0 dy=100 dh=0 dv=0
PairPos2: "Pairwise Positioning (kerning) lookup 32 subtable" uni06DF dx=0 dy=0 dh=0 dv=0 dx=0 dy=100 dh=0 dv=0
PairPos2: "Pairwise Positioning (kerning) lookup 32 subtable" uni065B dx=0 dy=0 dh=0 dv=0 dx=0 dy=100 dh=0 dv=0
PairPos2: "Pairwise Positioning (kerning) lookup 32 subtable" uni065A dx=0 dy=0 dh=0 dv=0 dx=0 dy=100 dh=0 dv=0
PairPos2: "Pairwise Positioning (kerning) lookup 32 subtable" uni0659 dx=0 dy=0 dh=0 dv=0 dx=0 dy=100 dh=0 dv=0
PairPos2: "Pairwise Positioning (kerning) lookup 32 subtable" uni0652 dx=0 dy=0 dh=0 dv=0 dx=0 dy=100 dh=0 dv=0
PairPos2: "Pairwise Positioning (kerning) lookup 32 subtable" uni0651 dx=0 dy=0 dh=0 dv=0 dx=0 dy=100 dh=0 dv=0
PairPos2: "Pairwise Positioning (kerning) lookup 32 subtable" uni0650 dx=0 dy=0 dh=0 dv=0 dx=0 dy=100 dh=0 dv=0
PairPos2: "Pairwise Positioning (kerning) lookup 32 subtable" uni064F dx=0 dy=0 dh=0 dv=0 dx=0 dy=100 dh=0 dv=0
PairPos2: "Pairwise Positioning (kerning) lookup 32 subtable" uni064E dx=0 dy=0 dh=0 dv=0 dx=0 dy=100 dh=0 dv=0
PairPos2: "Pairwise Positioning (kerning) lookup 32 subtable" uni064D dx=0 dy=0 dh=0 dv=0 dx=0 dy=100 dh=0 dv=0
PairPos2: "Pairwise Positioning (kerning) lookup 32 subtable" uni064C dx=0 dy=0 dh=0 dv=0 dx=0 dy=100 dh=0 dv=0
PairPos2: "Pairwise Positioning (kerning) lookup 32 subtable" uni064B dx=0 dy=0 dh=0 dv=0 dx=0 dy=100 dh=0 dv=0
PairPos2: "Pairwise Positioning (kerning) lookup 31 subtable" _.notdef.001 dx=0 dy=0 dh=0 dv=0 dx=0 dy=100 dh=0 dv=0
PairPos2: "Pairwise Positioning (kerning) lookup 31 subtable" _.notdef.002 dx=0 dy=0 dh=0 dv=0 dx=0 dy=100 dh=0 dv=0
PairPos2: "Pairwise Positioning (kerning) lookup 31 subtable" uni036F dx=0 dy=0 dh=0 dv=0 dx=0 dy=100 dh=0 dv=0
PairPos2: "Pairwise Positioning (kerning) lookup 31 subtable" uni036E dx=0 dy=0 dh=0 dv=0 dx=0 dy=100 dh=0 dv=0
PairPos2: "Pairwise Positioning (kerning) lookup 31 subtable" uni036D dx=0 dy=0 dh=0 dv=0 dx=0 dy=100 dh=0 dv=0
PairPos2: "Pairwise Positioning (kerning) lookup 31 subtable" kasratanisolated dx=0 dy=0 dh=0 dv=0 dx=0 dy=100 dh=0 dv=0
PairPos2: "Pairwise Positioning (kerning) lookup 31 subtable" dammatanisolated dx=0 dy=0 dh=0 dv=0 dx=0 dy=100 dh=0 dv=0
PairPos2: "Pairwise Positioning (kerning) lookup 31 subtable" fathatanisolated dx=0 dy=0 dh=0 dv=0 dx=0 dy=100 dh=0 dv=0
PairPos2: "Pairwise Positioning (kerning) lookup 31 subtable" shaddawithkasratanlow.moved.001 dx=0 dy=0 dh=0 dv=0 dx=0 dy=100 dh=0 dv=0
PairPos2: "Pairwise Positioning (kerning) lookup 31 subtable" shaddawithkasratanlow.moved dx=0 dy=0 dh=0 dv=0 dx=0 dy=100 dh=0 dv=0
PairPos2: "Pairwise Positioning (kerning) lookup 31 subtable" shaddalow_dammatanalignedlow_ga dx=0 dy=0 dh=0 dv=0 dx=0 dy=100 dh=0 dv=0
PairPos2: "Pairwise Positioning (kerning) lookup 31 subtable" _.ndefine1 dx=0 dy=0 dh=0 dv=0 dx=0 dy=100 dh=0 dv=0
PairPos2: "Pairwise Positioning (kerning) lookup 31 subtable" _.ndefine2 dx=0 dy=0 dh=0 dv=0 dx=0 dy=100 dh=0 dv=0
PairPos2: "Pairwise Positioning (kerning) lookup 31 subtable" shaddawithdammatanaligned dx=0 dy=0 dh=0 dv=0 dx=0 dy=100 dh=0 dv=0
PairPos2: "Pairwise Positioning (kerning) lookup 31 subtable" shaddawithdammatanisolatedlow dx=0 dy=0 dh=0 dv=0 dx=0 dy=100 dh=0 dv=0
PairPos2: "Pairwise Positioning (kerning) lookup 31 subtable" shaddawithfathaisolatedlow dx=0 dy=0 dh=0 dv=0 dx=0 dy=100 dh=0 dv=0
PairPos2: "Pairwise Positioning (kerning) lookup 31 subtable" shaddawithdammaisolatedlow dx=0 dy=0 dh=0 dv=0 dx=0 dy=100 dh=0 dv=0
PairPos2: "Pairwise Positioning (kerning) lookup 31 subtable" shaddawithfathatanisolated dx=0 dy=0 dh=0 dv=0 dx=0 dy=100 dh=0 dv=0
PairPos2: "Pairwise Positioning (kerning) lookup 31 subtable" shaddawithfathatanaligned dx=0 dy=0 dh=0 dv=0 dx=0 dy=100 dh=0 dv=0
PairPos2: "Pairwise Positioning (kerning) lookup 31 subtable" uni06EB dx=0 dy=0 dh=0 dv=0 dx=0 dy=100 dh=0 dv=0
PairPos2: "Pairwise Positioning (kerning) lookup 31 subtable" uni06E8 dx=0 dy=0 dh=0 dv=0 dx=0 dy=100 dh=0 dv=0
PairPos2: "Pairwise Positioning (kerning) lookup 31 subtable" uni06E2 dx=0 dy=0 dh=0 dv=0 dx=0 dy=100 dh=0 dv=0
PairPos2: "Pairwise Positioning (kerning) lookup 31 subtable" uni06E1 dx=0 dy=0 dh=0 dv=0 dx=0 dy=100 dh=0 dv=0
PairPos2: "Pairwise Positioning (kerning) lookup 31 subtable" uni06E0 dx=0 dy=0 dh=0 dv=0 dx=0 dy=100 dh=0 dv=0
PairPos2: "Pairwise Positioning (kerning) lookup 31 subtable" uni06DF dx=0 dy=0 dh=0 dv=0 dx=0 dy=100 dh=0 dv=0
PairPos2: "Pairwise Positioning (kerning) lookup 31 subtable" uni065B dx=0 dy=0 dh=0 dv=0 dx=0 dy=100 dh=0 dv=0
PairPos2: "Pairwise Positioning (kerning) lookup 31 subtable" uni065A dx=0 dy=0 dh=0 dv=0 dx=0 dy=100 dh=0 dv=0
PairPos2: "Pairwise Positioning (kerning) lookup 31 subtable" uni0659 dx=0 dy=0 dh=0 dv=0 dx=0 dy=100 dh=0 dv=0
PairPos2: "Pairwise Positioning (kerning) lookup 31 subtable" uni0652 dx=0 dy=0 dh=0 dv=0 dx=0 dy=100 dh=0 dv=0
PairPos2: "Pairwise Positioning (kerning) lookup 31 subtable" uni0651 dx=0 dy=0 dh=0 dv=0 dx=0 dy=100 dh=0 dv=0
PairPos2: "Pairwise Positioning (kerning) lookup 31 subtable" uni0650 dx=0 dy=0 dh=0 dv=0 dx=0 dy=100 dh=0 dv=0
PairPos2: "Pairwise Positioning (kerning) lookup 31 subtable" uni064F dx=0 dy=0 dh=0 dv=0 dx=0 dy=100 dh=0 dv=0
PairPos2: "Pairwise Positioning (kerning) lookup 31 subtable" uni064E dx=0 dy=0 dh=0 dv=0 dx=0 dy=100 dh=0 dv=0
PairPos2: "Pairwise Positioning (kerning) lookup 31 subtable" uni064D dx=0 dy=0 dh=0 dv=0 dx=0 dy=100 dh=0 dv=0
PairPos2: "Pairwise Positioning (kerning) lookup 31 subtable" uni064C dx=0 dy=0 dh=0 dv=0 dx=0 dy=100 dh=0 dv=0
PairPos2: "Pairwise Positioning (kerning) lookup 31 subtable" uni064B dx=0 dy=0 dh=0 dv=0 dx=0 dy=100 dh=0 dv=0
PairPos2: "Pairwise Positioning (kerning) lookup 29 subtable" _.notdef.001 dx=0 dy=0 dh=0 dv=0 dx=0 dy=50 dh=0 dv=0
PairPos2: "Pairwise Positioning (kerning) lookup 29 subtable" _.notdef.002 dx=0 dy=0 dh=0 dv=0 dx=0 dy=50 dh=0 dv=0
PairPos2: "Pairwise Positioning (kerning) lookup 29 subtable" uni036F dx=0 dy=0 dh=0 dv=0 dx=0 dy=50 dh=0 dv=0
PairPos2: "Pairwise Positioning (kerning) lookup 29 subtable" uni036E dx=0 dy=0 dh=0 dv=0 dx=0 dy=50 dh=0 dv=0
PairPos2: "Pairwise Positioning (kerning) lookup 29 subtable" uni036D dx=0 dy=0 dh=0 dv=0 dx=0 dy=50 dh=0 dv=0
PairPos2: "Pairwise Positioning (kerning) lookup 29 subtable" kasratanisolated dx=0 dy=0 dh=0 dv=0 dx=0 dy=50 dh=0 dv=0
PairPos2: "Pairwise Positioning (kerning) lookup 29 subtable" dammatanisolated dx=0 dy=0 dh=0 dv=0 dx=0 dy=50 dh=0 dv=0
PairPos2: "Pairwise Positioning (kerning) lookup 29 subtable" fathatanisolated dx=0 dy=0 dh=0 dv=0 dx=0 dy=50 dh=0 dv=0
PairPos2: "Pairwise Positioning (kerning) lookup 29 subtable" shaddawithkasratanlow.moved.001 dx=0 dy=0 dh=0 dv=0 dx=0 dy=50 dh=0 dv=0
PairPos2: "Pairwise Positioning (kerning) lookup 29 subtable" shaddawithkasratanlow.moved dx=0 dy=0 dh=0 dv=0 dx=0 dy=50 dh=0 dv=0
PairPos2: "Pairwise Positioning (kerning) lookup 29 subtable" shaddalow_dammatanalignedlow_ga dx=0 dy=0 dh=0 dv=0 dx=0 dy=50 dh=0 dv=0
PairPos2: "Pairwise Positioning (kerning) lookup 29 subtable" _.ndefine1 dx=0 dy=0 dh=0 dv=0 dx=0 dy=50 dh=0 dv=0
PairPos2: "Pairwise Positioning (kerning) lookup 29 subtable" _.ndefine2 dx=0 dy=0 dh=0 dv=0 dx=0 dy=50 dh=0 dv=0
PairPos2: "Pairwise Positioning (kerning) lookup 29 subtable" shaddawithdammatanaligned dx=0 dy=0 dh=0 dv=0 dx=0 dy=50 dh=0 dv=0
PairPos2: "Pairwise Positioning (kerning) lookup 29 subtable" shaddawithdammatanisolatedlow dx=0 dy=0 dh=0 dv=0 dx=0 dy=50 dh=0 dv=0
PairPos2: "Pairwise Positioning (kerning) lookup 29 subtable" shaddawithfathaisolatedlow dx=0 dy=0 dh=0 dv=0 dx=0 dy=50 dh=0 dv=0
PairPos2: "Pairwise Positioning (kerning) lookup 29 subtable" shaddawithdammaisolatedlow dx=0 dy=0 dh=0 dv=0 dx=0 dy=50 dh=0 dv=0
PairPos2: "Pairwise Positioning (kerning) lookup 29 subtable" shaddawithfathatanisolated dx=0 dy=0 dh=0 dv=0 dx=0 dy=50 dh=0 dv=0
PairPos2: "Pairwise Positioning (kerning) lookup 29 subtable" shaddawithfathatanaligned dx=0 dy=0 dh=0 dv=0 dx=0 dy=50 dh=0 dv=0
PairPos2: "Pairwise Positioning (kerning) lookup 29 subtable" uni06EB dx=0 dy=0 dh=0 dv=0 dx=0 dy=50 dh=0 dv=0
PairPos2: "Pairwise Positioning (kerning) lookup 29 subtable" uni06E8 dx=0 dy=0 dh=0 dv=0 dx=0 dy=50 dh=0 dv=0
PairPos2: "Pairwise Positioning (kerning) lookup 29 subtable" uni06E2 dx=0 dy=0 dh=0 dv=0 dx=0 dy=50 dh=0 dv=0
PairPos2: "Pairwise Positioning (kerning) lookup 29 subtable" uni06E1 dx=0 dy=0 dh=0 dv=0 dx=0 dy=50 dh=0 dv=0
PairPos2: "Pairwise Positioning (kerning) lookup 29 subtable" uni06E0 dx=0 dy=0 dh=0 dv=0 dx=0 dy=50 dh=0 dv=0
PairPos2: "Pairwise Positioning (kerning) lookup 29 subtable" uni06DF dx=0 dy=0 dh=0 dv=0 dx=0 dy=50 dh=0 dv=0
PairPos2: "Pairwise Positioning (kerning) lookup 29 subtable" uni065B dx=0 dy=0 dh=0 dv=0 dx=0 dy=50 dh=0 dv=0
PairPos2: "Pairwise Positioning (kerning) lookup 29 subtable" uni065A dx=0 dy=0 dh=0 dv=0 dx=0 dy=50 dh=0 dv=0
PairPos2: "Pairwise Positioning (kerning) lookup 29 subtable" uni0659 dx=0 dy=0 dh=0 dv=0 dx=0 dy=50 dh=0 dv=0
PairPos2: "Pairwise Positioning (kerning) lookup 29 subtable" uni0652 dx=0 dy=0 dh=0 dv=0 dx=0 dy=50 dh=0 dv=0
PairPos2: "Pairwise Positioning (kerning) lookup 29 subtable" uni0651 dx=0 dy=0 dh=0 dv=0 dx=0 dy=50 dh=0 dv=0
PairPos2: "Pairwise Positioning (kerning) lookup 29 subtable" uni0650 dx=0 dy=0 dh=0 dv=0 dx=0 dy=50 dh=0 dv=0
PairPos2: "Pairwise Positioning (kerning) lookup 29 subtable" uni064F dx=0 dy=0 dh=0 dv=0 dx=0 dy=50 dh=0 dv=0
PairPos2: "Pairwise Positioning (kerning) lookup 29 subtable" uni064E dx=0 dy=0 dh=0 dv=0 dx=0 dy=50 dh=0 dv=0
PairPos2: "Pairwise Positioning (kerning) lookup 29 subtable" uni064D dx=0 dy=0 dh=0 dv=0 dx=0 dy=50 dh=0 dv=0
PairPos2: "Pairwise Positioning (kerning) lookup 29 subtable" uni064C dx=0 dy=0 dh=0 dv=0 dx=0 dy=50 dh=0 dv=0
PairPos2: "Pairwise Positioning (kerning) lookup 29 subtable" uni064B dx=0 dy=0 dh=0 dv=0 dx=0 dy=50 dh=0 dv=0
EndChar

StartChar: uni0636
Encoding: 1590 1590 28
Width: 1547
GlyphClass: 2
Flags: W
AnchorPoint: "Cursive-30" 1536 0 entry 0
AnchorPoint: "Cursive-20" 1536 0 entry 0
AnchorPoint: "Cursive-18" 1536 0 entry 0
AnchorPoint: "Anchor-2" 517 913 basechar 0
AnchorPoint: "Anchor-1" 1035 -240 basechar 0
AnchorPoint: "Anchor-0" 930 885 basechar 0
LayerCount: 2
Back
Fore
SplineSet
1017 650 m 0,0,1
 1003 618 1003 618 964 579 c 0,2,3
 957 572 957 572 949 572 c 0,4,5
 942 572 942 572 934 579 c 0,6,7
 907 605 907 605 866 630 c 0,8,9
 848 642 848 642 852 651 c 0,10,11
 886 705 886 705 916 738 c 0,12,13
 920 742 920 742 927 742 c 0,14,15
 935 742 935 742 946 736 c 0,16,17
 978 721 978 721 1006 691 c 0,18,19
 1019 677 1019 677 1019 662 c 0,20,21
 1019 658 1019 658 1017 650 c 0,0,1
1546 366 m 0,22,23
 1546 342 1546 342 1502 267 c 0,24,25
 1485 240 1485 240 1472 222 c 128,-1,26
 1459 204 1459 204 1442 184 c 0,27,28
 1389 122 1389 122 1314 86 c 0,29,30
 1275 69 1275 69 1233.5 56 c 128,-1,31
 1192 43 1192 43 1130 29 c 0,32,33
 1092 20 1092 20 1046.5 13.5 c 128,-1,34
 1001 7 1001 7 952 3 c 128,-1,35
 903 -1 903 -1 876.5 -1.5 c 128,-1,36
 850 -2 850 -2 834 -1 c 1,37,38
 840 -58 840 -58 835 -109 c 0,39,40
 828 -235 828 -235 738 -306 c 0,41,42
 678 -355 678 -355 582 -386 c 0,43,44
 539 -399 539 -399 492 -404.5 c 128,-1,45
 445 -410 445 -410 394 -410 c 0,46,47
 329 -408 329 -408 276.5 -392.5 c 128,-1,48
 224 -377 224 -377 180 -345 c 0,49,50
 74 -269 74 -269 77 -142 c 0,51,52
 79 -98 79 -98 88 -63.5 c 128,-1,53
 97 -29 97 -29 108 2 c 128,-1,54
 119 33 119 33 144 80 c 0,55,56
 182 149 182 149 192 147 c 0,57,58
 203 144 203 144 196 125 c 2,59,-1
 178 78 l 1,60,-1
 162 34 l 2,61,62
 145 -19 145 -19 143.5 -39 c 128,-1,63
 142 -59 142 -59 142 -70 c 0,64,65
 142 -86 142 -86 143 -93 c 0,66,67
 151 -144 151 -144 178 -176 c 0,68,69
 210 -216 210 -216 251.5 -232.5 c 128,-1,70
 293 -249 293 -249 336 -255.5 c 128,-1,71
 379 -262 379 -262 433 -262 c 0,72,73
 500 -262 500 -262 556.5 -249.5 c 128,-1,74
 613 -237 613 -237 658.5 -216.5 c 128,-1,75
 704 -196 704 -196 735 -172.5 c 128,-1,76
 766 -149 766 -149 766 -106 c 0,77,78
 766 -53 766 -53 739 12.5 c 128,-1,79
 712 78 712 78 662 139 c 0,80,81
 634 170 634 170 637 200 c 0,82,83
 644 253 644 253 674 302 c 0,84,85
 686 324 686 324 694 318 c 0,86,87
 702 313 702 313 745 253 c 0,88,89
 805 163 805 163 812 148 c 0,90,91
 816 140 816 140 833 139.5 c 128,-1,92
 850 139 850 139 880 140 c 128,-1,93
 910 141 910 141 916 147 c 0,94,95
 956 192 956 192 1021 258 c 0,96,97
 1102 341 1102 341 1185 417 c 0,98,99
 1224 453 1224 453 1263 474 c 0,100,101
 1311 498 1311 498 1366 490 c 0,102,103
 1430 482 1430 482 1500 434 c 0,104,105
 1546 402 1546 402 1546 366 c 0,22,23
1415 301 m 0,106,107
 1415 313 1415 313 1388 331 c 0,108,109
 1346 355 1346 355 1319 355 c 2,110,-1
 1306 356 l 2,111,112
 1287 356 1287 356 1261.5 346.5 c 128,-1,113
 1236 337 1236 337 1199 312 c 0,114,115
 1131 263 1131 263 1022 165 c 0,116,117
 1013 158 1013 158 1002 147 c 1,118,119
 1022 150 1022 150 1038 153 c 0,120,121
 1075 160 1075 160 1146 177.5 c 128,-1,122
 1217 195 1217 195 1290 222 c 0,123,124
 1345 242 1345 242 1377.5 263 c 128,-1,125
 1410 284 1410 284 1415 301 c 0,106,107
EndSplineSet
Substitution2: "Single Substitution lookup 42 subtable" uniFEBE
Substitution2: "Single Substitution lookup 41 subtable" uniFEBF
Substitution2: "Single Substitution lookup 40 subtable" uniFEBE
Substitution2: "Single Substitution lookup 39 subtable" uniFEBF
Substitution2: "'medi' Medial Forms in Arabic lookup 7 subtable" uniFEC0
Substitution2: "'init' Initial Forms in Arabic lookup 6 subtable" uniFEBF
AlternateSubs2: "'fina' Terminal Forms in Arabic lookup 0 subtable" uniFEBE
PairPos2: "Pairwise Positioning (kerning) lookup 32 subtable" _.notdef.001 dx=0 dy=0 dh=0 dv=0 dx=0 dy=100 dh=0 dv=0
PairPos2: "Pairwise Positioning (kerning) lookup 32 subtable" _.notdef.002 dx=0 dy=0 dh=0 dv=0 dx=0 dy=100 dh=0 dv=0
PairPos2: "Pairwise Positioning (kerning) lookup 32 subtable" uni036F dx=0 dy=0 dh=0 dv=0 dx=0 dy=100 dh=0 dv=0
PairPos2: "Pairwise Positioning (kerning) lookup 32 subtable" uni036E dx=0 dy=0 dh=0 dv=0 dx=0 dy=100 dh=0 dv=0
PairPos2: "Pairwise Positioning (kerning) lookup 32 subtable" uni036D dx=0 dy=0 dh=0 dv=0 dx=0 dy=100 dh=0 dv=0
PairPos2: "Pairwise Positioning (kerning) lookup 32 subtable" kasratanisolated dx=0 dy=0 dh=0 dv=0 dx=0 dy=100 dh=0 dv=0
PairPos2: "Pairwise Positioning (kerning) lookup 32 subtable" dammatanisolated dx=0 dy=0 dh=0 dv=0 dx=0 dy=100 dh=0 dv=0
PairPos2: "Pairwise Positioning (kerning) lookup 32 subtable" fathatanisolated dx=0 dy=0 dh=0 dv=0 dx=0 dy=100 dh=0 dv=0
PairPos2: "Pairwise Positioning (kerning) lookup 32 subtable" shaddawithkasratanlow.moved.001 dx=0 dy=0 dh=0 dv=0 dx=0 dy=100 dh=0 dv=0
PairPos2: "Pairwise Positioning (kerning) lookup 32 subtable" shaddawithkasratanlow.moved dx=0 dy=0 dh=0 dv=0 dx=0 dy=100 dh=0 dv=0
PairPos2: "Pairwise Positioning (kerning) lookup 32 subtable" shaddalow_dammatanalignedlow_ga dx=0 dy=0 dh=0 dv=0 dx=0 dy=100 dh=0 dv=0
PairPos2: "Pairwise Positioning (kerning) lookup 32 subtable" _.ndefine1 dx=0 dy=0 dh=0 dv=0 dx=0 dy=100 dh=0 dv=0
PairPos2: "Pairwise Positioning (kerning) lookup 32 subtable" _.ndefine2 dx=0 dy=0 dh=0 dv=0 dx=0 dy=100 dh=0 dv=0
PairPos2: "Pairwise Positioning (kerning) lookup 32 subtable" shaddawithdammatanaligned dx=0 dy=0 dh=0 dv=0 dx=0 dy=100 dh=0 dv=0
PairPos2: "Pairwise Positioning (kerning) lookup 32 subtable" shaddawithdammatanisolatedlow dx=0 dy=0 dh=0 dv=0 dx=0 dy=100 dh=0 dv=0
PairPos2: "Pairwise Positioning (kerning) lookup 32 subtable" shaddawithfathaisolatedlow dx=0 dy=0 dh=0 dv=0 dx=0 dy=100 dh=0 dv=0
PairPos2: "Pairwise Positioning (kerning) lookup 32 subtable" shaddawithdammaisolatedlow dx=0 dy=0 dh=0 dv=0 dx=0 dy=100 dh=0 dv=0
PairPos2: "Pairwise Positioning (kerning) lookup 32 subtable" shaddawithfathatanisolated dx=0 dy=0 dh=0 dv=0 dx=0 dy=100 dh=0 dv=0
PairPos2: "Pairwise Positioning (kerning) lookup 32 subtable" shaddawithfathatanaligned dx=0 dy=0 dh=0 dv=0 dx=0 dy=100 dh=0 dv=0
PairPos2: "Pairwise Positioning (kerning) lookup 32 subtable" uni06EB dx=0 dy=0 dh=0 dv=0 dx=0 dy=100 dh=0 dv=0
PairPos2: "Pairwise Positioning (kerning) lookup 32 subtable" uni06E8 dx=0 dy=0 dh=0 dv=0 dx=0 dy=100 dh=0 dv=0
PairPos2: "Pairwise Positioning (kerning) lookup 32 subtable" uni06E2 dx=0 dy=0 dh=0 dv=0 dx=0 dy=100 dh=0 dv=0
PairPos2: "Pairwise Positioning (kerning) lookup 32 subtable" uni06E1 dx=0 dy=0 dh=0 dv=0 dx=0 dy=100 dh=0 dv=0
PairPos2: "Pairwise Positioning (kerning) lookup 32 subtable" uni06E0 dx=0 dy=0 dh=0 dv=0 dx=0 dy=100 dh=0 dv=0
PairPos2: "Pairwise Positioning (kerning) lookup 32 subtable" uni06DF dx=0 dy=0 dh=0 dv=0 dx=0 dy=100 dh=0 dv=0
PairPos2: "Pairwise Positioning (kerning) lookup 32 subtable" uni065B dx=0 dy=0 dh=0 dv=0 dx=0 dy=100 dh=0 dv=0
PairPos2: "Pairwise Positioning (kerning) lookup 32 subtable" uni065A dx=0 dy=0 dh=0 dv=0 dx=0 dy=100 dh=0 dv=0
PairPos2: "Pairwise Positioning (kerning) lookup 32 subtable" uni0659 dx=0 dy=0 dh=0 dv=0 dx=0 dy=100 dh=0 dv=0
PairPos2: "Pairwise Positioning (kerning) lookup 32 subtable" uni0652 dx=0 dy=0 dh=0 dv=0 dx=0 dy=100 dh=0 dv=0
PairPos2: "Pairwise Positioning (kerning) lookup 32 subtable" uni0651 dx=0 dy=0 dh=0 dv=0 dx=0 dy=100 dh=0 dv=0
PairPos2: "Pairwise Positioning (kerning) lookup 32 subtable" uni0650 dx=0 dy=0 dh=0 dv=0 dx=0 dy=100 dh=0 dv=0
PairPos2: "Pairwise Positioning (kerning) lookup 32 subtable" uni064F dx=0 dy=0 dh=0 dv=0 dx=0 dy=100 dh=0 dv=0
PairPos2: "Pairwise Positioning (kerning) lookup 32 subtable" uni064E dx=0 dy=0 dh=0 dv=0 dx=0 dy=100 dh=0 dv=0
PairPos2: "Pairwise Positioning (kerning) lookup 32 subtable" uni064D dx=0 dy=0 dh=0 dv=0 dx=0 dy=100 dh=0 dv=0
PairPos2: "Pairwise Positioning (kerning) lookup 32 subtable" uni064C dx=0 dy=0 dh=0 dv=0 dx=0 dy=100 dh=0 dv=0
PairPos2: "Pairwise Positioning (kerning) lookup 32 subtable" uni064B dx=0 dy=0 dh=0 dv=0 dx=0 dy=100 dh=0 dv=0
PairPos2: "Pairwise Positioning (kerning) lookup 31 subtable" _.notdef.001 dx=0 dy=0 dh=0 dv=0 dx=0 dy=100 dh=0 dv=0
PairPos2: "Pairwise Positioning (kerning) lookup 31 subtable" _.notdef.002 dx=0 dy=0 dh=0 dv=0 dx=0 dy=100 dh=0 dv=0
PairPos2: "Pairwise Positioning (kerning) lookup 31 subtable" uni036F dx=0 dy=0 dh=0 dv=0 dx=0 dy=100 dh=0 dv=0
PairPos2: "Pairwise Positioning (kerning) lookup 31 subtable" uni036E dx=0 dy=0 dh=0 dv=0 dx=0 dy=100 dh=0 dv=0
PairPos2: "Pairwise Positioning (kerning) lookup 31 subtable" uni036D dx=0 dy=0 dh=0 dv=0 dx=0 dy=100 dh=0 dv=0
PairPos2: "Pairwise Positioning (kerning) lookup 31 subtable" kasratanisolated dx=0 dy=0 dh=0 dv=0 dx=0 dy=100 dh=0 dv=0
PairPos2: "Pairwise Positioning (kerning) lookup 31 subtable" dammatanisolated dx=0 dy=0 dh=0 dv=0 dx=0 dy=100 dh=0 dv=0
PairPos2: "Pairwise Positioning (kerning) lookup 31 subtable" fathatanisolated dx=0 dy=0 dh=0 dv=0 dx=0 dy=100 dh=0 dv=0
PairPos2: "Pairwise Positioning (kerning) lookup 31 subtable" shaddawithkasratanlow.moved.001 dx=0 dy=0 dh=0 dv=0 dx=0 dy=100 dh=0 dv=0
PairPos2: "Pairwise Positioning (kerning) lookup 31 subtable" shaddawithkasratanlow.moved dx=0 dy=0 dh=0 dv=0 dx=0 dy=100 dh=0 dv=0
PairPos2: "Pairwise Positioning (kerning) lookup 31 subtable" shaddalow_dammatanalignedlow_ga dx=0 dy=0 dh=0 dv=0 dx=0 dy=100 dh=0 dv=0
PairPos2: "Pairwise Positioning (kerning) lookup 31 subtable" _.ndefine1 dx=0 dy=0 dh=0 dv=0 dx=0 dy=100 dh=0 dv=0
PairPos2: "Pairwise Positioning (kerning) lookup 31 subtable" _.ndefine2 dx=0 dy=0 dh=0 dv=0 dx=0 dy=100 dh=0 dv=0
PairPos2: "Pairwise Positioning (kerning) lookup 31 subtable" shaddawithdammatanaligned dx=0 dy=0 dh=0 dv=0 dx=0 dy=100 dh=0 dv=0
PairPos2: "Pairwise Positioning (kerning) lookup 31 subtable" shaddawithdammatanisolatedlow dx=0 dy=0 dh=0 dv=0 dx=0 dy=100 dh=0 dv=0
PairPos2: "Pairwise Positioning (kerning) lookup 31 subtable" shaddawithfathaisolatedlow dx=0 dy=0 dh=0 dv=0 dx=0 dy=100 dh=0 dv=0
PairPos2: "Pairwise Positioning (kerning) lookup 31 subtable" shaddawithdammaisolatedlow dx=0 dy=0 dh=0 dv=0 dx=0 dy=100 dh=0 dv=0
PairPos2: "Pairwise Positioning (kerning) lookup 31 subtable" shaddawithfathatanisolated dx=0 dy=0 dh=0 dv=0 dx=0 dy=100 dh=0 dv=0
PairPos2: "Pairwise Positioning (kerning) lookup 31 subtable" shaddawithfathatanaligned dx=0 dy=0 dh=0 dv=0 dx=0 dy=100 dh=0 dv=0
PairPos2: "Pairwise Positioning (kerning) lookup 31 subtable" uni06EB dx=0 dy=0 dh=0 dv=0 dx=0 dy=100 dh=0 dv=0
PairPos2: "Pairwise Positioning (kerning) lookup 31 subtable" uni06E8 dx=0 dy=0 dh=0 dv=0 dx=0 dy=100 dh=0 dv=0
PairPos2: "Pairwise Positioning (kerning) lookup 31 subtable" uni06E2 dx=0 dy=0 dh=0 dv=0 dx=0 dy=100 dh=0 dv=0
PairPos2: "Pairwise Positioning (kerning) lookup 31 subtable" uni06E1 dx=0 dy=0 dh=0 dv=0 dx=0 dy=100 dh=0 dv=0
PairPos2: "Pairwise Positioning (kerning) lookup 31 subtable" uni06E0 dx=0 dy=0 dh=0 dv=0 dx=0 dy=100 dh=0 dv=0
PairPos2: "Pairwise Positioning (kerning) lookup 31 subtable" uni06DF dx=0 dy=0 dh=0 dv=0 dx=0 dy=100 dh=0 dv=0
PairPos2: "Pairwise Positioning (kerning) lookup 31 subtable" uni065B dx=0 dy=0 dh=0 dv=0 dx=0 dy=100 dh=0 dv=0
PairPos2: "Pairwise Positioning (kerning) lookup 31 subtable" uni065A dx=0 dy=0 dh=0 dv=0 dx=0 dy=100 dh=0 dv=0
PairPos2: "Pairwise Positioning (kerning) lookup 31 subtable" uni0659 dx=0 dy=0 dh=0 dv=0 dx=0 dy=100 dh=0 dv=0
PairPos2: "Pairwise Positioning (kerning) lookup 31 subtable" uni0652 dx=0 dy=0 dh=0 dv=0 dx=0 dy=100 dh=0 dv=0
PairPos2: "Pairwise Positioning (kerning) lookup 31 subtable" uni0651 dx=0 dy=0 dh=0 dv=0 dx=0 dy=100 dh=0 dv=0
PairPos2: "Pairwise Positioning (kerning) lookup 31 subtable" uni0650 dx=0 dy=0 dh=0 dv=0 dx=0 dy=100 dh=0 dv=0
PairPos2: "Pairwise Positioning (kerning) lookup 31 subtable" uni064F dx=0 dy=0 dh=0 dv=0 dx=0 dy=100 dh=0 dv=0
PairPos2: "Pairwise Positioning (kerning) lookup 31 subtable" uni064E dx=0 dy=0 dh=0 dv=0 dx=0 dy=100 dh=0 dv=0
PairPos2: "Pairwise Positioning (kerning) lookup 31 subtable" uni064D dx=0 dy=0 dh=0 dv=0 dx=0 dy=100 dh=0 dv=0
PairPos2: "Pairwise Positioning (kerning) lookup 31 subtable" uni064C dx=0 dy=0 dh=0 dv=0 dx=0 dy=100 dh=0 dv=0
PairPos2: "Pairwise Positioning (kerning) lookup 31 subtable" uni064B dx=0 dy=0 dh=0 dv=0 dx=0 dy=100 dh=0 dv=0
PairPos2: "Pairwise Positioning (kerning) lookup 29 subtable" _.notdef.001 dx=0 dy=0 dh=0 dv=0 dx=0 dy=50 dh=0 dv=0
PairPos2: "Pairwise Positioning (kerning) lookup 29 subtable" _.notdef.002 dx=0 dy=0 dh=0 dv=0 dx=0 dy=50 dh=0 dv=0
PairPos2: "Pairwise Positioning (kerning) lookup 29 subtable" uni036F dx=0 dy=0 dh=0 dv=0 dx=0 dy=50 dh=0 dv=0
PairPos2: "Pairwise Positioning (kerning) lookup 29 subtable" uni036E dx=0 dy=0 dh=0 dv=0 dx=0 dy=50 dh=0 dv=0
PairPos2: "Pairwise Positioning (kerning) lookup 29 subtable" uni036D dx=0 dy=0 dh=0 dv=0 dx=0 dy=50 dh=0 dv=0
PairPos2: "Pairwise Positioning (kerning) lookup 29 subtable" kasratanisolated dx=0 dy=0 dh=0 dv=0 dx=0 dy=50 dh=0 dv=0
PairPos2: "Pairwise Positioning (kerning) lookup 29 subtable" dammatanisolated dx=0 dy=0 dh=0 dv=0 dx=0 dy=50 dh=0 dv=0
PairPos2: "Pairwise Positioning (kerning) lookup 29 subtable" fathatanisolated dx=0 dy=0 dh=0 dv=0 dx=0 dy=50 dh=0 dv=0
PairPos2: "Pairwise Positioning (kerning) lookup 29 subtable" shaddawithkasratanlow.moved.001 dx=0 dy=0 dh=0 dv=0 dx=0 dy=50 dh=0 dv=0
PairPos2: "Pairwise Positioning (kerning) lookup 29 subtable" shaddawithkasratanlow.moved dx=0 dy=0 dh=0 dv=0 dx=0 dy=50 dh=0 dv=0
PairPos2: "Pairwise Positioning (kerning) lookup 29 subtable" shaddalow_dammatanalignedlow_ga dx=0 dy=0 dh=0 dv=0 dx=0 dy=50 dh=0 dv=0
PairPos2: "Pairwise Positioning (kerning) lookup 29 subtable" _.ndefine1 dx=0 dy=0 dh=0 dv=0 dx=0 dy=50 dh=0 dv=0
PairPos2: "Pairwise Positioning (kerning) lookup 29 subtable" _.ndefine2 dx=0 dy=0 dh=0 dv=0 dx=0 dy=50 dh=0 dv=0
PairPos2: "Pairwise Positioning (kerning) lookup 29 subtable" shaddawithdammatanaligned dx=0 dy=0 dh=0 dv=0 dx=0 dy=50 dh=0 dv=0
PairPos2: "Pairwise Positioning (kerning) lookup 29 subtable" shaddawithdammatanisolatedlow dx=0 dy=0 dh=0 dv=0 dx=0 dy=50 dh=0 dv=0
PairPos2: "Pairwise Positioning (kerning) lookup 29 subtable" shaddawithfathaisolatedlow dx=0 dy=0 dh=0 dv=0 dx=0 dy=50 dh=0 dv=0
PairPos2: "Pairwise Positioning (kerning) lookup 29 subtable" shaddawithdammaisolatedlow dx=0 dy=0 dh=0 dv=0 dx=0 dy=50 dh=0 dv=0
PairPos2: "Pairwise Positioning (kerning) lookup 29 subtable" shaddawithfathatanisolated dx=0 dy=0 dh=0 dv=0 dx=0 dy=50 dh=0 dv=0
PairPos2: "Pairwise Positioning (kerning) lookup 29 subtable" shaddawithfathatanaligned dx=0 dy=0 dh=0 dv=0 dx=0 dy=50 dh=0 dv=0
PairPos2: "Pairwise Positioning (kerning) lookup 29 subtable" uni06EB dx=0 dy=0 dh=0 dv=0 dx=0 dy=50 dh=0 dv=0
PairPos2: "Pairwise Positioning (kerning) lookup 29 subtable" uni06E8 dx=0 dy=0 dh=0 dv=0 dx=0 dy=50 dh=0 dv=0
PairPos2: "Pairwise Positioning (kerning) lookup 29 subtable" uni06E2 dx=0 dy=0 dh=0 dv=0 dx=0 dy=50 dh=0 dv=0
PairPos2: "Pairwise Positioning (kerning) lookup 29 subtable" uni06E1 dx=0 dy=0 dh=0 dv=0 dx=0 dy=50 dh=0 dv=0
PairPos2: "Pairwise Positioning (kerning) lookup 29 subtable" uni06E0 dx=0 dy=0 dh=0 dv=0 dx=0 dy=50 dh=0 dv=0
PairPos2: "Pairwise Positioning (kerning) lookup 29 subtable" uni06DF dx=0 dy=0 dh=0 dv=0 dx=0 dy=50 dh=0 dv=0
PairPos2: "Pairwise Positioning (kerning) lookup 29 subtable" uni065B dx=0 dy=0 dh=0 dv=0 dx=0 dy=50 dh=0 dv=0
PairPos2: "Pairwise Positioning (kerning) lookup 29 subtable" uni065A dx=0 dy=0 dh=0 dv=0 dx=0 dy=50 dh=0 dv=0
PairPos2: "Pairwise Positioning (kerning) lookup 29 subtable" uni0659 dx=0 dy=0 dh=0 dv=0 dx=0 dy=50 dh=0 dv=0
PairPos2: "Pairwise Positioning (kerning) lookup 29 subtable" uni0652 dx=0 dy=0 dh=0 dv=0 dx=0 dy=50 dh=0 dv=0
PairPos2: "Pairwise Positioning (kerning) lookup 29 subtable" uni0651 dx=0 dy=0 dh=0 dv=0 dx=0 dy=50 dh=0 dv=0
PairPos2: "Pairwise Positioning (kerning) lookup 29 subtable" uni0650 dx=0 dy=0 dh=0 dv=0 dx=0 dy=50 dh=0 dv=0
PairPos2: "Pairwise Positioning (kerning) lookup 29 subtable" uni064F dx=0 dy=0 dh=0 dv=0 dx=0 dy=50 dh=0 dv=0
PairPos2: "Pairwise Positioning (kerning) lookup 29 subtable" uni064E dx=0 dy=0 dh=0 dv=0 dx=0 dy=50 dh=0 dv=0
PairPos2: "Pairwise Positioning (kerning) lookup 29 subtable" uni064D dx=0 dy=0 dh=0 dv=0 dx=0 dy=50 dh=0 dv=0
PairPos2: "Pairwise Positioning (kerning) lookup 29 subtable" uni064C dx=0 dy=0 dh=0 dv=0 dx=0 dy=50 dh=0 dv=0
PairPos2: "Pairwise Positioning (kerning) lookup 29 subtable" uni064B dx=0 dy=0 dh=0 dv=0 dx=0 dy=50 dh=0 dv=0
EndChar

StartChar: uni0637
Encoding: 1591 1591 29
Width: 1122
GlyphClass: 2
Flags: W
AnchorPoint: "Cursive-30" 1085 0 entry 0
AnchorPoint: "Cursive-18" 1085 0 entry 0
AnchorPoint: "Anchor-2" 286 1177 basechar 0
AnchorPoint: "Anchor-1" 585 -135 basechar 0
AnchorPoint: "Anchor-0" 555 1155 basechar 0
LayerCount: 2
Back
Fore
SplineSet
486 942 m 0,1,2
 479 964 479 964 516 1039 c 0,3,4
 554 1108 554 1108 564 1105 c 0,5,6
 570 1103 570 1103 577.5 1045 c 128,-1,7
 585 987 585 987 597 960 c 0,8,9
 608 945 608 945 633 930 c 128,-1,10
 658 915 658 915 647 902 c 0,11,12
 603 822 603 822 607 806 c 2,13,-1
 616 713 l 1,14,15
 652 389 652 389 650 300 c 2,16,-1
 649 259 l 1,17,-1
 758 338 l 2,18,19
 825 384 825 384 865 398 c 0,20,21
 895 409 895 409 921 409 c 0,22,23
 941 409 941 409 964 403 c 0,24,25
 1012 392 1012 392 1086 327 c 0,26,27
 1105 311 1105 311 1114 289.5 c 128,-1,28
 1123 268 1123 268 1120 249 c 0,29,30
 1117 220 1117 220 1072 164 c 0,31,32
 1048 131 1048 131 1008 100 c 0,33,34
 952 54 952 54 868 23 c 0,35,36
 839 13 839 13 788.5 2 c 128,-1,37
 738 -9 738 -9 691 -17 c 128,-1,38
 644 -25 644 -25 598 -28 c 128,-1,39
 552 -31 552 -31 507 -31 c 0,40,41
 434 -31 434 -31 395 -24 c 128,-1,42
 356 -17 356 -17 291 11 c 0,43,44
 233 38 233 38 164 95 c 0,45,46
 87 162 87 162 75 180 c 0,47,48
 71 189 71 189 75 193 c 0,49,50
 84 196 84 196 106 186 c 128,-1,51
 128 176 128 176 156.5 164.5 c 128,-1,52
 185 153 185 153 218 143 c 128,-1,53
 251 133 251 133 292.5 124 c 128,-1,54
 334 115 334 115 379 111 c 2,55,-1
 434 108 l 1,56,57
 474 111 474 111 480 116 c 0,58,59
 540 167 540 167 566 193 c 128,-1,60
 592 219 592 219 590 252 c 0,61,62
 590 278 590 278 587 336 c 128,-1,63
 584 394 584 394 570 491 c 128,-1,64
 556 588 556 588 538 702 c 128,-1,0
 520 816 520 816 486 942 c 0,1,2
995 209 m 0,65,66
 996 217 996 217 971 241 c 0,67,68
 944 263 944 263 920.5 271 c 128,-1,69
 897 279 897 279 881.5 279 c 128,-1,70
 866 279 866 279 842.5 273.5 c 128,-1,71
 819 268 819 268 780 246 c 0,72,73
 640 164 640 164 572 108 c 1,74,75
 598 108 598 108 633 110.5 c 128,-1,76
 668 113 668 113 739.5 123 c 128,-1,77
 811 133 811 133 863.5 143.5 c 128,-1,78
 916 154 916 154 950 173 c 0,79,80
 990 194 990 194 995 209 c 0,65,66
EndSplineSet
Substitution2: "Single Substitution lookup 42 subtable" uniFEC2
Substitution2: "Single Substitution lookup 41 subtable" uniFEC3
Substitution2: "Single Substitution lookup 40 subtable" uniFEC2
Substitution2: "Single Substitution lookup 39 subtable" uniFEC3
Substitution2: "'medi' Medial Forms in Arabic lookup 7 subtable" uniFEC4
Substitution2: "'init' Initial Forms in Arabic lookup 6 subtable" uniFEC3
AlternateSubs2: "'fina' Terminal Forms in Arabic lookup 0 subtable" uniFEC2
EndChar

StartChar: uni0638
Encoding: 1592 1592 30
Width: 1118
GlyphClass: 2
Flags: W
AnchorPoint: "Cursive-30" 1085 0 entry 0
AnchorPoint: "Cursive-18" 1085 0 entry 0
AnchorPoint: "Anchor-2" 154 1353 basechar 0
AnchorPoint: "Anchor-1" 585 -135 basechar 0
AnchorPoint: "Anchor-0" 570 1155 basechar 0
LayerCount: 2
Back
Fore
SplineSet
968 693 m 0,0,1
 961 678 961 678 947 659.5 c 128,-1,2
 933 641 933 641 915 622 c 0,3,4
 908 615 908 615 900 615 c 256,5,6
 892 615 892 615 884 622 c 0,7,8
 871 636 871 636 854.5 648 c 128,-1,9
 838 660 838 660 818.5 672 c 128,-1,10
 799 684 799 684 804 694 c 0,11,12
 839 747 839 747 867 781 c 0,13,14
 871 785 871 785 878 785 c 0,15,16
 887 785 887 785 899 779 c 0,17,18
 928 764 928 764 958 734 c 0,19,20
 971 721 971 721 971 707 c 0,21,22
 971 701 971 701 968 693 c 0,0,1
486 942 m 0,24,25
 479 964 479 964 516 1039 c 0,26,27
 554 1108 554 1108 564 1105 c 0,28,29
 570 1103 570 1103 577.5 1045 c 128,-1,30
 585 987 585 987 597 960 c 0,31,32
 608 945 608 945 633 930 c 128,-1,33
 658 915 658 915 647 902 c 0,34,35
 603 822 603 822 607 806 c 2,36,-1
 616 713 l 1,37,38
 652 389 652 389 650 300 c 2,39,-1
 649 259 l 1,40,-1
 758 338 l 2,41,42
 825 384 825 384 865 398 c 0,43,44
 895 409 895 409 921 409 c 0,45,46
 941 409 941 409 964 403 c 0,47,48
 1012 392 1012 392 1086 327 c 0,49,50
 1105 311 1105 311 1114 289.5 c 128,-1,51
 1123 268 1123 268 1120 249 c 0,52,53
 1117 220 1117 220 1072 164 c 0,54,55
 1048 131 1048 131 1008 100 c 0,56,57
 952 54 952 54 868 23 c 0,58,59
 839 13 839 13 788.5 2 c 128,-1,60
 738 -9 738 -9 691 -17 c 128,-1,61
 644 -25 644 -25 598 -28 c 128,-1,62
 552 -31 552 -31 507 -31 c 0,63,64
 434 -31 434 -31 395 -24 c 128,-1,65
 356 -17 356 -17 291 11 c 0,66,67
 233 38 233 38 164 95 c 0,68,69
 87 162 87 162 75 180 c 0,70,71
 71 189 71 189 75 193 c 0,72,73
 84 196 84 196 106 186 c 128,-1,74
 128 176 128 176 156.5 164.5 c 128,-1,75
 185 153 185 153 218 143 c 128,-1,76
 251 133 251 133 292.5 124 c 128,-1,77
 334 115 334 115 379 111 c 2,78,-1
 434 108 l 1,79,80
 474 111 474 111 480 116 c 0,81,82
 540 167 540 167 566 193 c 128,-1,83
 592 219 592 219 590 252 c 0,84,85
 590 278 590 278 587 336 c 128,-1,86
 584 394 584 394 570 491 c 128,-1,87
 556 588 556 588 538 702 c 128,-1,23
 520 816 520 816 486 942 c 0,24,25
995 209 m 0,88,89
 996 217 996 217 971 241 c 0,90,91
 944 263 944 263 920.5 271 c 128,-1,92
 897 279 897 279 881.5 279 c 128,-1,93
 866 279 866 279 842.5 273.5 c 128,-1,94
 819 268 819 268 780 246 c 0,95,96
 640 164 640 164 572 108 c 1,97,98
 598 108 598 108 633 110.5 c 128,-1,99
 668 113 668 113 739.5 123 c 128,-1,100
 811 133 811 133 863.5 143.5 c 128,-1,101
 916 154 916 154 950 173 c 0,102,103
 990 194 990 194 995 209 c 0,88,89
EndSplineSet
Substitution2: "Single Substitution lookup 42 subtable" uniFEC6
Substitution2: "Single Substitution lookup 41 subtable" uniFEC7
Substitution2: "Single Substitution lookup 40 subtable" uniFEC6
Substitution2: "Single Substitution lookup 39 subtable" uniFEC7
Substitution2: "'medi' Medial Forms in Arabic lookup 7 subtable" uniFEC8
Substitution2: "'init' Initial Forms in Arabic lookup 6 subtable" uniFEC7
AlternateSubs2: "'fina' Terminal Forms in Arabic lookup 0 subtable" uniFEC6
EndChar

